<svg xmlns="http://www.w3.org/2000/svg" xmlns:xlink="http://www.w3.org/1999/xlink" viewBox="0 0 500 500"><defs><clipPath id="freepik--clip-path--inject-29"><path d="M291.94,262.64S254.55,306.27,239,310s-23.68,0-25.55,10.59,16.83,34.27,43.62,41.13,67.3,12.46,127.13-24.31,66.05-104.69,61.07-154.54S418,96,387.91,80.68C367.78,70.43,331.2,57,313.13,45.16S284.46,17.74,287,29s10,28.66,25.55,44.86,44.25,31.79,49.23,38,8.73,15.58,8.73,23.06-5.61,13.7-.62,13.08,13.08-23.06,13.08-32.4a114.63,114.63,0,0,0-1.24-16.83s23.05,14.33,21.81,33.65-20.57,39.89-24.31,43a15.12,15.12,0,0,1-8.72,3.12s-16.83-4.37-29.91-25.55-13.09-30.54-21.81-15.58-20.57,46.11-21.19,75.4S291.94,262.64,291.94,262.64Z" style="fill:#90CAF9;stroke:#263238;stroke-linecap:round;stroke-linejoin:round"></path></clipPath><clipPath id="freepik--clip-path-2--inject-29"><path d="M197.27,341.45l-14.79,8.45s-6-1.76-9.16.71a16.44,16.44,0,0,0-4.58,5.63,55,55,0,0,1-7-6.69c-4.58-4.93-18-5.28-18-4.23s2.11,2.82,2.82,6.69-1.41,9.86-1.41,9.86-9.51,1.77-15.15-1.76c0,0-7-13.38-14.79-18s-10.21-1.76-8.1,1.76,12.68,19.73,7.75,30.29S106.06,389,109.58,389s11.62-6.34,13.73-8.8a35.5,35.5,0,0,0,3.17-4.23s12.77,20.68,27.47,24c12.68,2.82,29.76,4.89,45.43-11.62,13-13.74,10.21-38.74,7.75-44.73S197.27,341.45,197.27,341.45Z" style="fill:#90CAF9;stroke:#263238;stroke-linecap:round;stroke-linejoin:round"></path></clipPath></defs><g id="freepik--Seaweed--inject-29"><path d="M411.74,412.51a11.48,11.48,0,0,1,1.92,4.68,14.26,14.26,0,0,1-.38,5.47c-.65,2.74-1.29,6.61-.7,8.94,1.41,5.64,6,8,7.75,13.1a8.1,8.1,0,0,1,.3,1.2,125.66,125.66,0,0,1,16,0c2.76.21,5.74.49,8.48.78a12,12,0,0,0,1.22-4.33c0-.05,0-.12,0-.18s0-.13,0-.18a7.76,7.76,0,0,0-.29-1.22,13.28,13.28,0,0,0,2.69-5.05c.48-1.88,0-5-.56-7.23a11.54,11.54,0,0,1-.32-4.44,9.25,9.25,0,0,1,1.56-3.79,28.66,28.66,0,0,1,4.37-4.37,13.47,13.47,0,0,0,3.52-4.9c0-.07,0-.13.06-.19a.91.91,0,0,0,.05-.21c.64-4.1-2.33-7.48-2.53-11.42s2.41-7.1,2.13-11a1,1,0,0,0,0-.17,1,1,0,0,0-.05-.18c-1.14-4.15-5.31-6.19-6.93-9.92s.79-7.37.05-11.18c0-.05,0-.15,0-.2-1.05-3.82-4.41-6.52-4.22-10.69s4.29-6.87,4.54-11.22c.13-2.41-1.57-4.4-2.85-6.48-.72-1.16-.58-3.2-.66-4.47-.27-4.56-3-1.1-3.7,1.76a11.84,11.84,0,0,0-.26,1.58c-.19-.61-.37-1.24-.51-1.88-1.33-6.86,4.09-13.67,3-20.25s-6.35-8.45-8.9-14c-2.4-4.16-1.72-11.28-3.58-15.28s-6.7-8.45-5.64-1.51c.3,1.94.83,4.69,0,6.58-1.53,3.38-3.53,6.21-2.89,9.85,1.16,6.56,8,9,9.74,15.26s-2.84,10.36-3.21,16.44a2.62,2.62,0,0,1,0,.28c-.35,5.68,4.82,9.94,3.38,15.55S426.35,356,425,361.77c0,.07-.06.16-.08.24s0,.18,0,.25c-1,5.55,2.62,9.74,1.1,15.35s-7.32,8.4-8.28,14.54a3.16,3.16,0,0,0,0,.32c0,.09,0,.18,0,.28a16.8,16.8,0,0,0,1.72,8.07,35.12,35.12,0,0,1,3,7.52,19.61,19.61,0,0,1,.38,5.41.88.88,0,0,1,0,.16,14,14,0,0,0-.33-2.22,1,1,0,0,0-.08-.25c-2.27-4.92-6.84-7.61-10.08-11.81a.46.46,0,0,1-.07-.14c-.67-4.86,1.76-8.73,2.76-13.37,0-.06,0-.16,0-.23s0-.14,0-.19c-.14-4.41-3.93-8-2.54-12.53s6.68-6.65,8.54-11a1.33,1.33,0,0,0,.09-.21,1.39,1.39,0,0,1,.06-.19c.67-3.94-.83-7.41-.72-11.39.15-5.72,5.28-11,5.47-16.5s-3.65-8.11-5.07-13c-1.12-3.85-.29-9.61-1.2-13.15s-4.24-7.8-4.57-2.18c-.09,1.57.08,4.09-.81,5.52-1.59,2.58-3.69,5-3.52,8,.3,5.36,5.37,8.69,5.6,13.85s-3.92,8.48-5.21,13.2c0,.06,0,.18,0,.24-.91,4.71,2.05,9.19.06,13.8s-7.15,7.13-8.55,12.25a.81.81,0,0,0-.07.22c0,.07,0,.16,0,.22-.34,4.85,2.89,8.77,2.64,13.62s-3.91,9-3.12,14.1a1,1,0,0,0,.06.26c0,.07,0,.15.07.23a16.53,16.53,0,0,0,4.34,6.05A35.35,35.35,0,0,1,411.74,412.51Zm22.38,9.95c-.28,2.88-1.54,5.3-1.69,8.1A11.34,11.34,0,0,1,431,427c-.82-3.95.89-7.16,2.08-10.59A14.94,14.94,0,0,1,434.12,422.46Zm6.91,9.89a8.19,8.19,0,0,1-.42-1.11,8.43,8.43,0,0,1,.14-4.68A30.61,30.61,0,0,1,441,432.35Zm-12-38.16c1.35-6,6.27-8.73,8.25-14.43,0-.08,0-.2.06-.28a1.06,1.06,0,0,0,.05-.23c1.14-5.64-2.76-10.2-.94-15.8a13.11,13.11,0,0,1,2.19-3.94c1.19,3.41,3.71,6.79,3.8,10.38.09,3.22-1.13,6-.58,9.23a.83.83,0,0,1,0,.15.89.89,0,0,0,.08.17c1.51,3.52,5.8,5.25,6.92,8.91s-1.95,6.57-2.06,10.14c0,0,0,.11,0,.16s0,.13,0,.18c.81,3.77,2.78,6.9,2.23,10.83a.19.19,0,0,1-.05.11c-2.32,3-5.48,5.07-7.46,8.27-1-3.08-3-5.79-2.4-9.22.7-4.11,5.1-6.29,5.88-10.57.43-2.38-1-4.56-2-6.79-.57-1.24-.18-3.24-.1-4.51.29-4.56-2.81-1.45-3.89,1.3s-1,7.46-2.27,10.44c-1.05,2.45-2.8,4-4,6-1.34-3.36-3.23-6.46-3.69-10.37A1,1,0,0,1,429,394.19Z" style="fill:#b5b5b5"></path><path d="M151.84,368.72c-.33-6.42,3.95-11.59,3.48-18,0-.08,0-.2,0-.29a2.63,2.63,0,0,0-.09-.3c-1.86-6.76-8.66-10.08-11.3-16.17s1.28-12,.08-18.23c0-.09,0-.25-.05-.32-1.7-6.24-7.19-10.64-6.88-17.45s7-11.2,7.4-18.29c.22-3.94-2.55-7.17-4.65-10.57-1.17-1.9-.94-5.22-1.07-7.29-.44-7.44-4.83-1.79-6,2.88a16.82,16.82,0,0,0-.42,2.54c-.31-1-.6-2-.83-3-2.16-11.18,6.68-22.29,4.95-33S126,217.39,121.9,208.3c-3.93-6.79-2.82-18.39-5.84-24.92s-10.94-13.78-9.2-2.46c.48,3.16,1.35,7.65,0,10.72-2.5,5.53-5.76,10.14-4.71,16.08,1.89,10.7,13.11,14.72,15.88,24.89s-4.64,16.89-5.23,26.8c0,.12,0,.34,0,.46-.58,9.27,7.86,16.2,5.5,25.36s-12.87,13.14-15.14,22.56c0,.12-.09.28-.11.41s-.06.28-.08.39c-1.6,9.07,4.27,15.9,1.81,25s-12,13.71-13.51,23.73a2.76,2.76,0,0,0,0,.51c0,.14,0,.29,0,.45A27.41,27.41,0,0,0,94,371.49c2,4.11,3.86,7.9,4.84,12.27a32.11,32.11,0,0,1,.63,8.81l0,.27a23.25,23.25,0,0,0-.54-3.62,2.92,2.92,0,0,0-.13-.42c-3.7-8-11.16-12.4-16.45-19.26a.65.65,0,0,1-.11-.22c-1.09-7.93,2.87-14.23,4.51-21.81,0-.1,0-.26,0-.36s0-.24,0-.32c-.22-7.19-6.41-13.07-4.14-20.43s10.89-10.85,13.93-17.93a1.47,1.47,0,0,0,.15-.34,2.8,2.8,0,0,1,.09-.31c1.1-6.43-1.35-12.09-1.17-18.58.25-9.33,8.62-18,8.92-26.9s-6-13.23-8.27-21.24c-1.82-6.29-.47-15.68-2-21.44s-6.92-12.73-7.46-3.55c-.15,2.55.13,6.66-1.32,9-2.59,4.2-6,8.19-5.74,13,.5,8.75,8.76,14.18,9.14,22.58s-6.39,13.84-8.5,21.54c0,.09,0,.29,0,.39-1.49,7.68,3.35,15,.09,22.51s-11.65,11.62-14,20c0,.1-.09.25-.1.36s0,.26,0,.36c-.57,7.92,4.71,14.3,4.3,22.22s-6.38,14.73-5.09,23a1.32,1.32,0,0,0,.09.42c.06.12.06.25.12.38a27.12,27.12,0,0,0,7.08,9.86c3.15,2.82,6.3,5.37,8.82,8.81a18.86,18.86,0,0,1,3.13,7.63c.54,2.76,0,6.44-.64,8.93C83,411.58,82,417.89,83,421.69c2.31,9.19,9.73,13.09,12.64,21.36a11.58,11.58,0,0,1,.47,5.8c1.4,0,20.26.3,39.24-1.26,1.26-2.67,2.47-5.35,2.63-8.45a2.64,2.64,0,0,0,0-.29,2.87,2.87,0,0,0,0-.31,14.26,14.26,0,0,0-.46-2,21.69,21.69,0,0,0,4.38-8.23c.78-3.08-.06-8.19-.92-11.8a19.2,19.2,0,0,1-.52-7.24,15.3,15.3,0,0,1,2.54-6.18,46.74,46.74,0,0,1,7.14-7.13,22,22,0,0,0,5.74-8c0-.11,0-.21.09-.31a1.19,1.19,0,0,0,.08-.34C157,380.65,152.17,375.13,151.84,368.72Zm-33.75,38.06c-.45,4.69-2.52,8.64-2.77,13.2a18.47,18.47,0,0,1-2.32-5.76c-1.34-6.44,1.45-11.68,3.39-17.27C117.48,400.23,118.4,403.53,118.09,406.78Zm11.26,16.14a14.16,14.16,0,0,1-.68-1.82,13.93,13.93,0,0,1,.22-7.64A48,48,0,0,1,129.35,422.92Zm13.11-37a.58.58,0,0,1-.08.18c-3.79,4.91-8.95,8.26-12.17,13.47-1.65-5-4.87-9.44-3.92-15,1.14-6.71,8.32-10.26,9.59-17.25.7-3.88-1.65-7.43-3.32-11.06-.93-2-.3-5.3-.17-7.37.48-7.43-4.57-2.36-6.34,2.12s-1.62,12.17-3.71,17c-1.7,4-4.56,6.59-6.56,9.84-2.17-5.47-5.27-10.53-6-16.9a1,1,0,0,1,0-.29C112,351,120,346.43,123.24,337.14c0-.12.05-.33.1-.45a3.39,3.39,0,0,0,.08-.39c1.85-9.19-4.5-16.63-1.53-25.76a21.44,21.44,0,0,1,3.56-6.42c2,5.55,6,11.07,6.21,16.92.14,5.26-1.84,9.85-.95,15.06a1.68,1.68,0,0,1,.07.24.9.9,0,0,0,.13.28c2.46,5.74,9.45,8.56,11.28,14.53s-3.17,10.72-3.36,16.55c0,.06-.05.17,0,.25s0,.22,0,.3C140.14,374.39,143.35,379.49,142.46,385.91Z" style="fill:#b5b5b5"></path><path d="M29.31,480.54c.12,0,.22-.32.29-.78C29.31,480.18,29.1,480.54,29.31,480.54Z" style="fill:#90CAF9"></path><path d="M30.39,478.38a10.34,10.34,0,0,0-.28-1.75,19.3,19.3,0,0,0-.51,3.13C30,479.25,30.41,478.63,30.39,478.38Z" style="fill:#90CAF9"></path><path d="M43.32,414a11.48,11.48,0,0,1,1.92,4.68,14.31,14.31,0,0,1-.39,5.48c-.65,2.74-1.28,6.61-.7,8.94,1.42,5.63,6,8,7.75,13.09a7.33,7.33,0,0,1,.31,1.2,125.66,125.66,0,0,1,16-.05c2.76.22,5.74.5,8.48.78a12,12,0,0,0,1.22-4.32c0-.05,0-.12,0-.18s0-.14,0-.19a9.29,9.29,0,0,0-.29-1.21,13.28,13.28,0,0,0,2.69-5.05c.48-1.89,0-5-.56-7.24a11.48,11.48,0,0,1-.32-4.43,9.25,9.25,0,0,1,1.56-3.79,29.19,29.19,0,0,1,4.37-4.38,13.42,13.42,0,0,0,3.52-4.9c0-.06,0-.13.06-.19a.72.72,0,0,0,.05-.21c.63-4.1-2.33-7.48-2.54-11.41s2.42-7.11,2.14-11c0-.05,0-.12,0-.18s0-.13,0-.18c-1.15-4.14-5.32-6.18-6.93-9.92s.78-7.36,0-11.17c0,0,0-.15,0-.2-1-3.83-4.41-6.52-4.22-10.7s4.29-6.87,4.54-11.21c.13-2.42-1.57-4.4-2.86-6.49-.71-1.16-.58-3.2-.65-4.47-.27-4.55-3-1.09-3.7,1.77a10.22,10.22,0,0,0-.26,1.58c-.19-.62-.37-1.24-.51-1.89-1.33-6.85,4.09-13.66,3-20.24s-6.35-8.45-8.9-14C65.62,298.11,66.31,291,64.45,287s-6.7-8.45-5.64-1.5c.3,1.93.83,4.69,0,6.57-1.53,3.39-3.53,6.22-2.89,9.86,1.16,6.56,8,9,9.74,15.26s-2.85,10.36-3.21,16.43c0,.08,0,.21,0,.29-.35,5.68,4.82,9.93,3.37,15.54s-7.88,8.06-9.28,13.84c0,.07-.05.17-.07.25s0,.17,0,.24c-1,5.56,2.62,9.75,1.1,15.35s-7.32,8.41-8.28,14.55a3,3,0,0,0,0,.31,2.66,2.66,0,0,1,0,.28,16.84,16.84,0,0,0,1.72,8.08,34.88,34.88,0,0,1,3,7.52,19.17,19.17,0,0,1,.39,5.4,1,1,0,0,1,0,.17,13.83,13.83,0,0,0-.33-2.22,1.12,1.12,0,0,0-.08-.26c-2.27-4.92-6.84-7.6-10.08-11.81a.33.33,0,0,1-.07-.13c-.67-4.86,1.76-8.73,2.76-13.37,0-.07,0-.17,0-.23s0-.14,0-.19c-.14-4.41-3.93-8-2.54-12.53s6.68-6.65,8.54-11a1,1,0,0,0,.09-.21c0-.06,0-.12.05-.18.68-3.95-.82-7.42-.71-11.4.15-5.72,5.28-11,5.47-16.49s-3.65-8.11-5.07-13c-1.12-3.86-.29-9.62-1.2-13.15s-4.24-7.8-4.57-2.18c-.09,1.57.07,4.09-.81,5.52-1.59,2.58-3.69,5-3.52,8,.3,5.37,5.37,8.7,5.6,13.85s-3.92,8.48-5.21,13.2c0,.06,0,.19,0,.25-.91,4.71,2.05,9.19.06,13.8S35.42,368.8,34,373.92a1.55,1.55,0,0,0-.06.23c0,.07,0,.16,0,.22-.35,4.85,2.89,8.76,2.64,13.62s-3.91,9-3.12,14.09a.82.82,0,0,0,.06.26c0,.08,0,.16.06.24a16.72,16.72,0,0,0,4.35,6A35.81,35.81,0,0,1,43.32,414ZM65.7,424c-.28,2.87-1.54,5.3-1.7,8.1a11.43,11.43,0,0,1-1.42-3.54c-.82-4,.89-7.17,2.08-10.59A14.91,14.91,0,0,1,65.7,424Zm6.91,9.89a8.73,8.73,0,0,1-.42-1.11,8.57,8.57,0,0,1,.13-4.69A30,30,0,0,1,72.61,433.87Zm-12-38.16c1.36-6,6.28-8.74,8.26-14.43a2.3,2.3,0,0,1,.06-.28c0-.08,0-.17,0-.24,1.14-5.63-2.76-10.19-.94-15.79A13.3,13.3,0,0,1,70.21,361c1.2,3.4,3.71,6.79,3.81,10.38.09,3.22-1.13,6-.58,9.22a.94.94,0,0,1,0,.16,1.3,1.3,0,0,0,.08.17c1.51,3.52,5.79,5.25,6.92,8.9s-2,6.58-2.06,10.15a.78.78,0,0,0,0,.16c0,.05,0,.13,0,.18.81,3.76,2.78,6.89,2.23,10.83a.22.22,0,0,1,0,.11c-2.32,3-5.49,5.07-7.46,8.26-1-3.07-3-5.79-2.4-9.21.69-4.12,5.1-6.29,5.88-10.58.43-2.37-1-4.55-2-6.78-.57-1.24-.18-3.25-.1-4.52.29-4.55-2.81-1.45-3.89,1.3s-1,7.46-2.27,10.45c-1,2.45-2.8,4-4,6-1.34-3.35-3.24-6.45-3.69-10.36A.49.49,0,0,1,60.6,395.71Z" style="fill:#b5b5b5"></path></g><g id="freepik--Bubbles--inject-29"><path d="M259.16,131.65a121,121,0,0,0,16.59-5.5" style="fill:none;stroke:#263238;stroke-linecap:round;stroke-linejoin:round"></path><path d="M89.56,128.31s29.06-16.15,71-6.46c30,6.92,54.46,14.93,81.29,12.68" style="fill:none;stroke:#263238;stroke-linecap:round;stroke-linejoin:round"></path><path d="M468.38,393.53s-22.64-17.79-57-10.77c-27.74,5.67-31.21,19.38-77.49,24.76" style="fill:none;stroke:#263238;stroke-linecap:round;stroke-linejoin:round"></path><path d="M323.1,408.59s-12.92,2.16-24.75,0" style="fill:none;stroke:#263238;stroke-linecap:round;stroke-linejoin:round"></path><path d="M153.35,262.22s-13.19-10.35-33.21-6.26C104,259.25,102,267.23,75,270.37" style="fill:none;stroke:#263238;stroke-linecap:round;stroke-linejoin:round"></path><path d="M68.76,271a48.17,48.17,0,0,1-14.41,0" style="fill:none;stroke:#263238;stroke-linecap:round;stroke-linejoin:round"></path><circle cx="122.52" cy="156.31" r="8.69" style="fill:none;stroke:#263238;stroke-linecap:round;stroke-linejoin:round"></circle><path d="M128.18,159.86a6.61,6.61,0,0,1-.94,1.17" style="fill:none;stroke:#263238;stroke-linecap:round;stroke-linejoin:round"></path><path d="M125.12,150.15a6.68,6.68,0,0,1,4.08,6.16,6.52,6.52,0,0,1-.13,1.33" style="fill:none;stroke:#263238;stroke-linecap:round;stroke-linejoin:round"></path><circle cx="275.69" cy="222.75" r="8.69" style="fill:none;stroke:#263238;stroke-linecap:round;stroke-linejoin:round"></circle><path d="M281.35,226.3a6.55,6.55,0,0,1-.93,1.17" style="fill:none;stroke:#263238;stroke-linecap:round;stroke-linejoin:round"></path><path d="M278.29,216.59a6.68,6.68,0,0,1,4.08,6.16,6.52,6.52,0,0,1-.13,1.33" style="fill:none;stroke:#263238;stroke-linecap:round;stroke-linejoin:round"></path><circle cx="118.36" cy="319.41" r="8.69" style="fill:none;stroke:#263238;stroke-linecap:round;stroke-linejoin:round"></circle><path d="M124,323a6.68,6.68,0,0,1-.94,1.18" style="fill:none;stroke:#263238;stroke-linecap:round;stroke-linejoin:round"></path><path d="M121,313.26a6.67,6.67,0,0,1,4.08,6.15,7.23,7.23,0,0,1-.13,1.33" style="fill:none;stroke:#263238;stroke-linecap:round;stroke-linejoin:round"></path><path d="M155.68,191.07a5.93,5.93,0,1,1-5.92-5.92A5.92,5.92,0,0,1,155.68,191.07Z" style="fill:none;stroke:#263238;stroke-linecap:round;stroke-linejoin:round"></path><path d="M153.62,193.49a5,5,0,0,1-.64.8" style="fill:none;stroke:#263238;stroke-linecap:round;stroke-linejoin:round"></path><path d="M151.53,186.87a4.55,4.55,0,0,1,2.78,4.2,4.6,4.6,0,0,1-.09.91" style="fill:none;stroke:#263238;stroke-linecap:round;stroke-linejoin:round"></path><circle cx="181.04" cy="111.2" r="5.92" style="fill:none;stroke:#263238;stroke-linecap:round;stroke-linejoin:round"></circle><path d="M184.9,113.62a4.5,4.5,0,0,1-.64.8" style="fill:none;stroke:#263238;stroke-linecap:round;stroke-linejoin:round"></path><path d="M182.81,107a4.57,4.57,0,0,1,2.69,5.11" style="fill:none;stroke:#263238;stroke-linecap:round;stroke-linejoin:round"></path><circle cx="286.53" cy="202.76" r="5.92" style="fill:none;stroke:#263238;stroke-linecap:round;stroke-linejoin:round"></circle><path d="M290.39,205.18a4.44,4.44,0,0,1-.63.8" style="fill:none;stroke:#263238;stroke-linecap:round;stroke-linejoin:round"></path><path d="M288.31,198.56a4.57,4.57,0,0,1,2.69,5.11" style="fill:none;stroke:#263238;stroke-linecap:round;stroke-linejoin:round"></path><circle cx="264.44" cy="200.33" r="5.92" style="fill:none;stroke:#263238;stroke-linecap:round;stroke-linejoin:round"></circle><path d="M268.3,202.75a4.89,4.89,0,0,1-.63.81" style="fill:none;stroke:#263238;stroke-linecap:round;stroke-linejoin:round"></path><path d="M266.22,196.14a4.56,4.56,0,0,1,2.69,5.1" style="fill:none;stroke:#263238;stroke-linecap:round;stroke-linejoin:round"></path><path d="M278.44,169.3a4.3,4.3,0,1,1-4.29-4.3A4.29,4.29,0,0,1,278.44,169.3Z" style="fill:none;stroke:#263238;stroke-linecap:round;stroke-linejoin:round"></path><path d="M277,171.05a3.31,3.31,0,0,1-.47.58" style="fill:none;stroke:#263238;stroke-linecap:round;stroke-linejoin:round"></path><path d="M275.43,166.25a3.31,3.31,0,0,1,2,3.05,3.49,3.49,0,0,1-.06.65" style="fill:none;stroke:#263238;stroke-linecap:round;stroke-linejoin:round"></path><circle cx="165.66" cy="284.66" r="4.3" style="fill:none;stroke:#263238;stroke-linecap:round;stroke-linejoin:round"></circle><path d="M168.46,286.42a3.17,3.17,0,0,1-.46.58" style="fill:none;stroke:#263238;stroke-linecap:round;stroke-linejoin:round"></path><path d="M167,281.62a3.3,3.3,0,0,1,2,3,3.51,3.51,0,0,1-.07.66" style="fill:none;stroke:#263238;stroke-linecap:round;stroke-linejoin:round"></path><path d="M235.06,253.34a4.3,4.3,0,1,1-4.3-4.29A4.31,4.31,0,0,1,235.06,253.34Z" style="fill:none;stroke:#263238;stroke-linecap:round;stroke-linejoin:round"></path><path d="M233.56,255.1a3.66,3.66,0,0,1-.46.58" style="fill:none;stroke:#263238;stroke-linecap:round;stroke-linejoin:round"></path><path d="M232.05,250.3a3.31,3.31,0,0,1,2,3,3.51,3.51,0,0,1-.07.66" style="fill:none;stroke:#263238;stroke-linecap:round;stroke-linejoin:round"></path><path d="M440.72,107.68a4.3,4.3,0,1,1-4.29-4.3A4.29,4.29,0,0,1,440.72,107.68Z" style="fill:none;stroke:#263238;stroke-linecap:round;stroke-linejoin:round"></path><path d="M439.23,109.43a2.91,2.91,0,0,1-.47.58" style="fill:none;stroke:#263238;stroke-linecap:round;stroke-linejoin:round"></path><path d="M437.71,104.63a3.31,3.31,0,0,1,2,3.05,3.49,3.49,0,0,1-.06.65" style="fill:none;stroke:#263238;stroke-linecap:round;stroke-linejoin:round"></path><circle cx="161.7" cy="331" r="4.3" style="fill:none;stroke:#263238;stroke-linecap:round;stroke-linejoin:round"></circle><path d="M164.5,332.76a3.73,3.73,0,0,1-.47.58" style="fill:none;stroke:#263238;stroke-linecap:round;stroke-linejoin:round"></path><path d="M163,328a3.29,3.29,0,0,1,2,3,2.84,2.84,0,0,1-.07.66" style="fill:none;stroke:#263238;stroke-linecap:round;stroke-linejoin:round"></path></g><g id="freepik--Shark--inject-29"><ellipse cx="342.42" cy="466.45" rx="99.22" ry="7.67" style="fill:#90CAF9"></ellipse><ellipse cx="342.42" cy="466.45" rx="99.22" ry="7.67" style="fill:#fff;opacity:0.5"></ellipse><path d="M291.94,262.64S254.55,306.27,239,310s-23.68,0-25.55,10.59,16.83,34.27,43.62,41.13,67.3,12.46,127.13-24.31,66.05-104.69,61.07-154.54S418,96,387.91,80.68C367.78,70.43,331.2,57,313.13,45.16S284.46,17.74,287,29s10,28.66,25.55,44.86,44.25,31.79,49.23,38,8.73,15.58,8.73,23.06-5.61,13.7-.62,13.08,13.08-23.06,13.08-32.4a114.63,114.63,0,0,0-1.24-16.83s23.05,14.33,21.81,33.65-20.57,39.89-24.31,43a15.12,15.12,0,0,1-8.72,3.12s-16.83-4.37-29.91-25.55-13.09-30.54-21.81-15.58-20.57,46.11-21.19,75.4S291.94,262.64,291.94,262.64Z" style="fill:#90CAF9"></path><g style="clip-path:url(#freepik--clip-path--inject-29)"><path d="M445.24,182.88a148.75,148.75,0,0,0-11.37-43.36c.53,3.88,1.06,8.78,1.51,14.91,1.51,20.49-5.12,48.21-24.71,80.75s-55.75,34.05-64.18,30.74S323,259.59,317,273.75,310,320.46,288,331.91s-50-6.63-62.07-13c-5.82-3.05-9.39-2.8-11.52-1.73a13.27,13.27,0,0,0-1,3.38c-1.87,10.59,16.83,34.27,43.62,41.13s67.3,12.46,127.13-24.31S450.22,232.73,445.24,182.88Z" style="fill:#fff"></path><path d="M311.33,241.69s11.12-4.44,11.86-33.33.74-62.24,7.41-56.31,13.33,37,23,42.23,19.26-2.22,24.45-6.67,21.48-14.07,21.48-20.74-6.66-14.82.75-15.56,8.89,3.7,11.11.74-2.22-29.63,4.44-28.89,14.08,31.85,14.08,83S418,283.18,378.75,314.3,321,361,286.14,354.3s-51.85-22.22-40-26.67,25.93,2.22,38.52-10.37,5.19-33.34,17-48.9,19.26-20,19.26-20-12.59.74-19.26,8.15C301.7,256.51,306.89,242.43,311.33,241.69Z" style="opacity:0.2"></path></g><path d="M291.94,262.64S254.55,306.27,239,310s-23.68,0-25.55,10.59,16.83,34.27,43.62,41.13,67.3,12.46,127.13-24.31,66.05-104.69,61.07-154.54S418,96,387.91,80.68C367.78,70.43,331.2,57,313.13,45.16S284.46,17.74,287,29s10,28.66,25.55,44.86,44.25,31.79,49.23,38,8.73,15.58,8.73,23.06-5.61,13.7-.62,13.08,13.08-23.06,13.08-32.4a114.63,114.63,0,0,0-1.24-16.83s23.05,14.33,21.81,33.65-20.57,39.89-24.31,43a15.12,15.12,0,0,1-8.72,3.12s-16.83-4.37-29.91-25.55-13.09-30.54-21.81-15.58-20.57,46.11-21.19,75.4S291.94,262.64,291.94,262.64Z" style="fill:none;stroke:#263238;stroke-linecap:round;stroke-linejoin:round"></path><path d="M392.7,164.91s-2.34-14.92-2.34-23.31-.93-7,.94-5.6,8.86,8.39,13.52,7.46" style="fill:#90CAF9;stroke:#263238;stroke-linecap:round;stroke-linejoin:round"></path><path d="M363,240s9.89-1.83,17.21,8.05" style="fill:none;stroke:#263238;stroke-linecap:round;stroke-linejoin:round"></path><path d="M367,232.68s9.88-1.83,17.21,8" style="fill:none;stroke:#263238;stroke-linecap:round;stroke-linejoin:round"></path><path d="M371.05,225.35s9.89-1.83,17.21,8.06" style="fill:none;stroke:#263238;stroke-linecap:round;stroke-linejoin:round"></path><line x1="291.94" y1="262.64" x2="304.4" y2="246.44" style="fill:none;stroke:#263238;stroke-linecap:round;stroke-linejoin:round"></line><path d="M381.68,98.75a92.34,92.34,0,0,0-16.83-2.49" style="fill:none;stroke:#263238;stroke-linecap:round;stroke-linejoin:round"></path><path d="M320.61,278.85s5.6-6.23,13.08-5.61" style="fill:none;stroke:#263238;stroke-linecap:round;stroke-linejoin:round"></path><path d="M250.19,356.12s38,10.59,68.55-24.3c24.4-27.89,8.1-56.71,8.1-56.71" style="fill:none;stroke:#263238;stroke-linecap:round;stroke-linejoin:round"></path><path d="M232.29,333.24c-.34.85-2.25.87-4.25.05s-3.34-2.17-3-3,2.26-.86,4.26,0S232.64,332.4,232.29,333.24Z" style="fill:none;stroke:#263238;stroke-linecap:round;stroke-linejoin:round"></path><path d="M345.79,261.6s17.58,32.22,42.11,39.91,44.66,4,44.66,4a124.51,124.51,0,0,0-34.78-35.15C375.45,255.74,364.83,255,364.83,255" style="fill:#90CAF9;stroke:#263238;stroke-linecap:round;stroke-linejoin:round"></path><path d="M273.3,314s-.73-20.51,4.76-16.48,8.79,12.82,8.79,12.82S277.33,314.32,273.3,314Z" style="fill:none;stroke:#263238;stroke-linecap:round;stroke-linejoin:round"></path><path d="M286.85,310.3s-14.65,2.93-18.68,2.56l-4-.37s5.12,3.66,9.88,2.93S284.28,310.3,286.85,310.3Z" style="fill:#263238;stroke:#263238;stroke-linecap:round;stroke-linejoin:round"></path><polygon points="275.13 318.72 274.76 312.86 280.25 312.13 280.25 316.15 275.13 318.72" style="fill:#263238;stroke:#263238;stroke-linecap:round;stroke-linejoin:round"></polygon><line x1="272.93" y1="320.18" x2="285.01" y2="314.69" style="fill:none;stroke:#263238;stroke-linecap:round;stroke-linejoin:round"></line><path d="M268.17,293.82s1.1-6.59,7.33-8.42,8.78,8.05,8.78,8.05S275.5,287.23,268.17,293.82Z" style="fill:#263238;stroke:#263238;stroke-linecap:round;stroke-linejoin:round"></path></g><g id="freepik--Baby shark--inject-29"><ellipse cx="141.16" cy="467.8" rx="34.17" ry="6.31" style="fill:#90CAF9"></ellipse><ellipse cx="141.16" cy="467.8" rx="34.17" ry="6.31" style="fill:#fff;opacity:0.5"></ellipse><path d="M197.27,341.45l-14.79,8.45s-6-1.76-9.16.71a16.44,16.44,0,0,0-4.58,5.63,55,55,0,0,1-7-6.69c-4.58-4.93-18-5.28-18-4.23s2.11,2.82,2.82,6.69-1.41,9.86-1.41,9.86-9.51,1.77-15.15-1.76c0,0-7-13.38-14.79-18s-10.21-1.76-8.1,1.76,12.68,19.73,7.75,30.29S106.06,389,109.58,389s11.62-6.34,13.73-8.8a35.5,35.5,0,0,0,3.17-4.23s12.77,20.68,27.47,24c12.68,2.82,29.76,4.89,45.43-11.62,13-13.74,10.21-38.74,7.75-44.73S197.27,341.45,197.27,341.45Z" style="fill:#90CAF9"></path><g style="clip-path:url(#freepik--clip-path-2--inject-29)"><path d="M207.13,343.56a5,5,0,0,0-2.84-2.95,26.06,26.06,0,0,0-8.78,5.77C191.28,351,186.35,355.54,179,365s-13,18-28.52,21.13c-13.46,2.76-20-6.71-21.73-6.93,4.28,6,14.22,18.22,25.25,20.67,12.68,2.82,29.76,4.89,45.43-11.62C212.41,374.55,209.59,349.55,207.13,343.56Z" style="fill:#fff"></path><path d="M195.36,349.48a7.56,7.56,0,0,0-8.22,3.13,37,37,0,0,1-12.14,11c-5.88,3.52-18.8,3.13-20,1.56s-2.74-10.18-3.92-11.35-3.13.78-3.13,5.09-4.31,9.39-4.31,9.39-9.79-1.17-12.14-2.74-12.92-18.4-13.31-14.88,4.3,13.71,3.13,17.62-9.4,10.19-6.66,10.19,10.57-7.84,12.92-7,5.6,10.14,14.35,15.84,21.68,9.61,35,5.3,23.1-26.23,23.1-34.46S197.71,347.91,195.36,349.48Z" style="opacity:0.2"></path></g><path d="M197.27,341.45l-14.79,8.45s-6-1.76-9.16.71a16.44,16.44,0,0,0-4.58,5.63,55,55,0,0,1-7-6.69c-4.58-4.93-18-5.28-18-4.23s2.11,2.82,2.82,6.69-1.41,9.86-1.41,9.86-9.51,1.77-15.15-1.76c0,0-7-13.38-14.79-18s-10.21-1.76-8.1,1.76,12.68,19.73,7.75,30.29S106.06,389,109.58,389s11.62-6.34,13.73-8.8a35.5,35.5,0,0,0,3.17-4.23s12.77,20.68,27.47,24c12.68,2.82,29.76,4.89,45.43-11.62,13-13.74,10.21-38.74,7.75-44.73S197.27,341.45,197.27,341.45Z" style="fill:none;stroke:#263238;stroke-linecap:round;stroke-linejoin:round"></path><path d="M187.05,362.93s3.88,3.88,11.27,3.88,9.87-4.58,9.87-4.58" style="fill:none;stroke:#263238;stroke-linecap:round;stroke-linejoin:round"></path><line x1="189.52" y1="360.47" x2="184.94" y2="364.69" style="fill:none;stroke:#263238;stroke-linecap:round;stroke-linejoin:round"></line><path d="M201.16,347.42c-.36.89-1.07,1.45-1.59,1.24s-.65-1.11-.3-2,1.08-1.45,1.6-1.24S201.52,346.52,201.16,347.42Z" style="fill:none;stroke:#263238;stroke-linecap:round;stroke-linejoin:round"></path><path d="M180.72,355.89c0,1.75-.95,3.17-2.12,3.17s-2.11-1.42-2.11-3.17.95-3.17,2.11-3.17S180.72,354.14,180.72,355.89Z" style="fill:#263238"></path><path d="M156.77,375.61s-.35,14.44,6.69,18.66c0,0,3.87-12.67,2.11-19.36" style="fill:#90CAF9;stroke:#263238;stroke-linecap:round;stroke-linejoin:round"></path><path d="M168.74,356.24s-7,4.93-10.92,4.93" style="fill:none;stroke:#263238;stroke-linecap:round;stroke-linejoin:round"></path><path d="M170.15,350.25a5.16,5.16,0,0,1,3.17-6c4.23-1.76,5.28,2.11,5.28,2.11S171.91,346.73,170.15,350.25Z" style="fill:#263238"></path></g><g id="freepik--Floor--inject-29"><path d="M22.76,453.31S45,444.6,74,447.8s68-.8,80-1.8,44-8,74-4,38,12,91,12,67-7.75,92-8.75S482,450,482,450" style="fill:none;stroke:#263238;stroke-linecap:round;stroke-linejoin:round"></path><path d="M136.12,452.21a.79.79,0,1,1-.79-.79A.79.79,0,0,1,136.12,452.21Z" style="fill:#263238"></path><path d="M46.43,464a.79.79,0,1,1-.79-.79A.79.79,0,0,1,46.43,464Z" style="fill:#263238"></path><path d="M106.71,457.06a.79.79,0,0,1-1.58,0,.79.79,0,1,1,1.58,0Z" style="fill:#263238"></path><path d="M181.63,447.66a.79.79,0,1,1-1.58,0,.79.79,0,1,1,1.58,0Z" style="fill:#263238"></path><path d="M157.94,451.73a.66.66,0,0,1-.66.65.65.65,0,0,1,0-1.3A.66.66,0,0,1,157.94,451.73Z" style="fill:#263238"></path><path d="M149.75,452.15a.65.65,0,1,1-.65-.65A.65.65,0,0,1,149.75,452.15Z" style="fill:#263238"></path><path d="M153.89,449.08a.65.65,0,1,1-.65-.65A.65.65,0,0,1,153.89,449.08Z" style="fill:#263238"></path><path d="M72.77,453a.65.65,0,0,1-.65.65.66.66,0,0,1-.66-.65.67.67,0,0,1,.66-.66A.66.66,0,0,1,72.77,453Z" style="fill:#263238"></path><path d="M64.58,453.38a.65.65,0,1,1-1.3,0,.65.65,0,1,1,1.3,0Z" style="fill:#263238"></path><path d="M68.72,450.31a.65.65,0,1,1-.65-.65A.65.65,0,0,1,68.72,450.31Z" style="fill:#263238"></path><circle cx="56.39" cy="459.47" r="0.65" style="fill:#263238"></circle><circle cx="48.21" cy="459.89" r="0.65" style="fill:#263238"></circle><path d="M53,456.83a.65.65,0,1,1-.65-.65A.65.65,0,0,1,53,456.83Z" style="fill:#263238"></path><circle cx="195.53" cy="448.64" r="0.65" style="fill:#263238"></circle><circle cx="187.35" cy="449.06" r="0.65" style="fill:#263238"></circle><circle cx="191.49" cy="445.99" r="0.65" style="fill:#263238"></circle><path d="M215.2,450.5a.65.65,0,1,1-.65-.65A.65.65,0,0,1,215.2,450.5Z" style="fill:#263238"></path><path d="M207,450.92a.65.65,0,1,1-.65-.65A.65.65,0,0,1,207,450.92Z" style="fill:#263238"></path><path d="M211.16,447.85a.67.67,0,0,1-.66.66.66.66,0,0,1-.65-.66.65.65,0,0,1,.65-.65A.66.66,0,0,1,211.16,447.85Z" style="fill:#263238"></path><path d="M248.32,462.08a.65.65,0,1,1-.65-.65A.65.65,0,0,1,248.32,462.08Z" style="fill:#263238"></path><circle cx="239.49" cy="462.5" r="0.65" style="fill:#263238"></circle><path d="M244.28,459.43a.67.67,0,0,1-.66.66.66.66,0,0,1-.65-.66.65.65,0,0,1,.65-.65A.66.66,0,0,1,244.28,459.43Z" style="fill:#263238"></path><path d="M155.7,466.4a.66.66,0,0,1-.66.65.65.65,0,1,1,0-1.3A.66.66,0,0,1,155.7,466.4Z" style="fill:#263238"></path><path d="M147.51,466.82a.65.65,0,1,1-.65-.65A.65.65,0,0,1,147.51,466.82Z" style="fill:#263238"></path><path d="M151.65,463.75a.65.65,0,1,1-.65-.65A.65.65,0,0,1,151.65,463.75Z" style="fill:#263238"></path><path d="M74.15,461.92a.65.65,0,1,1-1.3,0,.65.65,0,1,1,1.3,0Z" style="fill:#263238"></path><path d="M66,462.34a.65.65,0,1,1-1.3,0,.65.65,0,1,1,1.3,0Z" style="fill:#263238"></path><circle cx="69.46" cy="459.27" r="0.65" style="fill:#263238"></circle><path d="M211.82,468.84a.65.65,0,1,1-.65-.65A.65.65,0,0,1,211.82,468.84Z" style="fill:#263238"></path><path d="M203.64,469.26a.65.65,0,1,1-.65-.65A.65.65,0,0,1,203.64,469.26Z" style="fill:#263238"></path><path d="M207.78,466.2a.65.65,0,0,1-1.3,0,.65.65,0,1,1,1.3,0Z" style="fill:#263238"></path><circle cx="234.23" cy="447.82" r="0.65" style="fill:#263238"></circle><circle cx="226.04" cy="448.24" r="0.65" style="fill:#263238"></circle><path d="M230.83,445.18a.65.65,0,1,1-.65-.65A.65.65,0,0,1,230.83,445.18Z" style="fill:#263238"></path><circle cx="193.09" cy="457.27" r="0.65" style="fill:#263238"></circle><circle cx="184.91" cy="457.69" r="0.65" style="fill:#263238"></circle><circle cx="189.04" cy="454.63" r="0.65" style="fill:#263238"></circle><path d="M172.72,450.92a.65.65,0,1,1-.65-.65A.65.65,0,0,1,172.72,450.92Z" style="fill:#263238"></path><circle cx="163.89" cy="451.34" r="0.65" style="fill:#263238"></circle><circle cx="168.03" cy="448.27" r="0.65" style="fill:#263238"></circle><path d="M378.75,456a.79.79,0,1,1-.78-.79A.79.79,0,0,1,378.75,456Z" style="fill:#263238"></path><path d="M424.26,451.48a.79.79,0,1,1-.78-.79A.79.79,0,0,1,424.26,451.48Z" style="fill:#263238"></path><path d="M400.57,455.54a.65.65,0,1,1-.65-.65A.65.65,0,0,1,400.57,455.54Z" style="fill:#263238"></path><path d="M392.39,456a.66.66,0,1,1-.66-.65A.66.66,0,0,1,392.39,456Z" style="fill:#263238"></path><path d="M396.52,452.9a.65.65,0,1,1-.65-.65A.65.65,0,0,1,396.52,452.9Z" style="fill:#263238"></path><circle cx="438.17" cy="452.45" r="0.65" style="fill:#263238"></circle><circle cx="429.98" cy="452.87" r="0.65" style="fill:#263238"></circle><circle cx="434.12" cy="449.81" r="0.65" style="fill:#263238"></circle><path d="M457.83,454.32a.65.65,0,1,1-1.3,0,.65.65,0,1,1,1.3,0Z" style="fill:#263238"></path><path d="M449.65,454.74a.65.65,0,0,1-1.3,0,.65.65,0,1,1,1.3,0Z" style="fill:#263238"></path><path d="M453.79,451.67a.65.65,0,1,1-.65-.65A.65.65,0,0,1,453.79,451.67Z" style="fill:#263238"></path><circle cx="490.3" cy="465.9" r="0.65" style="fill:#263238"></circle><path d="M482.77,466.32a.65.65,0,1,1-1.3,0,.65.65,0,1,1,1.3,0Z" style="fill:#263238"></path><path d="M486.91,463.25a.65.65,0,1,1-.65-.65A.65.65,0,0,1,486.91,463.25Z" style="fill:#263238"></path><path d="M398.33,470.21a.65.65,0,1,1-.65-.65A.65.65,0,0,1,398.33,470.21Z" style="fill:#263238"></path><path d="M390.15,470.63a.65.65,0,0,1-.65.65.65.65,0,1,1,0-1.3A.65.65,0,0,1,390.15,470.63Z" style="fill:#263238"></path><path d="M394.28,467.57a.65.65,0,1,1-.65-.65A.65.65,0,0,1,394.28,467.57Z" style="fill:#263238"></path><path d="M454.46,472.66a.65.65,0,1,1-.65-.65A.65.65,0,0,1,454.46,472.66Z" style="fill:#263238"></path><path d="M446.28,473.08a.66.66,0,0,1-.66.65.65.65,0,0,1,0-1.3A.66.66,0,0,1,446.28,473.08Z" style="fill:#263238"></path><path d="M450.41,470a.65.65,0,1,1-.65-.65A.65.65,0,0,1,450.41,470Z" style="fill:#263238"></path><circle cx="476.86" cy="451.64" r="0.65" style="fill:#263238"></circle><circle cx="468.68" cy="452.06" r="0.65" style="fill:#263238"></circle><path d="M473.47,449a.66.66,0,0,1-.65.66.67.67,0,0,1-.66-.66.66.66,0,0,1,.66-.65A.65.65,0,0,1,473.47,449Z" style="fill:#263238"></path><path d="M436.37,461.09a.65.65,0,1,1-.65-.65A.65.65,0,0,1,436.37,461.09Z" style="fill:#263238"></path><path d="M428.19,461.51a.65.65,0,1,1-.65-.65A.65.65,0,0,1,428.19,461.51Z" style="fill:#263238"></path><circle cx="431.68" cy="458.44" r="0.65" style="fill:#263238"></circle><path d="M415.36,454.74a.66.66,0,0,1-.66.65.65.65,0,0,1-.65-.65.66.66,0,0,1,.65-.66A.67.67,0,0,1,415.36,454.74Z" style="fill:#263238"></path><path d="M407.17,455.16a.65.65,0,1,1-.65-.66A.66.66,0,0,1,407.17,455.16Z" style="fill:#263238"></path><circle cx="410.66" cy="452.09" r="0.65" style="fill:#263238"></circle><path d="M229,464.83a.79.79,0,1,1-.79-.79A.79.79,0,0,1,229,464.83Z" style="fill:#263238"></path><path d="M113.66,461.92a.79.79,0,1,1-.79-.79A.78.78,0,0,1,113.66,461.92Z" style="fill:#263238"></path><path d="M274.53,460.27a.79.79,0,1,1-.78-.78A.78.78,0,0,1,274.53,460.27Z" style="fill:#263238"></path><path d="M250.84,464.34a.65.65,0,1,1-.65-.65A.65.65,0,0,1,250.84,464.34Z" style="fill:#263238"></path><path d="M242.66,464.76a.65.65,0,0,1-.65.65.65.65,0,1,1,0-1.3A.65.65,0,0,1,242.66,464.76Z" style="fill:#263238"></path><circle cx="246.14" cy="461.7" r="0.65" style="fill:#263238"></circle><circle cx="288.44" cy="461.25" r="0.65" style="fill:#263238"></circle><circle cx="280.25" cy="461.67" r="0.65" style="fill:#263238"></circle><circle cx="284.39" cy="458.61" r="0.65" style="fill:#263238"></circle><path d="M308.1,463.11a.65.65,0,1,1-.65-.65A.65.65,0,0,1,308.1,463.11Z" style="fill:#263238"></path><path d="M299.92,463.53a.65.65,0,1,1-.65-.65A.65.65,0,0,1,299.92,463.53Z" style="fill:#263238"></path><path d="M304.06,460.47a.65.65,0,1,1-.65-.65A.65.65,0,0,1,304.06,460.47Z" style="fill:#263238"></path><circle cx="340.57" cy="474.69" r="0.65" style="fill:#263238"></circle><circle cx="332.39" cy="475.11" r="0.65" style="fill:#263238"></circle><circle cx="336.53" cy="472.05" r="0.65" style="fill:#263238"></circle><path d="M248.6,479a.65.65,0,1,1-.65-.65A.65.65,0,0,1,248.6,479Z" style="fill:#263238"></path><path d="M240.42,479.43a.65.65,0,0,1-.65.65.65.65,0,1,1,0-1.3A.65.65,0,0,1,240.42,479.43Z" style="fill:#263238"></path><path d="M244.56,476.37a.66.66,0,0,1-.66.65.65.65,0,0,1-.65-.65.66.66,0,0,1,.65-.66A.67.67,0,0,1,244.56,476.37Z" style="fill:#263238"></path><path d="M304.73,481.46a.65.65,0,1,1-.65-.66A.66.66,0,0,1,304.73,481.46Z" style="fill:#263238"></path><path d="M296.55,481.87a.67.67,0,0,1-.66.66.66.66,0,0,1-.65-.66.65.65,0,0,1,.65-.65A.66.66,0,0,1,296.55,481.87Z" style="fill:#263238"></path><path d="M300.68,478.81a.65.65,0,1,1-.65-.65A.65.65,0,0,1,300.68,478.81Z" style="fill:#263238"></path><circle cx="91.64" cy="464.73" r="0.65" style="fill:#263238"></circle><circle cx="83.46" cy="465.14" r="0.65" style="fill:#263238"></circle><path d="M88.24,462.08a.65.65,0,1,1-.65-.65A.65.65,0,0,1,88.24,462.08Z" style="fill:#263238"></path><circle cx="327.13" cy="460.44" r="0.65" style="fill:#263238"></circle><circle cx="318.95" cy="460.86" r="0.65" style="fill:#263238"></circle><circle cx="323.09" cy="457.79" r="0.65" style="fill:#263238"></circle><path d="M286.64,469.89a.65.65,0,1,1-.65-.65A.65.65,0,0,1,286.64,469.89Z" style="fill:#263238"></path><path d="M278.46,470.31a.65.65,0,1,1-.65-.65A.65.65,0,0,1,278.46,470.31Z" style="fill:#263238"></path><path d="M282.6,467.24a.65.65,0,1,1-.65-.65A.65.65,0,0,1,282.6,467.24Z" style="fill:#263238"></path><path d="M265.63,463.53a.65.65,0,0,1-.65.65.65.65,0,1,1,0-1.3A.65.65,0,0,1,265.63,463.53Z" style="fill:#263238"></path><path d="M257.44,464a.65.65,0,1,1-.65-.65A.65.65,0,0,1,257.44,464Z" style="fill:#263238"></path><path d="M261.58,460.89a.65.65,0,1,1-.65-.65A.65.65,0,0,1,261.58,460.89Z" style="fill:#263238"></path></g></svg>