<svg xmlns="http://www.w3.org/2000/svg" viewBox="0 0 500 500"><g id="freepik--Plant--inject-97"><path d="M191.62,457.58c.09,1.54-3.13,3.08-4.28,1.47s-20.82-59.65-26.54-72.11a67.73,67.73,0,0,0-7.13,8.45c-3.17,4.57-11.36,19.08-15.84,23.07s-14.91,10.7-17.63,13c0,0,12.47-20.48,14.3-22.75s9.48-12.46,13.09-15S160,385.13,160,385.13l-1.88-3.74s-5.4.76-8.6,4.43S132.71,399.14,125.34,402s-25,11.84-35.29,12.88c0,0,5.74-6.82,17-14a257,257,0,0,1,31.17-16.18c4.49-1.87,17.32-6.06,18-5.85s-2.16-4.64-2.16-4.64a185.17,185.17,0,0,1-19.63,5.95c-9.23,2.1-31.32,5.63-33.95,6.35s-26.63,5.74-29.63,7.15c0,0,7.75-8.26,17.25-11.34s25.5-8.08,31.58-8.48,32.9-1.78,32.9-1.78l-6.33-10.7s-19.77,6.48-25.06,7-27.48,1.92-33.86,2.65-23.72,1.42-23.72,1.42,23.67-10.05,29.18-11.25,27.44-2.32,32-2.16,20.47.46,20.47.46l-6.13-10.33s-3.86,2.82-10.31,2-22.44-2.4-24.63-1.81-21.38,2.65-23.55,2.74-16.39.31-16.88.29,25.72-9,32-9.4,26.09-3.22,42,3.72l-5.35-9.95s-14.68-5.34-29.14-5.14-40.69-1-46.4-3.62c0,0,15.13-5.21,23.92-5.55s28.3,2.89,33.73,4.9,17,6,17,6l-1.76-2.8L90,312.07c-5.91-2.75-31.5-14.07-32.89-13.56a82.63,82.63,0,0,1,25,3.75c12.19,4.09,40.57,20.5,42.78,22.68a19.8,19.8,0,0,0-5.24-5.65c-3.06-2-14.73-11.31-17.89-13.6S85,291.48,80.05,287.22,62.9,273.63,62.9,273.63a95.91,95.91,0,0,1,24.78,11.89c13,8.65,35.25,32.66,37.11,35.27,0,0-17.93-26-18.62-28.47s-13.36-19.06-15-20.8-17.68-24-17.68-24S94.41,262,101.86,270.31s21.88,37.81,26.2,50.5c0,0-3-18.36-2.89-24.75.12-9.89,0-22.87.49-26.37s1.36-20,10.51-35.62c0,0-3.88,31.36-2.4,39.39s1.4,47.14-3,54.54l2.4,4.74s7.16-33.93,8.19-44.12,2.7-24.66,4.93-29.34,8.49-16.73,8.49-16.73-1.18,10.24-2.06,16.39-1.32,36.87-4.16,42-11,29.61-14.09,34.22l5,9.38s2.72-12.67,6.22-21.17,15-43.86,17.18-47.95,9.23-21,9.23-21-3,21.49-5.34,29.63-3.92,32.13-26.28,62.47l4.86,8.15s11.14-24.14,16.33-32.75,25.11-49.73,28.55-53.65c0,0-3.9,17-5,20s-6.12,23.09-13.71,33.18-25,35.15-25,35.15l3.55,6s17.92-29.3,21.37-33.46,9.67-12.35,11.17-15.43,21.29-27.91,23.81-30.07c0,0-17.77,39.44-25.39,49.08-3.41,4.31-19.12,24.87-29.44,32.32l4.82,8.56s16.9-26.31,22.83-32.9S207.55,307,219,300c0,0-19.42,32-29,41.95s-32.6,33.46-32.6,33.46l2.26,4s24.89-25.76,36.36-35,31.72-23.82,31.72-23.82-12.23,17.61-20.18,27.13c-13.83,16.55-42.57,31.56-46.69,33.68l1.41,3s13.81-4.86,34.67-17,36-12.17,36-12.17-27.38,27.25-69.15,32.26l.7,1.49s21.74-2.15,27.93-1.11,26.41,3.51,26.41,3.51-17.05,4.45-28.83,4.76-24.86-4.85-24.86-4.85S191.15,449.28,191.62,457.58Z" style="fill:#455a64"></path></g><g id="freepik--Coconut--inject-97"><path d="M81.56,341.32s-49.87,47.28-20.74,92c27.58,42.38,87.3,26.62,110.65,1.73Z" style="fill:#BA68C8"></path><path d="M81.56,341.32s-49.87,47.28-20.74,92c27.58,42.38,87.3,26.62,110.65,1.73Z" style="opacity:0.5"></path><path d="M58.05,419.27A73.67,73.67,0,0,1,56.67,402a76.62,76.62,0,0,1,.64-8.68,28.38,28.38,0,0,1,.87-4.31c.22-.74.5-1.37.74-2.06l.71-2c.95-2.72,1.83-5.47,2.72-8.22l1.34-4.13a7.61,7.61,0,0,1,.38-1,5.62,5.62,0,0,1,.51-1c.36-.65.79-1.24,1.2-1.84A128.31,128.31,0,0,1,77.23,355.6c-1.9,2.18-3.79,4.37-5.62,6.6S68,366.68,66.33,369c-.38.6-.8,1.19-1.12,1.81l-.25.46-.2.47a9,9,0,0,0-.36,1l-1.3,4.13c-.86,2.76-1.72,5.52-2.65,8.27l-.74,2.05c-.24.67-.55,1.37-.74,2a27.55,27.55,0,0,0-.87,4.17c-.42,2.84-.61,5.72-.77,8.6s-.16,5.76-.06,8.64A67.18,67.18,0,0,0,58.05,419.27Z" style="opacity:0.1"></path><path d="M63.46,434.73c-.58-3.28-1.08-6.56-1.55-9.84S61,418.31,60.59,415l-.29-2.47a12.25,12.25,0,0,1,0-2.57,43.44,43.44,0,0,1,.73-5q1-4.89,2.42-9.67c-.3,1.63-.63,3.26-.91,4.89s-.61,3.26-.85,4.9-.5,3.27-.6,4.9a12.79,12.79,0,0,0,0,2.4l.33,2.47c.37,3.3.78,6.59,1.12,9.9S63.23,431.41,63.46,434.73Z" style="opacity:0.1"></path><path d="M67.08,439c.64-.67,1.31-1.3,2-1.95l2-1.89c1.32-1.27,2.7-2.5,4-3.78s2.48-2.7,3.76-4l1.94-2c.68-.64,1.32-1.29,2-1.9-.54.74-1.13,1.45-1.69,2.18l-1.75,2.12c-1.19,1.42-2.37,2.75-3.64,4.16a55.15,55.15,0,0,1-4.15,3.68C70.05,436.77,68.6,437.9,67.08,439Z" style="opacity:0.1"></path><path d="M73.29,447.22c3.3,1.53,6.61,3,10,4.44a83.11,83.11,0,0,0,10.2,3.72c.44.1.88.22,1.31.29s.86.15,1.31.16c.9.05,1.81.09,2.71.1,1.82,0,3.63,0,5.45,0,3.64,0,7.26-.2,10.93-.2,1.81.09,3.61,0,5.43-.05s3.62-.19,5.43-.33A87.83,87.83,0,0,0,136.8,454a17.37,17.37,0,0,0,2.59-.71,24.23,24.23,0,0,0,2.46-1.11c1.63-.8,3.24-1.63,4.85-2.47,3.24-1.66,6.45-3.38,9.67-5.08-3.13,1.87-6.29,3.67-9.46,5.46-1.6.88-3.2,1.74-4.82,2.58a24.65,24.65,0,0,1-2.48,1.19,20.21,20.21,0,0,1-2.66.8,78.15,78.15,0,0,1-10.86,1.51c-1.81.16-3.63.28-5.46.37s-3.66.17-5.48.09c-3.61,0-7.26.1-10.9.12-1.82,0-3.65,0-5.47,0-.92,0-1.83-.05-2.75-.13-.45,0-.93-.13-1.39-.19s-.9-.22-1.35-.33a80.78,80.78,0,0,1-10.2-4C79.78,450.52,76.5,448.93,73.29,447.22Z" style="opacity:0.1"></path><path d="M118.59,453.71c1.28-.2,2.57-.36,3.85-.54l3.86-.49c2.57-.34,5.16-.61,7.68-1a6.33,6.33,0,0,0,1.77-.48c.57-.26,1.14-.56,1.7-.86,1.14-.6,2.26-1.25,3.39-1.88l3.38-1.93,3.39-1.91c-1,.79-2.1,1.52-3.17,2.27L141.19,449c-1.09.72-2.21,1.38-3.34,2-.57.32-1.15.63-1.75.91a7.13,7.13,0,0,1-2,.57c-2.59.41-5.17.65-7.76.83S121.19,453.68,118.59,453.71Z" style="opacity:0.1"></path><path d="M84.36,449.15l10,.61c3.32.18,6.66.42,10,.35a17.74,17.74,0,0,0,4.84-.69c1.61-.42,3.18-.95,4.77-1.45s3.15-1.08,4.72-1.65,3.14-1.15,4.71-1.73a99,99,0,0,1-9.21,4c-1.56.61-3.16,1.12-4.78,1.58a18.61,18.61,0,0,1-5,.8c-1.69,0-3.37-.06-5-.16s-3.34-.22-5-.4C91,450.09,87.66,449.69,84.36,449.15Z" style="opacity:0.1"></path><path d="M72,444l3.73,0,3.73.06c2.48,0,5,.08,7.43,0,1.23,0,2.46-.06,3.68-.16a12.72,12.72,0,0,0,1.78-.25c.57-.11,1.18-.34,1.76-.51,1.17-.39,2.33-.82,3.48-1.28s2.3-.93,3.45-1.41a44.84,44.84,0,0,1-6.7,3.31,13.54,13.54,0,0,1-1.79.63,14.27,14.27,0,0,1-1.9.33c-1.25.13-2.5.19-3.75.21q-3.75,0-7.47-.24C77,444.61,74.47,444.38,72,444Z" style="opacity:0.1"></path><path d="M84.3,441.63c2-.83,3.91-1.5,5.85-2.23,1-.35,1.92-.74,2.87-1.14a13.57,13.57,0,0,0,2.72-1.48,7,7,0,0,1-2.41,2.08,18.4,18.4,0,0,1-2.88,1.35,26.92,26.92,0,0,1-3,.92A19.43,19.43,0,0,1,84.3,441.63Z" style="opacity:0.1"></path><path d="M67.08,424.75a40.51,40.51,0,0,1-.82-6.31,24.41,24.41,0,0,1,0-3.2,10.33,10.33,0,0,1,.66-3.23c.15-.25.29-.54.45-.75l.49-.63,1-1.26c.66-.82,1.3-1.66,2-2.48l2-2.45c.69-.79,1.36-1.61,2.08-2.39-.56.9-1.16,1.77-1.74,2.65l-1.82,2.6c-.59.87-1.23,1.71-1.85,2.56l-.94,1.27-.47.64c-.15.21-.23.4-.35.6a9.69,9.69,0,0,0-.64,2.94c-.12,1-.13,2.08-.16,3.12s0,2.1,0,3.15S67,423.69,67.08,424.75Z" style="opacity:0.1"></path><path d="M81.56,341.32c4.86-4.85,25.27-20.45,45.72-17.94s24.89,9.84,28.56,11.77,16.4,11.57,21.42,19.1,10.8,22.19,11,27.2,2.9,10.23,2.7,13.32-2.5,28.94-19.48,40.32-37.05,12.35-48,11.19-9.74-2.12-13.89-3-7.14-.1-8.39-1.93.29-3.09-3.38-4.92-3.86-.19-9.93-6.08-14.09-13.12-14.47-17.94-6.18-12.35-8.3-17.85S59.37,363.41,81.56,341.32Z" style="fill:#BA68C8"></path><path d="M81.56,341.32c4.86-4.85,25.27-20.45,45.72-17.94s24.89,9.84,28.56,11.77,16.4,11.57,21.42,19.1,10.8,22.19,11,27.2,2.9,10.23,2.7,13.32-2.5,28.94-19.48,40.32-37.05,12.35-48,11.19-9.74-2.12-13.89-3-7.14-.1-8.39-1.93.29-3.09-3.38-4.92-3.86-.19-9.93-6.08-14.09-13.12-14.47-17.94-6.18-12.35-8.3-17.85S59.37,363.41,81.56,341.32Z" style="opacity:0.6000000000000001"></path><path d="M85.11,344.71c4.49-4.47,23.31-18.86,42.17-16.54s22.95,9.07,26.33,10.85,15.12,10.67,19.75,17.61,10,20.46,10.14,25.09,2.67,9.43,2.49,12.28-2.31,26.68-18,37.18a61.71,61.71,0,0,1-41.41,10.09c-10.14-1.07-10.67-1.43-14.5-2.23s-6.15-.81-7.3-2.5-1.37-2.42-4.75-4.11-3.56-.18-9.17-5.61-11.56-12.34-13.34-16.55-5.69-11.38-7.65-16.45S64.65,365.08,85.11,344.71Z" style="fill:#fff"></path><path d="M98.47,356.6c3.16-3.15,16.39-13.27,29.66-11.64s16.14,6.38,18.52,7.63,10.63,7.51,13.89,12.39,7,14.39,7.13,17.65,1.88,6.63,1.75,8.63S167.8,410,156.78,417.42a43.38,43.38,0,0,1-29.12,7.09,63.89,63.89,0,0,1-10.2-1.57c-2.69-.56-4.33-.57-5.14-1.76a6.28,6.28,0,0,0-3.34-2.89c-2.38-1.19-2.5-.12-6.44-3.94s-8.14-8.68-9.39-11.64-4-8-5.38-11.57S84.08,370.93,98.47,356.6Z" style="fill:#ebebeb"></path><path d="M150.43,412.39a46.77,46.77,0,0,1-1.76,9.33,44.18,44.18,0,0,1-21,2.79,63.89,63.89,0,0,1-10.2-1.57c-2.69-.56-4.33-.56-5.14-1.76A6.27,6.27,0,0,0,109,418.3c-2.38-1.2-2.51-.14-6.45-3.95s-8.13-8.67-9.38-11.64-4-8-5.38-11.58c-1-2.5-2.4-11.48,1.85-21.56,5.32-2.46,11.7-4.24,18.09-3.49,13.72,1.63,16.69,6.38,19.16,7.64s11,7.51,14.36,12.39,7.25,14.39,7.39,17.64S150.56,410.38,150.43,412.39Z" style="fill:#dbdbdb"></path><path d="M124.58,346.33a51.75,51.75,0,0,1,.48-13.31,45.1,45.1,0,0,1,.2,6.67A46.56,46.56,0,0,1,124.58,346.33Z" style="fill:#ebebeb"></path><path d="M104.64,350.93a46.13,46.13,0,0,1-3-6,44.79,44.79,0,0,1-2.15-6.32,44.35,44.35,0,0,1,3,6A45.55,45.55,0,0,1,104.64,350.93Z" style="fill:#ebebeb"></path><path d="M100.37,347.49a35,35,0,0,1-5.85-9.43,30.41,30.41,0,0,1,3.29,4.49A32.52,32.52,0,0,1,100.37,347.49Z" style="fill:#ebebeb"></path><path d="M127.9,336.11a28,28,0,0,1-.51,5.19,27.14,27.14,0,0,1-1.36,5,31.42,31.42,0,0,1,1.87-10.22Z" style="fill:#ebebeb"></path><path d="M154.14,346.89a28,28,0,0,1-2.92,4.32,27.26,27.26,0,0,1-3.61,3.76,27.71,27.71,0,0,1,2.93-4.31A28.46,28.46,0,0,1,154.14,346.89Z" style="fill:#ebebeb"></path><path d="M153.52,351.74a11.91,11.91,0,0,1,1.95-2.72,11.69,11.69,0,0,1,2.59-2.13,12.89,12.89,0,0,1-4.54,4.85Z" style="fill:#ebebeb"></path><path d="M159.5,365.91a32.31,32.31,0,0,1,5.22-2.24,33,33,0,0,1,5.49-1.42,31.83,31.83,0,0,1-5.21,2.24A32.89,32.89,0,0,1,159.5,365.91Z" style="fill:#ebebeb"></path><path d="M167.8,390.42A30.5,30.5,0,0,1,173,389a29.66,29.66,0,0,1,5.34-.54,28.78,28.78,0,0,1-5.18,1.4A29.65,29.65,0,0,1,167.8,390.42Z" style="fill:#ebebeb"></path><path d="M168.48,393.61a52.61,52.61,0,0,1,13.5.33,52.61,52.61,0,0,1-13.5-.33Z" style="fill:#ebebeb"></path><path d="M175.23,391.49a13.79,13.79,0,0,1,6.75-1.07,11.6,11.6,0,0,1-3.31,1A12,12,0,0,1,175.23,391.49Z" style="fill:#ebebeb"></path><path d="M158.06,412.18a50.74,50.74,0,0,1,4.84,5,49.53,49.53,0,0,1,4.18,5.56,46.61,46.61,0,0,1-4.84-5A48.35,48.35,0,0,1,158.06,412.18Z" style="fill:#ebebeb"></path><path d="M152.22,420.09a22.59,22.59,0,0,1,1.08,4.6,21.73,21.73,0,0,1,.22,4.71,25.62,25.62,0,0,1-1.3-9.31Z" style="fill:#ebebeb"></path><path d="M104.64,417.46c-.57.6-1.08,1.23-1.65,1.81s-1.14,1.16-1.72,1.72A25.9,25.9,0,0,1,97.44,424a22.72,22.72,0,0,1,3.23-3.68,23.76,23.76,0,0,1,1.87-1.59A9,9,0,0,1,104.64,417.46Z" style="fill:#ebebeb"></path><path d="M79,398.14a27.71,27.71,0,0,1,9.41-2.8,24.55,24.55,0,0,1-4.58,1.82A25.07,25.07,0,0,1,79,398.14Z" style="fill:#ebebeb"></path><path d="M72,395.34a40.56,40.56,0,0,1,6.07-1.7,39.23,39.23,0,0,1,6.23-.85,40.44,40.44,0,0,1-6.06,1.7A40.55,40.55,0,0,1,72,395.34Z" style="fill:#ebebeb"></path><path d="M75.19,387.14a22,22,0,0,1,4.53-.72,21.33,21.33,0,0,1,4.58.15,24.12,24.12,0,0,1-9.11.57Z" style="fill:#ebebeb"></path><path d="M72.73,362.65a36.29,36.29,0,0,1,5.63,1.93,34.89,34.89,0,0,1,5.29,2.74,41.22,41.22,0,0,1-10.92-4.67Z" style="fill:#ebebeb"></path><path d="M82,359.94a10.28,10.28,0,0,1,2.66,1.74,10.53,10.53,0,0,1,2.09,2.4A11.6,11.6,0,0,1,82,359.94Z" style="fill:#ebebeb"></path><path d="M85.61,351.74A50.34,50.34,0,0,1,91,356.25a48.46,48.46,0,0,1,4.77,5.14,49.48,49.48,0,0,1-5.37-4.51A50.39,50.39,0,0,1,85.61,351.74Z" style="fill:#ebebeb"></path><path d="M112.52,436.78a40.18,40.18,0,0,1,3.33-11.29,40.18,40.18,0,0,1-3.33,11.29Z" style="fill:#ebebeb"></path><path d="M117.22,433.89a20.77,20.77,0,0,1,1.37-8.4,21.24,21.24,0,0,1-1.37,8.4Z" style="fill:#ebebeb"></path><path d="M268.47,419.12s-8.27,17.51-12.76,21.68-9.09,6.16-11.38,8.61-13.3,8-19.55,8.71-7.71-2.2-11.26-1.36-26,.32-28.75-.74-3.07-3.09-5.51-3.93-5.7-.87-9.53-3.69-9.19-11.08-13.9-15.63-9-11.06-10.36-14.85-4.13-13.92-5.3-19.32,2.09-17.34,2.09-17.34l12.49-13.37,5.55,1.8c6.08,13.75,21.18,55.59,38.53,59.91C220,434.86,268.47,419.12,268.47,419.12Z" style="fill:#BA68C8"></path><path d="M216.48,454.76s-.57,3.2-10,5" style="fill:#BA68C8"></path><path d="M143.38,408.85S144.5,421.43,147,425" style="fill:#BA68C8"></path><path d="M144,403.42s-3.66,11.53-1.92,15.91" style="fill:#BA68C8"></path><path d="M261.56,432.39s-2.5,9.18-6.93,12.81" style="fill:#BA68C8"></path><g style="opacity:0.5"><path d="M268.47,419.12s-8.27,17.51-12.76,21.68-9.09,6.16-11.38,8.61-13.3,8-19.55,8.71-7.71-2.2-11.26-1.36-26,.32-28.75-.74-3.07-3.09-5.51-3.93-5.7-.87-9.53-3.69-9.19-11.08-13.9-15.63-9-11.06-10.36-14.85-4.13-13.92-5.3-19.32,2.09-17.34,2.09-17.34l12.49-13.37,5.55,1.8c6.08,13.75,21.18,55.59,38.53,59.91C220,434.86,268.47,419.12,268.47,419.12Z"></path><path d="M216.48,454.76s-.57,3.2-10,5"></path><path d="M143.38,408.85S144.5,421.43,147,425"></path><path d="M144,403.42s-3.66,11.53-1.92,15.91"></path><path d="M261.56,432.39s-2.5,9.18-6.93,12.81"></path></g><path d="M268.47,419.12l-23.94-10.18s-4.33,3.24-11.56,2.26-32.27-11.07-36.59-14.72-14.53-9.23-16.22-12.16a25.32,25.32,0,0,1-2.42-7l-17.44-7.67s-8.06,6.24-10.88,12-3.77,8-3.46,14.41,4.14,17.58,9,23.43,15.73,17.73,18.89,20.1,10.74,7.28,14,8.58,15.51.78,20.62.49,14.95.89,21.93-1.35,17.28-6.44,21.62-10.82S268.47,419.12,268.47,419.12Z" style="fill:#fff"></path><path d="M268.47,419.12l-24-10,.16,0a16.71,16.71,0,0,1-9.57,2.52,21.69,21.69,0,0,1-4.94-.74c-1.61-.41-3.19-.9-4.77-1.41-6.3-2.07-12.47-4.48-18.54-7.14a85.85,85.85,0,0,1-8.92-4.41,16.61,16.61,0,0,1-2.07-1.44c-.63-.52-1.29-1-2-1.48-1.34-1-2.72-1.87-4.1-2.78a91.91,91.91,0,0,1-8.13-5.74,9.15,9.15,0,0,1-1.76-1.9,16,16,0,0,1-1.1-2.29,28.79,28.79,0,0,1-1.42-4.83l.23.29-17.46-7.64.44-.05a53.2,53.2,0,0,0-8.44,8.33,24.78,24.78,0,0,0-1.67,2.42c-.48.83-.92,1.73-1.34,2.63A30.37,30.37,0,0,0,147,388.9a21,21,0,0,0-.55,5.82,29.68,29.68,0,0,0,.69,5.86,53.21,53.21,0,0,0,3.75,11.24,40.22,40.22,0,0,0,2.84,5.2,45.06,45.06,0,0,0,3.68,4.66q3.91,4.53,8,8.92a117.81,117.81,0,0,0,8.41,8.46,105.86,105.86,0,0,0,10,6.6c.86.5,1.72,1,2.6,1.44a10.56,10.56,0,0,0,2.69,1.07,34,34,0,0,0,5.9.53c4,.1,8,0,12-.21s8,0,12,0A38.76,38.76,0,0,0,230.64,447a105.39,105.39,0,0,0,11.16-4.31,59.09,59.09,0,0,0,5.31-2.73,25.17,25.17,0,0,0,4.8-3.51Zm0,0-16.35,17.56a26.08,26.08,0,0,1-4.82,3.62c-1.72,1-3.5,2-5.31,2.82a100.19,100.19,0,0,1-11.18,4.41,39.55,39.55,0,0,1-11.93,1.54c-4,.06-8-.26-12,.05s-8,.35-12,.27a36.29,36.29,0,0,1-6-.52,11.6,11.6,0,0,1-2.87-1.13c-.9-.45-1.77-.94-2.64-1.45a105.09,105.09,0,0,1-10.07-6.61c-1.58-1.31-3-2.74-4.38-4.16s-2.78-2.88-4.15-4.35q-4.1-4.38-8.05-8.91a46,46,0,0,1-3.77-4.73,41,41,0,0,1-2.93-5.31,54.91,54.91,0,0,1-3.88-11.44,30,30,0,0,1-.69-6,22.31,22.31,0,0,1,.6-6.08,32.3,32.3,0,0,1,2.25-5.65c.43-.9.87-1.8,1.39-2.7a27.43,27.43,0,0,1,1.75-2.51,54.67,54.67,0,0,1,8.62-8.45l.2-.16.24.11L177.89,377l.19.08,0,.21a27.47,27.47,0,0,0,1.35,4.68,15.17,15.17,0,0,0,1,2.19,8.53,8.53,0,0,0,1.59,1.72,91.28,91.28,0,0,0,8.05,5.73c1.37.91,2.75,1.84,4.1,2.81s2.59,2.1,4,2.91a86.51,86.51,0,0,0,8.83,4.41c6,2.67,12.19,5.11,18.45,7.2,1.57.51,3.14,1,4.74,1.41a20.3,20.3,0,0,0,4.83.78,16.31,16.31,0,0,0,9.36-2.33l.08-.05.08,0Z" style="fill:#ebebeb"></path><path d="M171,399.49c1.75,4.3,2.55,10.47,6.15,16s15.13,11.43,21.7,14.13,19,2.29,26.56-.25,18.77-19.86,19.12-20.4c-.26.18-4.55,3.2-11.55,2.24-7.22-1-32.27-11.06-36.58-14.72s-14.54-9.22-16.23-12.15a25.69,25.69,0,0,1-2.42-6.95s-10.38,7.09-11.65,12.29S169.24,395.2,171,399.49Z" style="fill:#ebebeb"></path><path d="M257.64,420.18A101.19,101.19,0,0,0,241,412.67a104.53,104.53,0,0,0,16.62,7.51Z" style="fill:#ebebeb"></path><path d="M250.35,421.07a47.58,47.58,0,0,0-5.61-3.33,46.85,46.85,0,0,0-6-2.59,46.82,46.82,0,0,0,5.62,3.32A48.22,48.22,0,0,0,250.35,421.07Z" style="fill:#ebebeb"></path><path d="M237.3,436.29A70.42,70.42,0,0,0,227.37,425,60.9,60.9,0,0,0,232,430.9,62.28,62.28,0,0,0,237.3,436.29Z" style="fill:#ebebeb"></path><path d="M195.67,427.27a44.3,44.3,0,0,0-3.11,5.69,43.68,43.68,0,0,0-2.38,6,52.2,52.2,0,0,0,5.49-11.72Z" style="fill:#ebebeb"></path><path d="M193.25,425.92a24.09,24.09,0,0,0-3,3.66,23.59,23.59,0,0,0-2.31,4.11,27.57,27.57,0,0,0,5.29-7.77Z" style="fill:#ebebeb"></path><path d="M179.69,416.5a68.34,68.34,0,0,0-6.74,4.05,67,67,0,0,0-6.29,4.72,65.29,65.29,0,0,0,6.74-4A67.09,67.09,0,0,0,179.69,416.5Z" style="fill:#ebebeb"></path><path d="M172,418.3a27.52,27.52,0,0,0-4.82,1.6,27.89,27.89,0,0,0-4.5,2.34,27.52,27.52,0,0,0,4.82-1.6A28.28,28.28,0,0,0,172,418.3Z" style="fill:#ebebeb"></path><path d="M231.15,434.24a32.48,32.48,0,0,0,3.51,4.29,32.84,32.84,0,0,0,4.09,3.72,33,33,0,0,0-3.51-4.29A34.4,34.4,0,0,0,231.15,434.24Z" style="fill:#ebebeb"></path><path d="M206.73,434.85a14.89,14.89,0,0,0,0,6.94,13.23,13.23,0,0,0,.41-3.47A13.74,13.74,0,0,0,206.73,434.85Z" style="fill:#ebebeb"></path><path d="M204.16,438.09a25.57,25.57,0,0,0-1.08,9,25.57,25.57,0,0,0,1.08-9Z" style="fill:#ebebeb"></path><path d="M162.12,407.63a29.07,29.07,0,0,0-5.12.4,28.21,28.21,0,0,0-5,1.2,29.07,29.07,0,0,0,5.12-.4A28.21,28.21,0,0,0,162.12,407.63Z" style="fill:#ebebeb"></path><path d="M171.19,396.71a98,98,0,0,0-17.79.85,85.61,85.61,0,0,0,8.92,0A88.35,88.35,0,0,0,171.19,396.71Z" style="fill:#ebebeb"></path><path d="M161,394.66a43.48,43.48,0,0,0-11.76-.6,42.43,42.43,0,0,0,11.76.6Z" style="fill:#ebebeb"></path><path d="M162.4,387.22a7.66,7.66,0,0,0-2.09-1.65,8,8,0,0,0-2.49-.95,7.47,7.47,0,0,0,2.09,1.65A8,8,0,0,0,162.4,387.22Z" style="fill:#ebebeb"></path><path d="M174.62,380.66a46.35,46.35,0,0,0-5.75-2.92,44.38,44.38,0,0,0-6.08-2.17,45.78,45.78,0,0,0,5.76,2.92A45.11,45.11,0,0,0,174.62,380.66Z" style="fill:#ebebeb"></path></g><g id="freepik--pina-colada--inject-97"><rect x="219.97" y="24.71" width="5.4" height="169.37" transform="translate(457.79 188.61) rotate(172.45)" style="fill:#c7c7c7"></rect><path d="M145.75,74.89l4.5-1.92c1.41-.62,2.85-1.29,4.29-1.86s2.92-1.19,4.42-1.69a85.47,85.47,0,0,1,9.15-2.66,71.45,71.45,0,0,1,9.31-1.47,46,46,0,0,1,9,0l.33,0,.41-.19a80.9,80.9,0,0,1,12.61-4.71c2.17-.69,4.41-1.08,6.59-1.61,2.22-.35,4.42-.78,6.63-1a93.92,93.92,0,0,1,13.15-.68,75.8,75.8,0,0,1,12.49,1.2l.59.12.6-.22c1.78-.53,3.52-1.18,5.32-1.69s3.57-1,5.42-1.28A60.15,60.15,0,0,1,261.48,54a56.86,56.86,0,0,1,10.61.68,46,46,0,0,1,5,1l2.37.7c.39.12.75.27,1.15.41a2.06,2.06,0,0,1,.54.2l.29.12c.13.1,0,0,.21-.06s.22.09.35.12-.21-.35-.28-.32l-.26-.14-.5-.28c-.38-.18-.71-.35-1.07-.5-.74-.33-1.51-.62-2.31-.9-1-.34-2-.66-3.14-.93L263.81,49.7l-17.09-7.44c-5.59-2.44-11.13-4.89-16.67-7.19s-11.22-4.59-16.9-6.82l-1.31-.49-1.2.84L195.25,39.43c-5.13,3.63-10.24,7.22-15.36,10.87-10.15,7.21-20.1,14.55-30.25,21.83a.6.6,0,0,0-.13.09Z" style="fill:#BA68C8"></path><path d="M187.18,65.15c4-6.29,8.15-12.51,12.23-18.77s8.23-12.45,12.43-18.62c-4,6.29-8.15,12.51-12.22,18.76S191.38,59,187.18,65.15Z" style="opacity:0.2"></path><path d="M239.24,58.47c-4.65-5-9.19-10.19-13.79-15.28S216.33,33,211.84,27.76c4.65,5,9.19,10.18,13.79,15.27S234.75,53.28,239.24,58.47Z" style="opacity:0.2"></path><rect x="224.45" y="64.36" width="9.22" height="234.9" transform="translate(506.9 273.06) rotate(159.74)" style="fill:#455a64"></rect><rect x="142.9" y="24.11" width="9.22" height="75.98" transform="translate(234.46 -72.26) rotate(100.08)" style="fill:#455a64"></rect><polygon points="184.06 73.23 192.71 70.03 191.98 68.63 184.06 73.23" style="fill:#37474f"></polygon><polygon points="184.06 73.23 191.98 68.63 191.07 67.33 184.06 73.23" style="fill:#455a64"></polygon><polygon points="184.06 73.23 191.07 67.33 189.94 66.21 184.06 73.23" style="fill:#37474f"></polygon><polygon points="184.06 73.23 189.94 66.21 188.64 65.29 184.06 73.23" style="fill:#455a64"></polygon><polygon points="184.06 73.23 188.64 65.29 187.19 64.62 184.06 73.23" style="fill:#37474f"></polygon><polygon points="184.06 73.23 187.19 64.62 185.65 64.21 184.06 73.23" style="fill:#455a64"></polygon><path d="M276,135.64q.74-10,1.84-19.86c.7-6.6,1.53-13.19,2.38-19.78s1.79-13.15,2.81-19.71,2.13-13.11,3.38-19.64q-.72,10-1.83,19.86c-.71,6.61-1.53,13.2-2.38,19.78s-1.8,13.16-2.83,19.72S277.28,129.12,276,135.64Z" style="fill:#BA68C8"></path><path d="M284.36,94.22c-3.94.46-7.88-.19-10.51-3.61-3.61-2.46-4.54-6.27-4.35-10.22.34-7.34,7.59-15.39,13.16-13.39,4.65,1.68,4.88,4.69,7,6.65s5.11,2,7.11,6.49C299.15,85.55,291.64,93.35,284.36,94.22Z" style="fill:#BA68C8"></path><path d="M284.36,94.22c-3.94.46-7.88-.19-10.51-3.61-3.61-2.46-4.54-6.27-4.35-10.22.34-7.34,7.59-15.39,13.16-13.39,4.65,1.68,4.88,4.69,7,6.65s5.11,2,7.11,6.49C299.15,85.55,291.64,93.35,284.36,94.22Z" style="opacity:0.1"></path><path d="M287.91,74.61c6.7-15.86,33.12-29.69,41.59-31.74,2.13-.52,1.41,2.91.21,2.78s-19.93,7.65-29.78,16.06c-9.21,7.86-11.23,13.64-11.23,13.64Z" style="fill:#BA68C8"></path><path d="M287.91,74.61c6.7-15.86,33.12-29.69,41.59-31.74,2.13-.52,1.41,2.91.21,2.78s-19.93,7.65-29.78,16.06c-9.21,7.86-11.23,13.64-11.23,13.64Z" style="opacity:0.4"></path><path d="M285.93,72.45A16.32,16.32,0,0,0,288.34,75c.43.38.88.74,1.34,1.11s.95.72,1.42,1.15a6.1,6.1,0,0,1-3.41-1.52,6.17,6.17,0,0,1-1.22-1.47A3.68,3.68,0,0,1,285.93,72.45Z" style="opacity:0.1"></path><path d="M282.45,69.2a6.86,6.86,0,0,0-3.3.88,12.55,12.55,0,0,0-2.74,2,17.39,17.39,0,0,0-3.94,5.66,10.3,10.3,0,0,1,3.25-6.39,9.61,9.61,0,0,1,3.11-2A5.2,5.2,0,0,1,282.45,69.2Z" style="fill:#fff"></path><path d="M286.44,56.66c-.44,6.05-1,12.1-1.65,18.11-.05.58-.12,1.16-.18,1.74h0a3.53,3.53,0,0,1-1.38-1.2c.08-.56.17-1.14.27-1.71C284.36,68,285.36,62.29,286.44,56.66Z" style="fill:#BA68C8"></path><path d="M320.2,459.06H179.79s5.38-7,13-8.71c15-3.38,37-7.54,45.56-13.81,1.2-.88,3.64-11.9,3.64-11.9v-7.35a13.57,13.57,0,0,1,0-21.89V377.62a63.08,63.08,0,0,0,16,0V395.4a13.57,13.57,0,0,1,0,21.89l.1,7.4s2.5,11,3.73,11.85c8.81,6.43,31.92,10.81,46.76,14.12C315.47,452.18,320.2,459.06,320.2,459.06Z" style="fill:#dbdbdb;opacity:0.5"></path><path d="M190.89,454.55q14.78-.58,29.55-.78c9.85-.16,19.7-.2,29.55-.22s19.7.06,29.56.22,19.7.39,29.55.78q-14.78.58-29.55.78c-9.86.16-19.71.2-29.56.22s-19.7-.06-29.55-.22S200.74,454.94,190.89,454.55Z" style="fill:#fff"></path><path d="M244,397.37a33.84,33.84,0,0,0-2.06,4.55,15.56,15.56,0,0,0-.93,4.59,14.65,14.65,0,0,0,.12,2.29,13.18,13.18,0,0,0,.61,2.25,14.74,14.74,0,0,0,1,2.2c.36.74.87,1.4,1.27,2.2a13.78,13.78,0,0,1-2.06-1.61,9.94,9.94,0,0,1-1.61-2.13,9,9,0,0,1-1.31-5.27,11.23,11.23,0,0,1,1.51-5.17A11.53,11.53,0,0,1,244,397.37Z" style="fill:#fff"></path><path d="M244.59,379.05a22.77,22.77,0,0,1,2.72-.32c.87-.06,1.73-.08,2.59-.08s1.71,0,2.58.06a18.17,18.17,0,0,1,2.73.34,8.89,8.89,0,0,1-5.31,1.59,10.29,10.29,0,0,1-2.76-.35A6.88,6.88,0,0,1,244.59,379.05Z" style="fill:#fff"></path><path d="M250,378.12c28.55,0,80.17-21.43,74.37-81.47S306,179.35,306.74,149.53c.36-13.75,2.15-26.33,5.91-34.82,1-2.16,4.83-3.12,5.57-4.87,2.65-6.26,1.9-9.74,1.9-9.74s-30.33-7-70.13-7a379.88,379.88,0,0,0-70.11,7s-.75,3.48,1.9,9.74c.84,2,4.86,3.25,6,5.76,3.7,8.4,5.18,20.65,5.52,33.92.78,29.83-11.83,87.09-17.63,147.13S221.45,378.12,250,378.12Z" style="fill:#dbdbdb;opacity:0.5"></path><path d="M299.26,106c3-.88,5.95-1.51,8.95-2.11s6-1.12,9.08-1.42a59.87,59.87,0,0,1-8.89,2.4A60.71,60.71,0,0,1,299.26,106Z" style="fill:#fff"></path><path d="M283,108.14a32.5,32.5,0,0,1,5.87-1.25,31.52,31.52,0,0,1,6-.26A36.1,36.1,0,0,1,283,108.14Z" style="fill:#fff"></path><path d="M182.7,102.42c7.54,1.51,15.15,2.59,22.75,3.55,3.81.47,7.62.9,11.43,1.25l5.73.52,5.73.41c1.91.17,3.83.23,5.74.35s3.83.22,5.74.26l5.75.22,5.75.09c7.67.15,15.35,0,23.05-.13-1.91.23-3.83.44-5.74.62s-3.83.42-5.76.53c-3.84.23-7.69.52-11.54.55-7.71.25-15.42,0-23.12-.5s-15.37-1.39-23-2.63A168,168,0,0,1,182.7,102.42Z" style="fill:#fff"></path><path d="M250,366.22c25.24,0,70.86-19,65.73-72S298,185.89,298,159.52c0-11.41,3.2-34.89,3.2-34.89-55.51,7.83-101.4,0-101.4,0,.12,2,3.14,20.52,3.14,34.89,0,26.37-13.55,81.61-18.68,134.66S224.76,366.22,250,366.22Z" style="fill:#BA68C8"></path><g style="opacity:0.5"><path d="M250,366.22c25.24,0,70.86-19,65.73-72S298,185.89,298,159.52c0-11.41,3.2-34.89,3.2-34.89-55.51,7.83-101.4,0-101.4,0,.12,2,3.14,20.52,3.14,34.89,0,26.37-13.55,81.61-18.68,134.66S224.76,366.22,250,366.22Z" style="fill:#fff"></path></g><path d="M211.65,176.45c.23,2.07.39,4.15.59,6.24s.22,4.18.3,6.28c.19,4.19,0,8.37,0,12.57-.36,8.36-1.06,16.71-2,25-1.91,16.56-4.64,32.91-6.7,49.14l-.72,6.08c-.27,2-.37,4-.58,6.06l-.29,3-.17,3-.16,3-.09,1.51v1.49c0,2-.07,4,0,6s.23,3.91.33,5.88A56.52,56.52,0,0,0,204.31,323c4.58,14.74,16.08,27.33,30.6,35.42a50.94,50.94,0,0,1-11.78-4.56,58.57,58.57,0,0,1-10.67-7.13,55.09,55.09,0,0,1-15.53-21,56.88,56.88,0,0,1-3.62-12.85c-.26-2.16-.53-4.33-.76-6.51s-.2-4.31-.3-6.47a187.69,187.69,0,0,1,1.59-25.42c2.13-16.68,5.55-33,8.88-49.14,1.72-8.1,3.33-16.18,4.91-24.29S210.48,184.74,211.65,176.45Z" style="fill:#fff;opacity:0.4"></path><path d="M211.09,291.58c-1.22-2.81-1.35-6-1.46-9s.11-6.1.28-9.13c.46-6.06,1.13-12.08,1.9-18.08,1.49-12,3.27-23.9,4.75-35.82q1.13-8.94,2-17.89c.59-6,1-11.94,1.41-17.92a240.82,240.82,0,0,0-.46-36,116.3,116.3,0,0,1,3.35,17.89c.36,3,.55,6.06.76,9.1s.23,6.08.25,9.12a273.82,273.82,0,0,1-2.39,36.34c-1.51,12-3.59,24-5.87,35.81-1.1,5.93-2.3,11.84-3.31,17.76-.52,2.95-1,5.92-1.33,8.9-.1.74-.16,1.48-.21,2.23l-.09,1.12v1.12l0,1.12.07,1.12A14.23,14.23,0,0,0,211.09,291.58Z" style="fill:#fff;opacity:0.4"></path><path d="M288.88,107.45,310.45,57.1a66.68,66.68,0,0,1,6.79,3.56c1.4.81,3.72.79,5.39,1.9,1.88,1.25,3.13,3.66,5.22,5.29,2.67,2.08,5.67,2.94,8.42,5.66,1.79,1.76,3.35,5.2,5.06,7.24,2.51,3,6.22,5.31,8.36,8.9,1.92,3.22,1.23,6.84,2.66,10.56.84,2.2,4.34,5.23,5,7.61.88,3.38-1,7.67-.64,11.42.22,2.43,2.16,4.29,2.12,6.87,0,1.87-1.12,3.77-1.31,5.71l-49.66,2.12s1.78-14.55,5.35-20.17c.83-1.31,3.77-2.1,4.6-3.25s2.81-6.72,2.3-10.42l-3.81,2.54S297.32,106.63,288.88,107.45Z" style="fill:#BA68C8"></path><path d="M301.17,102.42c1.11-3,2.33-5.91,3.56-8.83s2.51-5.82,3.81-8.72,2.63-5.76,4-8.62L314.64,72c.72-1.41,1.42-2.84,2.18-4.23-.55,1.49-1.16,3-1.74,4.43l-1.83,4.39c-1.22,2.93-2.51,5.82-3.8,8.72s-2.63,5.76-4,8.62S302.66,99.61,301.17,102.42Z" style="opacity:0.1"></path><path d="M313.75,100.21a109.1,109.1,0,0,1,5.5-9.73,108.09,108.09,0,0,1,6.34-9.2A110.43,110.43,0,0,1,320.1,91,110.57,110.57,0,0,1,313.75,100.21Z" style="opacity:0.1"></path><path d="M323.84,99.26a91.77,91.77,0,0,1,7.71-6.64,89.9,89.9,0,0,1,8.32-5.84,91.39,91.39,0,0,1-7.71,6.63A91.36,91.36,0,0,1,323.84,99.26Z" style="opacity:0.1"></path><path d="M319.67,111.31c2.38-1.12,4.79-2.13,7.22-3.13s4.86-2,7.3-2.89,4.91-1.83,7.39-2.67l3.73-1.25c1.25-.39,2.49-.81,3.76-1.16-1.19.57-2.39,1.07-3.59,1.62l-3.63,1.51c-2.41,1-4.86,2-7.3,2.89s-4.91,1.82-7.39,2.66S322.19,110.58,319.67,111.31Z" style="opacity:0.1"></path><path d="M315.55,124c3.12-.46,6.25-.81,9.38-1.15s6.26-.61,9.4-.88,6.28-.49,9.42-.65l4.72-.25c1.57,0,3.14-.12,4.72-.14-1.56.24-3.12.42-4.68.63l-4.7.52c-3.13.35-6.26.62-9.4.88s-6.28.49-9.42.65S318.7,124,315.55,124Z" style="opacity:0.1"></path><path d="M333.3,120.51a55.17,55.17,0,0,1,14.59-2.22,55.17,55.17,0,0,1-14.59,2.22Z" style="opacity:0.1"></path><path d="M313,82.44a19.12,19.12,0,0,1,3.86-7.77A19.29,19.29,0,0,1,313,82.44Z" style="opacity:0.1"></path><path d="M323.84,107.66a12.28,12.28,0,0,1,6.43-2.46,10.64,10.64,0,0,1-3,1.7A10.88,10.88,0,0,1,323.84,107.66Z" style="opacity:0.1"></path><path d="M298.91,103.48a11.35,11.35,0,0,1,.79-3.45,10.83,10.83,0,0,1,1.72-3.09,12.55,12.55,0,0,1-2.51,6.54Z" style="opacity:0.1"></path><path d="M342.51,105.07a5.76,5.76,0,0,1,4.44-1.48,5.15,5.15,0,0,1-2.06,1.22A5.22,5.22,0,0,1,342.51,105.07Z" style="opacity:0.1"></path><path d="M327,78.82a5.33,5.33,0,0,1,1-2.18,5.25,5.25,0,0,1,1.81-1.57,5.12,5.12,0,0,1-1,2.17A5.22,5.22,0,0,1,327,78.82Z" style="opacity:0.1"></path><path d="M313.49,126.41a5.2,5.2,0,0,1,2.32-.6,5.08,5.08,0,0,1,2.36.4,5.2,5.2,0,0,1-2.32.6A5.35,5.35,0,0,1,313.49,126.41Z" style="opacity:0.1"></path><path d="M347.89,119.5a5.73,5.73,0,0,1,4.68-.2,5.73,5.73,0,0,1-4.68.2Z" style="opacity:0.1"></path><path d="M329.93,92.22a33.29,33.29,0,0,1,4.3-4.42,33.87,33.87,0,0,1,4.95-3.66,33.29,33.29,0,0,1-4.3,4.42A33.87,33.87,0,0,1,329.93,92.22Z" style="opacity:0.1"></path><g style="opacity:0.5"><path d="M308.23,81.28a38.42,38.42,0,0,1,2.31-6.23,38,38,0,0,1,3.21-5.82,39.34,39.34,0,0,1-2.3,6.23A39.4,39.4,0,0,1,308.23,81.28Z" style="fill:#fff"></path><path d="M314.89,95.52a15.64,15.64,0,0,1,3.94-6.84,14.39,14.39,0,0,1-1.54,3.67A14,14,0,0,1,314.89,95.52Z" style="fill:#fff"></path><path d="M332.4,104.6a35.75,35.75,0,0,1,11.06-4.39,31.28,31.28,0,0,1-5.34,2.66A32.59,32.59,0,0,1,332.4,104.6Z" style="fill:#fff"></path><path d="M334.55,131.3A110.41,110.41,0,0,1,355.62,130a112.49,112.49,0,0,1-21.07,1.27Z" style="fill:#fff"></path><path d="M322.1,121.57a14,14,0,0,1,3.83-.82,13.64,13.64,0,0,1,3.92.18,15.31,15.31,0,0,1-7.75.64Z" style="fill:#fff"></path><path d="M305.19,73.67c.7-2.41,1.54-4.75,2.46-7.06s1.91-4.59,3-6.84l.16-.33.31.12c.75.27,1.49.57,2.23.87s1.48.62,2.21,1c-.8-.14-1.57-.34-2.35-.51s-1.56-.39-2.33-.6l.47-.22c-.86,2.34-1.81,4.63-2.82,6.91S306.42,71.49,305.19,73.67Z" style="fill:#fff"></path><path d="M303.49,77.58a71.06,71.06,0,0,1-3,8.49,71,71,0,0,1-3.9,8.11,71.06,71.06,0,0,1,3-8.49A73.6,73.6,0,0,1,303.49,77.58Z" style="fill:#fff"></path><path d="M349.8,93a19.19,19.19,0,0,1,.71,3.94,27.32,27.32,0,0,0,.66,3.83,9.07,9.07,0,0,0,1.8,3.3,31.68,31.68,0,0,0,2.65,2.94,13.35,13.35,0,0,1-3.22-2.44,10.68,10.68,0,0,1-1.3-1.6,6.2,6.2,0,0,1-.88-1.92,15.23,15.23,0,0,1-.5-4C349.68,95.67,349.84,94.35,349.8,93Z" style="fill:#fff"></path><path d="M322.61,64.74a24.59,24.59,0,0,1,2.25,2.86,16.71,16.71,0,0,0,2.3,2.69,7.73,7.73,0,0,0,3,1.54,19.26,19.26,0,0,0,3.44.7h.11l.06,0a6.22,6.22,0,0,1,1.85,1.66,19,19,0,0,1,1.3,2c.79,1.33,1.45,2.71,2.24,4a44.47,44.47,0,0,1-2.8-3.67,22.22,22.22,0,0,0-1.4-1.77,5.4,5.4,0,0,0-1.6-1.34l.17,0a16.91,16.91,0,0,1-3.67-.72,11.89,11.89,0,0,1-1.75-.71,6.5,6.5,0,0,1-1.57-1.14,13.68,13.68,0,0,1-2.17-3C323.78,66.85,323.29,65.74,322.61,64.74Z" style="fill:#fff"></path></g></g><g id="freepik--Floor--inject-97"><polygon points="51.69 459.06 101.26 458.82 150.84 458.73 250 458.56 349.16 458.73 398.74 458.82 448.31 459.06 398.74 459.31 349.16 459.39 250 459.56 150.84 459.39 101.26 459.3 51.69 459.06" style="fill:#263238"></polygon></g><g id="freepik--Flowers--inject-97"><path d="M326.91,441.07s10.61-19.35,33.09-13.93,34.45,19.29,34.45,19.29-21.47,16.9-43.14,12.09S326.91,441.07,326.91,441.07Z" style="fill:#37474f"></path><path d="M378.28,443.28c-15.74-5.83-32.74-6.06-49.23-2.89-1.24.24-1.13,2.23.13,2,16.12-3.1,34.5-2.12,51.7,2.18C382.11,444.86,379.48,443.73,378.28,443.28Z" style="fill:#455a64"></path><path d="M284.17,421.5s5.21-16.24-9.79-26-29.13-9-29.13-9,1.94,21,16.17,30.62S284.17,421.5,284.17,421.5Z" style="fill:#37474f"></path><path d="M254.69,393.66c11.64,5.73,20.81,15.14,27.8,26.07.53.82-.64,1.82-1.18,1-6.84-10.69-17.15-20.47-28.72-27.83C251.77,392.35,253.81,393.23,254.69,393.66Z" style="fill:#455a64"></path><path d="M341.65,426.25s.42-17.05,17.78-21.3,30.49,1,30.49,1-8.75,19.22-25.34,23.6S341.65,426.25,341.65,426.25Z" style="fill:#37474f"></path><path d="M378.64,409.66c-12.88,1.57-24.63,7.44-34.83,15.47-.77.6,0,1.93.79,1.32,10-7.85,22.94-13.69,36.28-16.84C381.83,409.38,379.62,409.54,378.64,409.66Z" style="fill:#455a64"></path><path d="M330.67,450.5c-1.94,6.25-3.48,7.63-7.67,8.1s-5.57,6-12.87.4a25.31,25.31,0,0,1-5.07-5.74c.35,2.25.08,4.25-1.18,5.68-5.93,6.75-8.28,3.13-13.79,5s-12.41.4-15-5.88-1.52-1.67-3.27-4-3.92-7.55-2.19-11.8c1-2.37,4.42-6.25,8.45-9.08-.4.11-.82.22-1.24.35-8.49,2.51-16.37,1-19.87-3.58s-8.42-6.27-8.06-12.64,2.1-6,4-8.42,2.52-5,6.28-6.39,10.48,1.26,16.45,6.42a63.79,63.79,0,0,1,7.08,7.39,45.33,45.33,0,0,0-2.43-4.34c-6.51-10.24-7.89-8.59-8.83-15.07s2.17-13.2,2.17-13.2.36-1.29,2.79.63a3.93,3.93,0,0,1,2-3.75c2.26-1.21,6.19-3.56,8.45-2.46s7.14.4,11.31,4,8.3,6.09,5.2,17.54c-1.16,4.28-2.14,7.57-3,10.32.73-1.12,1.45-2.17,2.16-3.1,5.62-7.44,6.33-12.15,12.78-13.5s3.37-1.8,5.73-1.4,5,1.4,5.3,2.88-1.18,4-1.26,4.18c.1-.12,2.32-2.8,4.27-.8s3.46,3.95,5.33,5.81.92,2.44,1.25,5.14,3,6,0,9.29-3.81,5.07-14.75,5.8a48.51,48.51,0,0,0-9,1.68c6.41,0,12.76,1.36,16.22,5.6C337,442.24,332.61,444.25,330.67,450.5Z" style="fill:#BA68C8"></path><path d="M293.18,428.55c-.47.12-.72.2-.72.2a5.54,5.54,0,0,0-1.27.47,2.51,2.51,0,0,0-.88.68,1.33,1.33,0,0,0-.23.48,6.68,6.68,0,0,0,1.14.05.57.57,0,0,0,.12.18,1.73,1.73,0,0,0,.84.39,2.88,2.88,0,0,1-.37-.75A3.8,3.8,0,0,0,293.18,428.55Z" style="opacity:0.1"></path><path d="M290.08,430.38c-.12.61.3,1.42,1.88,2.43,3.47,2.22,7.94,13,13.1,20.45-1.31-8.36-11.2-20.29-11.2-20.29a11.49,11.49,0,0,1-1.68-2,1.73,1.73,0,0,1-.84-.39.57.57,0,0,1-.12-.18A6.68,6.68,0,0,1,290.08,430.38Z" style="opacity:0.1"></path><path d="M278.1,433.16c6.93-1.82,10.78-.9,11.72-2.8l-.58,0a1.57,1.57,0,0,1-1.26-.65h-.13C284.88,429.32,281.31,430.91,278.1,433.16Z" style="opacity:0.1"></path><path d="M290,429.88c-.51,0-1.16-.08-2-.19a1.57,1.57,0,0,0,1.26.65l.58,0h0a2,2,0,0,0,.11-.26Z" style="opacity:0.1"></path><path d="M282.7,416.29c3.22,6.53,3.82,11.66,5.28,13.4.85.11,1.5.16,2,.19C290.58,427.15,286.94,421.4,282.7,416.29Z" style="opacity:0.1"></path><path d="M312.06,425.94a78.11,78.11,0,0,0-18.88,2.61,3.8,3.8,0,0,1-1.37,1.7,2.88,2.88,0,0,0,.37.75C295.24,431.65,303.75,428.16,312.06,425.94Z" style="opacity:0.1"></path><path d="M300.3,410c-4.25,6.56-8.58,15.7-9.11,19.26a5.54,5.54,0,0,1,1.27-.47s.25-.08.72-.2a74.74,74.74,0,0,0,3-7.27C297.57,417.61,298.81,414.54,300.3,410Z" style="opacity:0.1"></path><path d="M293.18,428.55c-.47.12-.72.2-.72.2a5.54,5.54,0,0,0-1.27.47,3.69,3.69,0,0,0-.05.71,1.41,1.41,0,0,0,.08.5.57.57,0,0,0,.12.18,1.73,1.73,0,0,0,.84.39,2.88,2.88,0,0,1-.37-.75A3.8,3.8,0,0,0,293.18,428.55Z" style="opacity:0.1"></path><path d="M291.07,430.89a4.6,4.6,0,0,1,.44-2.2q.12-.26.27-.51a3.74,3.74,0,0,1,.32-.49,7.3,7.3,0,0,1,.79-.88,3.85,3.85,0,0,1,2-1.29,3.22,3.22,0,0,1,2.38.5l0,.25a4.13,4.13,0,0,1-.81.91,4.19,4.19,0,0,1-.77.62,2.2,2.2,0,0,1-.8.35,3.12,3.12,0,0,0-.87.25,5,5,0,0,0-.78.44,5,5,0,0,0-.73.55,5.5,5.5,0,0,0-1.2,1.53Z" style="fill:#BA68C8"></path><path d="M291.07,430.89a4.6,4.6,0,0,1,.44-2.2q.12-.26.27-.51a3.74,3.74,0,0,1,.32-.49,7.3,7.3,0,0,1,.79-.88,3.85,3.85,0,0,1,2-1.29,3.22,3.22,0,0,1,2.38.5l0,.25a4.13,4.13,0,0,1-.81.91,4.19,4.19,0,0,1-.77.62,2.2,2.2,0,0,1-.8.35,3.12,3.12,0,0,0-.87.25,5,5,0,0,0-.78.44,5,5,0,0,0-.73.55,5.5,5.5,0,0,0-1.2,1.53Z" style="fill:#fff;opacity:0.9"></path><path d="M296.94,424.8c-.45,0-1.28.47-.42,1.74s1.52.69,1.77-.12A1.34,1.34,0,0,0,296.94,424.8Z" style="fill:#BA68C8"></path><path d="M296.94,424.8c-.45,0-1.28.47-.42,1.74s1.52.69,1.77-.12A1.34,1.34,0,0,0,296.94,424.8Z" style="opacity:0.2"></path><path d="M290.73,431a6.73,6.73,0,0,1-.51-2.68,8.54,8.54,0,0,1,.48-2.77,5.25,5.25,0,0,1,1.37-2.51,4.84,4.84,0,0,1,1.22-.77,4.05,4.05,0,0,1,1.5-.3l.15.19a6.09,6.09,0,0,1-.47,1.37,9.24,9.24,0,0,1-.55,1.09,4.67,4.67,0,0,1-.69.9,5.78,5.78,0,0,0-.77.87,9.19,9.19,0,0,0-.57,1,6.74,6.74,0,0,0-.47,1.1,8.18,8.18,0,0,0-.46,2.43Z" style="fill:#BA68C8"></path><path d="M290.73,431a6.73,6.73,0,0,1-.51-2.68,8.54,8.54,0,0,1,.48-2.77,5.25,5.25,0,0,1,1.37-2.51,4.84,4.84,0,0,1,1.22-.77,4.05,4.05,0,0,1,1.5-.3l.15.19a6.09,6.09,0,0,1-.47,1.37,9.24,9.24,0,0,1-.55,1.09,4.67,4.67,0,0,1-.69.9,5.78,5.78,0,0,0-.77.87,9.19,9.19,0,0,0-.57,1,6.74,6.74,0,0,0-.47,1.1,8.18,8.18,0,0,0-.46,2.43Z" style="fill:#fff;opacity:0.9"></path><path d="M294,422.19c-.18.41-.05,1.36,1.45,1.05s1.22-1.15.56-1.68A1.34,1.34,0,0,0,294,422.19Z" style="fill:#BA68C8"></path><path d="M294,422.19c-.18.41-.05,1.36,1.45,1.05s1.22-1.15.56-1.68A1.34,1.34,0,0,0,294,422.19Z" style="opacity:0.2"></path><path d="M289.93,429.8a7,7,0,0,1-.71-2.32,8,8,0,0,1,.09-2.49,4.75,4.75,0,0,1,.84-2.39,3.78,3.78,0,0,1,2.21-1.35l.15.14a5.39,5.39,0,0,1-.22,1.26,9.28,9.28,0,0,1-.32,1.05,2.77,2.77,0,0,1-.22.46,3.78,3.78,0,0,1-.26.43,5.53,5.53,0,0,0-.56.89l-.2.49-.17.5a6.89,6.89,0,0,0-.27,1,7.45,7.45,0,0,0-.16,2.22Z" style="fill:#fff"></path><path d="M291.56,420.05c-.43.13-1.07.84.14,1.79a1.25,1.25,0,0,0,2.09-1.06C293.78,420,292.45,419.79,291.56,420.05Z" style="fill:#BA68C8"></path><path d="M291.56,420.05c-.43.13-1.07.84.14,1.79a1.25,1.25,0,0,0,2.09-1.06C293.78,420,292.45,419.79,291.56,420.05Z" style="opacity:0.1"></path><path d="M290,430.38a7.53,7.53,0,0,1,.39-2.19,7.25,7.25,0,0,1,1.07-2c.22-.32.47-.63.72-.95a2.75,2.75,0,0,1,1-.7,3.25,3.25,0,0,1,2.42-.1l.05.19a6,6,0,0,1-.75.9c-.24.26-.48.47-.7.69-.45.43-1.07.61-1.56,1a8.82,8.82,0,0,0-1.36,1.43,9.3,9.3,0,0,0-1.06,1.78Z" style="fill:#fff"></path><path d="M296.83,424.66c.12-.43-.14-1.35-1.59-.82s-1,1.32-.29,1.75A1.34,1.34,0,0,0,296.83,424.66Z" style="fill:#BA68C8"></path><path d="M296.83,424.66c.12-.43-.14-1.35-1.59-.82s-1,1.32-.29,1.75A1.34,1.34,0,0,0,296.83,424.66Z" style="opacity:0.1"></path><path d="M371.37,419.94c1.59,3.9,1.39,5.22-.5,7.16s-.32,5.26-6.25,5.45a16.31,16.31,0,0,1-4.86-.78,4.34,4.34,0,0,1,1.74,3.31c-.2,5.77-2.85,4.93-4.82,8.12s-6,5.26-9.85,3.19-1.44-.22-3.27-.67-5-2.15-5.91-5c-.49-1.58-.35-4.92.5-8-.16.22-.32.44-.48.68-3.2,4.71-7.73,7.18-11.34,6.33s-6.75.32-9.17-3-1.41-3.84-1.47-5.8-.78-3.51.51-5.74,5.73-3.66,10.81-3.53a42.56,42.56,0,0,1,6.54.79,29,29,0,0,0-3-1.17c-7.42-2.43-7.44-1-10.55-3.89a17.37,17.37,0,0,1-4.31-7.45s-.35-.79,1.65-.83a2.52,2.52,0,0,1-.55-2.67c.63-1.52,1.62-4.3,3.2-4.68s3.72-2.71,7.26-2.62,6.61-.36,9.75,6.6c1.17,2.61,2,4.64,2.7,6.37-.1-.85-.16-1.67-.2-2.42-.24-6-1.8-8.63.85-11.93s.94-2.28,2.28-3,3-1.33,3.81-.73,1.06,2.49,1.08,2.59c0-.1,0-2.34,1.8-2.14s3.33.55,5,.71,1.46.85,2.72,2.05,4,1.75,3.79,4.63.17,4.08-5,8.91a30.83,30.83,0,0,0-3.81,4.52c3.2-2.59,6.9-4.52,10.35-3.83C371.14,413.25,369.79,416,371.37,419.94Z" style="fill:#BA68C8"></path><path d="M371.37,419.94c1.59,3.9,1.39,5.22-.5,7.16s-.32,5.26-6.25,5.45a16.31,16.31,0,0,1-4.86-.78,4.34,4.34,0,0,1,1.74,3.31c-.2,5.77-2.85,4.93-4.82,8.12s-6,5.26-9.85,3.19-1.44-.22-3.27-.67-5-2.15-5.91-5c-.49-1.58-.35-4.92.5-8-.16.22-.32.44-.48.68-3.2,4.71-7.73,7.18-11.34,6.33s-6.75.32-9.17-3-1.41-3.84-1.47-5.8-.78-3.51.51-5.74,5.73-3.66,10.81-3.53a42.56,42.56,0,0,1,6.54.79,29,29,0,0,0-3-1.17c-7.42-2.43-7.44-1-10.55-3.89a17.37,17.37,0,0,1-4.31-7.45s-.35-.79,1.65-.83a2.52,2.52,0,0,1-.55-2.67c.63-1.52,1.62-4.3,3.2-4.68s3.72-2.71,7.26-2.62,6.61-.36,9.75,6.6c1.17,2.61,2,4.64,2.7,6.37-.1-.85-.16-1.67-.2-2.42-.24-6-1.8-8.63.85-11.93s.94-2.28,2.28-3,3-1.33,3.81-.73,1.06,2.49,1.08,2.59c0-.1,0-2.34,1.8-2.14s3.33.55,5,.71,1.46.85,2.72,2.05,4,1.75,3.79,4.63.17,4.08-5,8.91a30.83,30.83,0,0,0-3.81,4.52c3.2-2.59,6.9-4.52,10.35-3.83C371.14,413.25,369.79,416,371.37,419.94Z" style="fill:#fff;opacity:0.5"></path><path d="M343.76,424.33c-.18.25-.27.39-.27.39a4.13,4.13,0,0,0-.44.75,1.62,1.62,0,0,0-.16.7.73.73,0,0,0,.08.33,3.93,3.93,0,0,0,.59-.44.33.33,0,0,0,.13,0,1,1,0,0,0,.58-.14,1.78,1.78,0,0,1-.49-.22A2.44,2.44,0,0,0,343.76,424.33Z" style="opacity:0.1"></path><path d="M343,426.5c.19.36.73.59,1.93.44,2.63-.31,9.24,3.21,14.86,4.83-4.06-3.62-13.85-5.52-13.85-5.52a8.42,8.42,0,0,1-1.64-.29,1,1,0,0,1-.58.14.33.33,0,0,1-.13,0A3.93,3.93,0,0,1,343,426.5Z" style="opacity:0.1"></path><path d="M338.15,432.78c2.7-3.74,5-4.85,4.69-6.18a3,3,0,0,0-.3.23,1,1,0,0,1-.89.19l-.08.05C340,428.1,338.83,430.35,338.15,432.78Z" style="opacity:0.1"></path><path d="M342.72,426.3l-1.07.72a1,1,0,0,0,.89-.19,3,3,0,0,1,.3-.23h0a1.15,1.15,0,0,0-.06-.17A.52.52,0,0,0,342.72,426.3Z" style="opacity:0.1"></path><path d="M333.55,422.51c4.26,1.93,6.66,4.24,8.1,4.51l1.07-.72C341.9,424.69,337.74,423.32,333.55,422.51Z" style="opacity:0.1"></path><path d="M352.09,415.32a50.23,50.23,0,0,0-8.33,9,2.44,2.44,0,0,1,0,1.41,1.78,1.78,0,0,0,.49.22C346.06,425,348.87,419.82,352.09,415.32Z" style="opacity:0.1"></path><path d="M339.72,412.17c.56,5,2.14,11.31,3.33,13.3a4.13,4.13,0,0,1,.44-.75s.09-.14.27-.39a45.19,45.19,0,0,0-1.47-4.84C341.48,417.09,340.85,415.06,339.72,412.17Z" style="opacity:0.1"></path><path d="M343.76,424.33c-.18.25-.27.39-.27.39a4.13,4.13,0,0,0-.44.75,3.52,3.52,0,0,0,.26.38.9.9,0,0,0,.25.21.33.33,0,0,0,.13,0,1,1,0,0,0,.58-.14,1.78,1.78,0,0,1-.49-.22A2.44,2.44,0,0,0,343.76,424.33Z" style="opacity:0.1"></path><path d="M343.67,426.35a3,3,0,0,1-.68-1.27c0-.12-.05-.24-.07-.36a2.45,2.45,0,0,1,0-.38,3.9,3.9,0,0,1,0-.76,2.42,2.42,0,0,1,.45-1.44,2,2,0,0,1,1.39-.72l.12.1a2.82,2.82,0,0,1,0,.79,3.37,3.37,0,0,1-.13.62,1.49,1.49,0,0,1-.26.5,2.56,2.56,0,0,0-.33.48,3.18,3.18,0,0,0-.21.54,2.29,2.29,0,0,0-.08.28,2.93,2.93,0,0,0-.05.29,3.29,3.29,0,0,0,0,1.25Z" style="fill:#BA68C8"></path><path d="M343.67,426.35a3,3,0,0,1-.68-1.27c0-.12-.05-.24-.07-.36a2.45,2.45,0,0,1,0-.38,3.9,3.9,0,0,1,0-.76,2.42,2.42,0,0,1,.45-1.44,2,2,0,0,1,1.39-.72l.12.1a2.82,2.82,0,0,1,0,.79,3.37,3.37,0,0,1-.13.62,1.49,1.49,0,0,1-.26.5,2.56,2.56,0,0,0-.33.48,3.18,3.18,0,0,0-.21.54,2.29,2.29,0,0,0-.08.28,2.93,2.93,0,0,0-.05.29,3.29,3.29,0,0,0,0,1.25Z" style="fill:#fff;opacity:0.9"></path><path d="M344.11,420.93c-.23.18-.45.75.5,1s1-.28.83-.79A.86.86,0,0,0,344.11,420.93Z" style="fill:#BA68C8"></path><path d="M344.11,420.93c-.23.18-.45.75.5,1s1-.28.83-.79A.86.86,0,0,0,344.11,420.93Z" style="opacity:0.2"></path><path d="M343.53,426.53a4.55,4.55,0,0,1-1.35-1.13,5.33,5.33,0,0,1-.89-1.58A3.42,3.42,0,0,1,341,422a3,3,0,0,1,.29-.88,2.63,2.63,0,0,1,.62-.76l.15,0a3.81,3.81,0,0,1,.33.87c.09.27.12.52.18.77a3,3,0,0,1,0,.73,3.77,3.77,0,0,0,0,.75,5,5,0,0,0,.13.74,3.83,3.83,0,0,0,.22.73,5,5,0,0,0,.76,1.4Z" style="fill:#BA68C8"></path><path d="M343.53,426.53a4.55,4.55,0,0,1-1.35-1.13,5.33,5.33,0,0,1-.89-1.58A3.42,3.42,0,0,1,341,422a3,3,0,0,1,.29-.88,2.63,2.63,0,0,1,.62-.76l.15,0a3.81,3.81,0,0,1,.33.87c.09.27.12.52.18.77a3,3,0,0,1,0,.73,3.77,3.77,0,0,0,0,.75,5,5,0,0,0,.13.74,3.83,3.83,0,0,0,.22.73,5,5,0,0,0,.76,1.4Z" style="fill:#fff;opacity:0.9"></path><path d="M341.57,420.83c.08.28.53.7,1.15-.06s.14-1.07-.41-1.07A.86.86,0,0,0,341.57,420.83Z" style="fill:#BA68C8"></path><path d="M341.57,420.83c.08.28.53.7,1.15-.06s.14-1.07-.41-1.07A.86.86,0,0,0,341.57,420.83Z" style="opacity:0.2"></path><path d="M342.66,426.27a4.27,4.27,0,0,1-1.3-.86,4.87,4.87,0,0,1-1-1.27,3,3,0,0,1-.56-1.53,2.4,2.4,0,0,1,.55-1.58h.13a3.61,3.61,0,0,1,.41.72,6.77,6.77,0,0,1,.26.65,1.16,1.16,0,0,1,.08.32,1.64,1.64,0,0,1,.05.32,3,3,0,0,0,.09.67l.09.32.12.32a5.11,5.11,0,0,0,.29.63,5.2,5.2,0,0,0,.83,1.17Z" style="fill:#fff"></path><path d="M339.49,420.76c-.16.24-.19.85.8.83a.81.81,0,0,0,.61-1.38C340.57,419.82,339.82,420.27,339.49,420.76Z" style="fill:#BA68C8"></path><path d="M339.49,420.76c-.16.24-.19.85.8.83a.81.81,0,0,0,.61-1.38C340.57,419.82,339.82,420.27,339.49,420.76Z" style="opacity:0.1"></path><path d="M342.92,426.55a4.78,4.78,0,0,1-.7-1.25,4.68,4.68,0,0,1-.3-1.45c0-.25,0-.51,0-.77a1.71,1.71,0,0,1,.21-.74,2,2,0,0,1,1.16-1l.1.07a3.06,3.06,0,0,1,0,.75,5.86,5.86,0,0,1-.06.63c0,.4-.28.74-.36,1.15a5.9,5.9,0,0,0-.08,1.27,6.09,6.09,0,0,0,.19,1.32Z" style="fill:#fff"></path><path d="M344,420.9c-.12-.26-.63-.61-1.13.24s0,1.08.56,1A.86.86,0,0,0,344,420.9Z" style="fill:#BA68C8"></path><path d="M344,420.9c-.12-.26-.63-.61-1.13.24s0,1.08.56,1A.86.86,0,0,0,344,420.9Z" style="opacity:0.1"></path></g></svg>