<svg xmlns="http://www.w3.org/2000/svg" viewBox="0 0 500 500"><g id="freepik--Mountains--inject-24"><g id="freepik--mountains--inject-24"><polygon id="freepik--back-mountains--inject-24" points="476.46 316.1 461.51 227.95 433.57 188.77 417.61 207.21 368.47 138.79 329.8 174.94 329.8 192.57 142.2 192.57 142.2 192.44 106.28 161.12 64.06 215.71 54.39 207.92 36.26 233.8 23.4 316.1 120.27 316.38 385.58 316.38 476.46 316.1" style="fill:#f5f5f5"></polygon><g id="freepik--Mountain--inject-24"><polygon points="464.7 293.41 407.75 180.18 397.31 200.04 353.74 161.12 310.72 75.9 295.81 93.42 249.98 29.76 202.69 98.14 188.03 87.45 138.67 165.5 127.03 165.5 98.29 213.96 87.74 206.3 34.79 293.78 34.79 316.38 465.17 316.38 464.7 293.41" style="fill:#90CAF9"></polygon><polygon points="464.7 293.41 407.75 180.18 397.31 200.04 353.74 161.12 310.72 75.9 295.81 93.42 249.98 29.76 202.69 98.14 188.03 87.45 138.67 165.5 127.03 165.5 98.29 213.96 87.74 206.3 34.79 293.78 34.79 316.38 465.17 316.38 464.7 293.41" style="fill:#fff;opacity:0.9"></polygon><polygon points="202.69 98.14 202.66 114.78 188.03 87.45 202.69 98.14" style="fill:#90CAF9;opacity:0.1"></polygon><polygon points="255.7 86.31 266.72 109.61 250.43 121.21 255.7 86.31" style="fill:#90CAF9;opacity:0.1"></polygon><polygon points="464.7 293.41 407.75 180.18 397.31 200.04 353.74 161.12 310.72 75.9 312.1 98.42 295.81 93.42 249.98 29.76 251.62 43.71 257.31 52.98 251.3 63.52 261.75 82.46 272.83 84.74 280.75 99.99 271.56 107.89 275.37 115.08 244.01 134.89 221.53 169.79 253.44 156.23 269.03 185.03 231.98 229.05 255.1 265.94 174.03 293.41 174.32 293.41 174.32 316.38 465.17 316.38 465.17 293.41 464.7 293.41" style="fill:#90CAF9;opacity:0.1"></polygon></g></g></g><g id="freepik--Plants--inject-24"><g id="freepik--Grass--inject-24"><path d="M42.69,241.35c4.09,20.93-1.3,47.55-1.3,47.55l4.51-2.6C49.07,256.93,42.69,241.35,42.69,241.35Z" style="fill:#90CAF9"></path><path d="M42.69,241.35c4.09,20.93-1.3,47.55-1.3,47.55l4.51-2.6C49.07,256.93,42.69,241.35,42.69,241.35Z" style="opacity:0.15"></path><path d="M43.72,287.35a1.85,1.85,0,0,0,0,.23l2.22-1.28c3.17-29.37-3.21-45-3.21-45C46.21,251.49,46,275.94,43.72,287.35Z" style="opacity:0.15"></path><path d="M41.39,288.9s-1.85-19-9-35.33-16.16-23.66-16.16-23.66,11,5,20,22.59a112.85,112.85,0,0,1,11,33Z" style="fill:#90CAF9"></path><path d="M44.49,287.11h0l2.81-1.62a112.85,112.85,0,0,0-11-33c-9-17.57-20-22.59-20-22.59C27,236.82,41.26,259.46,44.49,287.11Z" style="opacity:0.1"></path><path d="M41.39,288.9s-3.14-15.6-22.51-28.6c0,0,18.32,7.06,27,26Z" style="fill:#90CAF9"></path><path d="M43.72,287.35l.06.17,2.12-1.22c-8.7-18.94-27-26-27-26C27.88,265.5,38.85,274.35,43.72,287.35Z" style="opacity:0.1"></path></g><g id="freepik--grass--inject-24"><path d="M450.35,241.35c-4.09,20.93,1.3,47.55,1.3,47.55l-4.51-2.6C444,256.93,450.35,241.35,450.35,241.35Z" style="fill:#90CAF9"></path><path d="M450.35,241.35c-4.09,20.93,1.3,47.55,1.3,47.55l-4.51-2.6C444,256.93,450.35,241.35,450.35,241.35Z" style="opacity:0.15"></path><path d="M449.32,287.35a1.85,1.85,0,0,1,0,.23l-2.22-1.28c-3.17-29.37,3.21-45,3.21-45C446.83,251.49,447.05,275.94,449.32,287.35Z" style="opacity:0.15"></path><path d="M451.65,288.9s1.85-19,9-35.33,16.16-23.66,16.16-23.66-11,5-20,22.59a112.85,112.85,0,0,0-11.05,33Z" style="fill:#90CAF9"></path><path d="M448.54,287.11h0l-2.8-1.62a112.85,112.85,0,0,1,11.05-33c9-17.57,20-22.59,20-22.59C466.08,236.82,451.78,259.46,448.54,287.11Z" style="opacity:0.1"></path><path d="M451.65,288.9s3.14-15.6,22.51-28.6c0,0-18.32,7.06-27,26Z" style="fill:#90CAF9"></path><path d="M449.32,287.35l-.06.17-2.12-1.22c8.7-18.94,27-26,27-26C465.16,265.5,454.19,274.35,449.32,287.35Z" style="opacity:0.1"></path></g></g><g id="freepik--Floor--inject-24"><g id="freepik--ice-floor--inject-24"><ellipse cx="249.98" cy="342.96" rx="231.19" ry="133.47" style="fill:#90CAF9"></ellipse><ellipse cx="249.98" cy="342.96" rx="231.19" ry="133.47" style="fill:#fff;opacity:0.7000000000000001"></ellipse></g></g><g id="freepik--Shadows--inject-24"><path d="M390.24,368.17c-28.69-16.56-75.2-16.56-103.88,0-8.81,5.09-14.9,11.14-18.3,17.57a47.67,47.67,0,0,0-13.47,5,33.4,33.4,0,0,0-3.94,2.66,26.08,26.08,0,0,0-8.32-7.18,49.82,49.82,0,0,0-17.14-5.72c-3.41-6.36-9.47-12.36-18.2-17.4-28.69-16.57-75.2-16.57-103.88,0s-28.69,43.41,0,60c28.45,16.42,74.41,16.55,103.15.4,12.54,1.72,26.28-.23,36.07-5.87a32.48,32.48,0,0,0,3.93-2.67,26.13,26.13,0,0,0,8.33,7.19c8.81,5.08,20.82,7.16,32.28,6.28,28.73,16.27,74.85,16.18,103.37-.28C418.92,411.59,418.92,384.74,390.24,368.17Z" style="opacity:0.1"></path></g><g id="freepik--big-penguin-2--inject-24"><g id="freepik--Pinguin--inject-24"><g id="freepik--Paw--inject-24"><path d="M309.31,425.31c-.37-4.94,3.84-9.52,2.78-10.2-1.77-1.12-7.69.94-9.78,3a7.6,7.6,0,0,1,4.12-6.42c4.25-2.42,10.72-2.73,16.65-5.16,5.5-2.26,9.92-4.59,14.23-6.76,4.12-2.08,8.13-2.81,12.26-.45s3,6.17-.64,7.89a60.23,60.23,0,0,0-12,7.21c-4.27,3.38-5.52,6.89-9.77,9.31a45.47,45.47,0,0,0-6.85,4.7c-.56-4.59,1.95-7.15.85-8C319.47,419.11,312,422.53,309.31,425.31Z" style="fill:#37474f"></path><path d="M316.65,420.91c4.54-3.37,9-6.08,9.82-5.26s-4,4.21-5.41,7h0c.36-1.09.59-1.83.1-2.2-.72-.56-2.49-.25-4.5.5Z" style="fill:#263238"></path><path d="M307.6,415.33c1.75-1.82,10.27-4.75,10.66-3.93s-4.45,1.84-6.35,5.22h0c.35-.77.49-1.31.18-1.51-.84-.53-2.63-.34-4.5.22Z" style="fill:#263238"></path><path d="M332.94,402a7.46,7.46,0,0,0,3.52-4.13c.91-2.63.63-6.35.63-9h14.23c-.35,8.63,1.12,10.17.85,14.47Z" style="fill:#37474f"></path></g><g id="freepik--paw--inject-24"><path d="M275.13,399.24c-.37-4.93,3.84-9.52,2.79-10.19-1.77-1.13-7.69.94-9.79,3a7.62,7.62,0,0,1,4.13-6.42c4.25-2.43,10.71-2.73,16.64-5.16,5.5-2.26,9.92-4.59,14.23-6.77,4.13-2.07,8.13-2.8,12.26-.45s3,6.18-.64,7.9a60.52,60.52,0,0,0-12,7.21c-4.27,3.38-5.52,6.88-9.76,9.31a46.42,46.42,0,0,0-6.86,4.69c-.55-4.59,2-7.14.85-8C285.29,393.05,277.81,396.47,275.13,399.24Z" style="fill:#37474f"></path><path d="M282.48,394.84c4.54-3.36,9-6.07,9.82-5.25s-4.05,4.2-5.42,7h0c.35-1.09.59-1.83.09-2.21-.71-.55-2.49-.24-4.49.51Z" style="fill:#263238"></path><path d="M273.42,389.27c1.75-1.82,10.27-4.75,10.66-3.94s-4.45,1.85-6.34,5.23h0c.35-.78.49-1.31.19-1.51-.85-.54-2.64-.34-4.5.22Z" style="fill:#263238"></path><path d="M298.76,375.89a7.46,7.46,0,0,0,3.52-4.13c.91-2.63.63-6.36.63-9h14.23c-.35,8.63,1.12,10.17.85,14.47Z" style="fill:#37474f"></path></g><g id="freepik--Body--inject-24"><path d="M386.19,221.64c4.25,18.88,5.37,80.64,2.9,102.28s-5.15,35.33,3,41.63c7.47,5.74,15.32,4.81,15.62,7.33.44,3.77-10.13,10.89-24.31,10.59-21.59-.44-26.91-9.32-26.91-9.32Z" style="fill:#37474f"></path><path d="M345,145.42c-8.81-12.95-25.61-13.83-37.91-10.4-13.13,3.67-22.35,11.54-26,21.69s4.11,51.95,11.66,45.72c12.16-10.05,10.56-27,21.32-42.23C321.82,149.18,333.37,143.16,345,145.42Z" style="fill:#f5f5f5"></path><path d="M349.86,142.62c22.13,13.43,28.26,34.63,33.32,61.09s9.38,61.71,2.83,101.59c0,0-6-104.45-25.18-134.82s-44.23-24.26-50.19-16.13c-5.37,7.3-8,.33-3.07-7.42C311.93,140.13,327.74,129.19,349.86,142.62Z" style="fill:#37474f"></path><path d="M300.91,177.15c-6.11,33.53-17.81,47.18-21.45,86-5.07,54.11,6.21,81.67,10.54,91.42,5,11.22,9.57,15.83,18.33,16.85s16.55,5.23,19.54,9.89,5.43,10.18,14.48,10.89c13.26,1.05,21.31-8.58,27.69-27.14,7.07-20.55,11.31-34.45,13.39-80.31,1.92-42.46-3.15-77.33-13.58-107.21-5.22-14.94-17.29-35.46-36.85-34.91S303.5,162.94,300.91,177.15Z" style="fill:#f5f5f5"></path><path d="M356.52,154.92c5.64,6.64,6.4,30.44,0,42.84S345,221.64,344,231.77c0,0,19.12-32,21.28-41.5S365.55,166.33,356.52,154.92Z" style="fill:#90CAF9"></path><path d="M326,173.82c8.22.08-.81,10.39-7.66,15.79-11.06,8.71-17,15.26-25.18,29.16-10.8,18.29-12.45,34-12.5,34.32,4-27.65,12.34-41.87,18.07-65.66l1.33,4.24C307.38,178.11,317.78,173.74,326,173.82Z" style="fill:#e0e0e0"></path><path d="M321.61,324.64c20.6-11.82,25.2-61,23.93-69.65-.6-4.05,17.61,6.23,38.17,21.38-.06,2.76-.16,5.55-.28,8.38-2.08,45.86-6.32,59.76-13.39,80.31-6.38,18.56-14.43,28.19-27.69,27.14-9.05-.71-11.49-6.23-14.48-10.89s-10.79-8.87-19.54-9.89S295,365.79,290,354.57c-3.62-8.14-12.07-28.71-11.81-66.77l.57-.23C278.26,317.74,301,336.46,321.61,324.64Z" style="fill:#ebebeb"></path><path d="M371.42,228.1c-8.33,43-1.66,69.9,1.64,86.65,4.11,20.91,2.17,43.74-7.79,61.79,0,0,15.44-22.34,18.56-54s3.14-83.72-.22-101.46Z" style="fill:#37474f"></path><path d="M342.88,258.82c1.66-31.91,11.28-45.65,19-61.79A54.24,54.24,0,0,0,366.33,165a85.13,85.13,0,0,1,3.29,8c5.27,15.08,11.11,27.21,13.43,45.18a116,116,0,0,1-4.15,48.14c-.73,2.45-1.48,5-2.24,7.59-4.48,15.43-8.71,29.86-5.44,47.81,2.87,15.78-.66,25.7-8.44,15.3C351.7,322.17,341.1,293,342.88,258.82Z" style="opacity:0.2"></path><path d="M348.31,146.94c16.81,10.7,17.93,36.33,9.37,54.26-7.7,16.14-17.31,29.88-19,61.79-1.78,34.19,8.81,63.35,19.9,78.17,7.78,10.4,11.3.48,8.43-15.3-3.27-17.95,1-32.38,5.44-47.81s8.56-26.78,10.7-44.46S375.45,160.27,348.31,146.94Z" style="fill:#455a64"></path><path d="M319.66,367.4c5.2,2,6.46,8.73,10.35,17.31-.74-1.13-1.43-2.29-2.14-3.4-3-4.66-10.79-8.87-19.54-9.89a22.74,22.74,0,0,1-4.14-.87C309.22,371.82,314.48,365.43,319.66,367.4Z" style="opacity:0.2"></path></g><g id="freepik--Head--inject-24"><path d="M298.5,181.18c-2.85-3.5-5.08-3-8.64-2.31s-5.24-3.63-5.24-9.83c0-5.31,2.17-18,9.23-23.83a31.92,31.92,0,0,0-15.31,27.34C278.41,191.77,294.63,189,298.5,181.18Z" style="fill:#90CAF9"></path><path d="M300.06,191.67c1-3.13,8.14-12.42,12.4-13.38s5.35,1.94,1.55,5.37c-5.2,4.68-7.69,6.05-13.14,14.16-4,5.9-9.69,9.11-11.4,11.84Z" style="fill:#90CAF9"></path><path d="M300.06,191.67c1-3.13,8.14-12.42,12.4-13.38a5.47,5.47,0,0,1,2.35-.09c-3.15-.22-6.85,3-9.92,8.93S299.94,198,295.2,202c-.75.61-1.14.6-1.28.15Z" style="opacity:0.2"></path><path d="M349.86,142.62a46.23,46.23,0,0,0-40-10.21c-15.91,3.39-24.49,8.8-31.65,21.7s-9.36,20.7-12.05,27.22a40.68,40.68,0,0,0,0,29.88c4.78,11.83,5.67,13.91,6.27,23.9s2.08,16,5.66,17.93c0,0-1.49-14.66,3.28-27.25a81.46,81.46,0,0,1,14.91-25.12c4.48-5.37,4.18-10.82,3.58-16s-3.34-4.94-7.48-2-8.76,1.71-10.25-6.07,1.95-27.28,15.92-34C317.31,133.35,332.44,133.53,349.86,142.62Z" style="fill:#455a64"></path><path d="M278.06,253c-3.27-17.19-.9-32.32,2.93-38.52s5-4,3.82-1.64C281.55,219.24,275,228.48,278.06,253Z" style="fill:#90CAF9"></path><path d="M282.1,204.28a1.77,1.77,0,1,0,1.76-1.76A1.76,1.76,0,0,0,282.1,204.28Z" style="fill:#263238"></path></g></g></g><g id="freepik--big-penguin-1--inject-24"><g id="freepik--pinguin--inject-24"><g id="freepik--paw--inject-24"><path d="M177.6,419c.48-4.92-3.63-9.6-2.56-10.25,1.8-1.09,7.67,1.11,9.72,3.19a7.64,7.64,0,0,0-4-6.52c-4.2-2.51-10.66-3-16.53-5.53-5.44-2.37-9.81-4.8-14.08-7.07-4.07-2.17-8.06-3-12.24-.73s-3.1,6.11.46,7.91a60.41,60.41,0,0,1,11.85,7.47c4.19,3.48,5.36,7,9.56,9.53a46.23,46.23,0,0,1,6.74,4.85c.66-4.58-1.79-7.19-.67-8C167.58,412.53,175,416.12,177.6,419Z" style="fill:#37474f"></path><path d="M170.35,414.39c-4.46-3.46-8.85-6.27-9.7-5.47s4,4.29,5.27,7.08h0c-.33-1.1-.55-1.84,0-2.21.73-.54,2.5-.19,4.48.6Z" style="fill:#263238"></path><path d="M179.53,409c-1.7-1.86-10.16-5-10.57-4.17s4.41,1.94,6.23,5.36h0c-.33-.78-.46-1.32-.15-1.51.86-.52,2.64-.29,4.5.32Z" style="fill:#263238"></path><path d="M154.5,395.08a7.42,7.42,0,0,1-3.43-4.21c-.85-2.65-.49-6.37-.43-9l-14.23-.31c.16,8.63-1.34,10.14-1.17,14.45Z" style="fill:#37474f"></path></g><g id="freepik--paw--inject-24"><path d="M212.35,393.66c.48-4.93-3.63-9.61-2.56-10.26,1.8-1.08,7.67,1.11,9.72,3.19a7.62,7.62,0,0,0-4-6.51c-4.2-2.52-10.66-3-16.53-5.53-5.44-2.38-9.81-4.81-14.08-7.08-4.07-2.17-8.06-3-12.24-.72s-3.1,6.11.46,7.91A60.7,60.7,0,0,1,185,382.13c4.19,3.47,5.36,7,9.55,9.52a46,46,0,0,1,6.75,4.85c.66-4.57-1.79-7.18-.67-8C202.33,387.24,209.73,390.82,212.35,393.66Z" style="fill:#37474f"></path><path d="M205.1,389.1c-4.46-3.47-8.85-6.28-9.7-5.48s3.95,4.3,5.26,7.08h0c-.33-1.09-.55-1.84,0-2.21.73-.53,2.5-.18,4.48.61Z" style="fill:#263238"></path><path d="M214.28,383.72c-1.7-1.85-10.17-5-10.57-4.17s4.41,1.94,6.23,5.37h0c-.33-.79-.46-1.33-.15-1.52.86-.51,2.64-.28,4.5.32Z" style="fill:#263238"></path><path d="M189.25,369.78a7.39,7.39,0,0,1-3.43-4.21c-.85-2.65-.49-6.36-.43-9l-14.23-.32c.16,8.64-1.35,10.15-1.17,14.45Z" style="fill:#37474f"></path></g><g id="freepik--body--inject-24"><path d="M105.27,213.62c-4.67,18.79-7.16,80.51-5.18,102.2s4.37,35.44-4,41.54c-7.6,5.58-15.42,4.47-15.78,7-.53,3.75,9.89,11.11,24.07,11.13,21.59,0,27.11-8.72,27.11-8.72Z" style="fill:#37474f"></path><path d="M143.52,127.44c9.95-7.09,21.17-12.6,36.71-8.29s23.51,10.78,26.94,21-.3,29.74-10,28.41-12.65-10.19-23.06-25.65C166.58,131.72,155.17,125.44,143.52,127.44Z" style="fill:#f5f5f5"></path><path d="M143.52,127.44c-19.24,19.85-29.2,42-34.84,68.33s-10.75,61.48-5.09,101.5c0,0,8.36-104.29,28.17-134.23s44.76-23.26,50.54-15c5.2,7.42,6.24,1.35,3.24-7.34S163.87,109.9,143.52,127.44Z" style="fill:#37474f"></path><path d="M191.52,171c5.36,33.67,16.75,47.57,19.53,86.46,3.86,54.21-8,81.51-12.57,91.16-5.24,11.11-9.93,15.61-18.7,16.44S163.11,370,160,374.55s-5.66,10.06-14.71,10.57c-13.29.76-21.12-9.05-27.09-27.75-6.6-20.7-10.53-34.7-11.59-80.59-1-42.49,4.86-77.24,16-106.88,5.55-14.82,18.08-35.07,37.62-34.08S189.25,156.78,191.52,171Z" style="fill:#f5f5f5"></path><path d="M136.42,147.59c-4.57,8.95-7,25.76.34,40.68s13.7,31,13.62,50.91c0,0-21.54-27.66-24.67-47.56S126.71,155,136.42,147.59Z" style="fill:#90CAF9"></path><path d="M170.63,158.3c-8,2.95-5.84,14,3.19,24.81s16.62,15.64,24.52,29.72c10.39,18.52,11.69,34.32,11.74,34.59-3.38-27.74-11.41-42.14-16.61-66l-5.11-4.48Z" style="fill:#e0e0e0"></path><path d="M167.54,318c-20.33-12.28-23.83-61.57-22.37-70.17.68-4-17.75,5.84-38.64,20.53q0,4.14.1,8.38c1.06,45.89,5,59.89,11.59,80.59,6,18.7,13.8,28.51,27.09,27.75,9.05-.51,11.62-6,14.71-10.57s11-8.63,19.76-9.45,13.46-5.33,18.7-16.44c3.79-8.05,12.7-28.43,13.29-66.48l-.56-.25C211,312.1,187.87,330.31,167.54,318Z" style="fill:#ebebeb"></path><path d="M119.89,220.41c7.37,43.17.11,69.92-3.56,86.59-4.58,20.82-3.14,43.69,6.41,62,0,0-14.94-22.68-17.35-54.42s-1.28-83.77,2.48-101.44Z" style="fill:#37474f"></path><path d="M147.74,251.76c-1-31.94-10.26-45.89-17.6-62.19a54.19,54.19,0,0,1-3.75-32.18,82.56,82.56,0,0,0-3.47,8c-5.6,15-11.71,27-14.43,44.87a116,116,0,0,0,3.07,48.22c.68,2.46,1.37,5,2.08,7.64,4.13,15.52,8,30,4.37,47.91-3.22,15.72.08,25.71,8.09,15.49C137.51,314.9,148.76,286,147.74,251.76Z" style="opacity:0.2"></path><path d="M144.8,139.78c-17,10.33-18.73,35.93-10.58,54.05,7.35,16.3,16.65,30.26,17.6,62.2,1,34.21-10.22,63.13-21.63,77.7-8,10.23-11.32.23-8.1-15.48,3.67-17.88-.24-32.4-4.37-47.92s-8-27-9.71-44.69S119.56,148.34,144.8,139.78Z" style="fill:#455a64"></path><path d="M168.54,360.83c-5.24,1.86-6.65,8.58-10.74,17.08.78-1.12,1.49-2.26,2.22-3.36,3.09-4.59,11-8.63,19.76-9.45a22.6,22.6,0,0,0,4.16-.77C178.88,365.48,173.76,359,168.54,360.83Z" style="opacity:0.2"></path></g><g id="freepik--head--inject-24"><path d="M187.35,161.5c2.92-3.43,5.15-2.85,8.69-2.11s6.08-3.54,6.21-9.74c.12-5.31-.45-15.47-6.28-21.83,0,0,11.82,6.29,11.53,25.5S191,169.42,187.35,161.5Z" style="fill:#90CAF9"></path><path d="M185.56,172c-.95-3.15-7.86-12.59-12.1-13.64s-5.4,1.81-1.67,5.33c5.09,4.8,7.55,6.21,12.82,14.44,3.84,6,9.49,9.33,11.13,12.1Z" style="fill:#90CAF9"></path><path d="M185.56,172c-.95-3.15-7.87-12.59-12.1-13.64a5.42,5.42,0,0,0-2.34-.15c3.15-.14,6.78,3.17,9.71,9.15s4.7,11,9.36,15c.73.64,1.13.63,1.28.19Z" style="opacity:0.2"></path><path d="M143.52,127.44c8-8,18-12.67,33.45-12.4,14.46.25,26.63,6.81,33.5,19.87s6.7,20.88,9.24,27.46a40.74,40.74,0,0,1-.67,29.88c-5,11.72-6,13.78-6.79,23.76s-2.45,16-6.07,17.79c0,0,1.82-14.62-2.67-27.32A81.49,81.49,0,0,0,189.16,181c-4.35-5.46-3.93-10.91-3.22-16.07s3.45-4.86,7.53-1.82,8.71,1.89,10.38-5.85-.22-26.63-12.35-32.67S156,116.6,143.52,127.44Z" style="fill:#455a64"></path><path d="M206.18,233.8c3.66-17.11,1.63-32.29-2.06-38.57s-4.94-4.09-3.79-1.72C203.45,199.94,209.83,209.32,206.18,233.8Z" style="fill:#90CAF9"></path><path d="M203.23,185a1.76,1.76,0,1,1-1.72-1.8A1.76,1.76,0,0,1,203.23,185Z" style="fill:#263238"></path></g></g></g><g id="freepik--baby-penguin-1--inject-24"><g id="freepik--baby-pinguin--inject-24"><g id="freepik--paw--inject-24"><path d="M217.15,414.3c.2-2.61-2-5-1.47-5.39.93-.59,4.06.5,5.17,1.57a4,4,0,0,0-2.18-3.39c-2.25-1.28-5.66-1.44-8.79-2.73-2.91-1.19-5.24-2.42-7.52-3.57s-4.3-1.48-6.48-.24-1.56,3.27.34,4.17a32.48,32.48,0,0,1,6.35,3.81c2.25,1.79,2.91,3.64,5.15,4.92a24.52,24.52,0,0,1,3.63,2.48c.29-2.42-1-3.77-.46-4.22C211.78,411,215.74,412.83,217.15,414.3Z" style="fill:#455a64"></path><path d="M213.27,412c-2.4-1.78-4.75-3.21-5.19-2.78s2.14,2.22,2.87,3.67h0c-.19-.58-.32-1-.06-1.17s1.32-.13,2.38.27Z" style="fill:#37474f"></path><path d="M218.06,409c-.93-1-5.43-2.51-5.64-2.08s2.35,1,3.35,2.76h0c-.19-.41-.26-.69-.1-.8a3.43,3.43,0,0,1,2.38.12Z" style="fill:#37474f"></path><path d="M204.67,402a3.89,3.89,0,0,1-1.86-2.18,16,16,0,0,1-.33-4.77H195c.18,4.56-.59,5.38-.45,7.65Z" style="fill:#37474f"></path></g><g id="freepik--paw--inject-24"><path d="M243.59,408.39c.2-2.6-2-5-1.47-5.38.94-.6,4.06.49,5.17,1.57a4,4,0,0,0-2.18-3.4c-2.24-1.28-5.66-1.44-8.79-2.72-2.9-1.19-5.24-2.42-7.52-3.57s-4.29-1.49-6.47-.24-1.57,3.26.33,4.17a31.53,31.53,0,0,1,6.35,3.81c2.25,1.78,2.91,3.63,5.16,4.91a24.24,24.24,0,0,1,3.62,2.49c.29-2.43-1-3.78-.45-4.22C238.23,405.12,242.18,406.93,243.59,408.39Z" style="fill:#455a64"></path><path d="M239.71,406.07c-2.4-1.78-4.75-3.21-5.19-2.78s2.14,2.22,2.87,3.68h0c-.19-.57-.31-1,0-1.16s1.31-.13,2.37.26Z" style="fill:#37474f"></path><path d="M244.5,403.12c-.93-1-5.43-2.5-5.63-2.07s2.35,1,3.35,2.76h0c-.18-.41-.26-.7-.1-.8a3.43,3.43,0,0,1,2.38.12Z" style="fill:#37474f"></path><path d="M231.11,396.06a4,4,0,0,1-1.86-2.19,15.89,15.89,0,0,1-.33-4.76H221.4c.19,4.56-.59,5.37-.45,7.64Z" style="fill:#37474f"></path></g><path d="M183,384.41c-2.23,3.4-8.27,3.46-11.74,6.38s-1.77,4.44,4.44,6.51a39.4,39.4,0,0,1,10.89,5.83S188.3,392.18,183,384.41Z" style="fill:#37474f"></path><path d="M236.22,329.09c3.82,6.35,7.63,10.16,13.07,12.16s14.85,5.57,17.21,13.19.56,15.15-2.86,16.76c-2.91,1.37-2.2-3.92-4.8-8.38-2.16-3.71-5-5.06-10.62-6.5s-12.06-3-13.57-6.15S236.22,329.09,236.22,329.09Z" style="fill:#e0e0e0"></path><path d="M236.22,329.09c3.82,6.35,7.63,10.16,13.07,12.16s14.85,5.57,17.21,13.19.56,15.15-2.86,16.76c-2.91,1.37-2.2-3.92-4.8-8.38-2.16-3.71-5-5.06-10.62-6.5s-12.06-3-13.57-6.15S236.22,329.09,236.22,329.09Z" style="opacity:0.2"></path><path d="M237.09,398.75c-4.15-1.8-8.3,1.63-7.39,4.47-1.76,2.39-9.48,3.92-16.17,2.26-3.86-.79-9.47.51-9.83,4.08-4.74.15-14.85-2.8-20.26-9.53s-8.7-15.22-6.9-29.88c1.44-11.77,6.38-25.45,10-32.6,4.22-8.35,7.71-16.81,9.6-20.33s6-15.86,17.36-16.61S231,311.92,234.62,324c5.18,6.74,8.86,10.15,11.15,26.25,1.9,13.4,1.52,33.77-6.92,49C238.68,399.25,237.76,399,237.09,398.75Z" style="fill:#e0e0e0"></path><path d="M219.51,389.44c-9.2,1.27-11.84,10.73-27.86,4.72-15.35-5.77-13.55-35.13-9.6-45.94a106.12,106.12,0,0,0-5.51,21.93c-1.8,14.66,1.49,23.14,6.9,29.88s15.52,9.68,20.26,9.53c.36-3.57,6-4.87,9.83-4.08,6.69,1.66,14.41.13,16.17-2.26-.91-2.84,3.24-6.27,7.39-4.47.67.25,1.59.5,1.76.54A58,58,0,0,0,244,386C237.44,396.62,228.7,388.17,219.51,389.44Z" style="opacity:0.05"></path><path d="M208.86,335.22c-2.6,3.73-3.23,7.63-3.74,14.88-.41,5.93-3.34,20.08-9.25,26s-8.43,3-7.24-3,1.68-8.33,1.43-14.43.5-10.72,1.24-12.65c0,0-2,3.32-2.23,13.39-.14,7.3-2.53,13.84-2.45,17.41s1,5.65,5.58,4.16,9.54-7.39,11.6-15c1.55-5.72,2.28-8.62,2.59-17.67C206.74,338.32,208.86,335.22,208.86,335.22Z" style="opacity:0.1"></path><path d="M234.62,324s1.17-8.35-1.07-12.86a12.67,12.67,0,0,0,5.3-4.78s3.11-1.11,4.51-1.75c0,0,5.44.13,6.41,0s.33-2.17-4.21-6.72c-2.92-3.89-3.6-9.49-11.17-13.6s-20.66-2.31-26.8,4.52c-6.86,7.63-7.4,13.3-9,20.63-8.38,9.41-11.45,27-11.45,27Z" style="fill:#e0e0e0"></path><path d="M217,319.52s11.47-.5,17.64,4.48c0,0,.12-.86.21-2.18C226.72,317.77,217,319.52,217,319.52Z" style="opacity:0.05"></path><path d="M227.23,285.79c-8.74-.33-9.91,9.32-9,13.11s-2.54,5.21.59,5.91,11,3.15,14.73,6.33a12.53,12.53,0,0,0,5.41-4.76h0s2.62-5.14,2.16-10.19S236,286.12,227.23,285.79Z" style="fill:#fafafa"></path><path d="M245.66,297.84c-2.92-3.9-3.67-9.52-11.25-13.63a22.38,22.38,0,0,0-13.8-1.95c-3.75.92-6.35,4.61-6.69,8.59a47.59,47.59,0,0,1-.51,5.45,10.42,10.42,0,0,1-.73,2.62c-.39.81-.92,1.54-1.27,2.37a3.18,3.18,0,0,0-.12,2.61,2.8,2.8,0,0,0,1.61,1.33,7.09,7.09,0,0,0,2.1.33c1.52.05,3,0,4.54.09a16.49,16.49,0,0,1,4.32,1.08,4.43,4.43,0,0,0,2.1.32c-.38-.18-1.69-.67-2.14-.88a9,9,0,0,1-3.24-2.16,7,7,0,0,1-1.33-5.36,20.77,20.77,0,0,1,.51-2.94,8.6,8.6,0,0,1,2.85-5.19,12,12,0,0,1,5.15-2.24c5.19-1.08,8.94,1.87,9.93,5.45s-1.79,6.25-3.58,7.73,2,4.42,4.85,4.92c0,0,3-1,4.43-1.62C242.86,300.14,245.57,300.66,245.66,297.84Z" style="fill:#455a64"></path><path d="M250,304.76c-1,.1-6.6,0-6.6,0-.17-1-2.31-1.55-2.22-2.31.19-1.48,1.91-1.85,3-2.63a4.66,4.66,0,0,0,1.52-2C250.21,302.38,251,304.65,250,304.76Z" style="fill:#263238"></path><path d="M232.29,296.19a1.67,1.67,0,1,1-1.67-1.67A1.67,1.67,0,0,1,232.29,296.19Z" style="fill:#263238"></path></g></g><g id="freepik--baby-penguin-2--inject-24"><g id="freepik--baby-pinguin--inject-24"><path d="M293.45,288.31c3.65,2.72,6.07,9.46,4.64,16.12a18.33,18.33,0,0,1-3.63,7.59l-13.65-2.25Z" style="fill:#e0e0e0"></path><g id="freepik--paw--inject-24"><path d="M279.47,419.48c-.37-2.59,1.68-5.15,1.1-5.47-1-.53-4,.76-5.05,1.91a4,4,0,0,1,2-3.53c2.15-1.43,5.55-1.82,8.59-3.31,2.81-1.39,5.06-2.77,7.26-4.07s4.18-1.77,6.44-.67,1.78,3.15-.05,4.18a31.75,31.75,0,0,0-6.08,4.23c-2.13,1.93-2.66,3.82-4.81,5.25a24.24,24.24,0,0,0-3.45,2.72c-.46-2.4.78-3.83.16-4.24C284.6,415.85,280.78,417.92,279.47,419.48Z" style="fill:#455a64"></path><path d="M283.18,416.9c2.28-1.93,4.53-3.52,5-3.12s-2,2.36-2.61,3.86h0c.15-.58.25-1,0-1.16s-1.32,0-2.35.42Z" style="fill:#37474f"></path><path d="M278.21,414.28c.86-1,5.25-2.86,5.48-2.45s-2.28,1.13-3.16,3h0c.15-.42.21-.71,0-.8a3.42,3.42,0,0,0-2.36.27Z" style="fill:#37474f"></path><path d="M291.09,406.33a3.91,3.91,0,0,0,1.71-2.3,15.64,15.64,0,0,0,0-4.78l7.5-.5c.12,4.56,1,5.32,1,7.59Z" style="fill:#37474f"></path></g><g id="freepik--paw--inject-24"><path d="M255.11,413c-.45-2.57,1.54-5.2.95-5.5-1-.5-4,.88-5,2.05a4,4,0,0,1,1.85-3.58c2.12-1.49,5.5-2,8.5-3.55,2.78-1.46,5-2.9,7.15-4.26s4.13-1.88,6.42-.85,1.87,3.1.06,4.19a32.16,32.16,0,0,0-6,4.38c-2.08,2-2.56,3.9-4.67,5.39a24.2,24.2,0,0,0-3.37,2.81c-.52-2.39.67-3.85,0-4.25C260.14,409.24,256.37,411.41,255.11,413Z" style="fill:#455a64"></path><path d="M258.75,410.32c2.22-2,4.43-3.64,4.9-3.25s-1.92,2.41-2.5,3.93h0c.13-.59.22-1-.06-1.17s-1.32,0-2.34.49Z" style="fill:#37474f"></path><path d="M253.71,407.84c.83-1,5.17-3,5.41-2.6s-2.25,1.19-3.08,3.06h0c.14-.42.19-.71,0-.8a3.39,3.39,0,0,0-2.35.34Z" style="fill:#37474f"></path><path d="M266.37,399.54a3.92,3.92,0,0,0,1.64-2.35,15.88,15.88,0,0,0-.11-4.77l7.48-.71c.24,4.55,1.1,5.29,1.17,7.57Z" style="fill:#37474f"></path></g><path d="M312.9,390.17c1.51,3.77,7.42,5,10.24,8.57s.07,4.23-6.43,5a26.31,26.31,0,0,0-11,4S306.13,396.73,312.9,390.17Z" style="fill:#37474f"></path><path d="M263.28,401.4c2.59-.71,6.26,2.11,5.36,4.94,1.76,2.4,11,4.27,17.69,2.6l2.62-1.38c3.11-.27,5.18,1.46,6.55,3.64,4.73.16,11.42-2.8,16.83-9.53s10.14-13.85,9.36-28.61c-.89-17-5.93-24.15-13.27-34.07-7.47-10.09-8.5-15.11-10.39-18.63s-6.52-10-17.84-10.74-21.06,10.11-21.06,22.73c0,8.18-1.14,16.45-6.44,29-6.21,14.74-3.86,35.41,7.92,41.44C261.23,402.52,262.44,401.87,263.28,401.4Z" style="fill:#e0e0e0"></path><path d="M314.8,348.23c2.51,4.81,4.56,40-8.95,48.27s-20-1.93-28.83-2.73c-7.51-.67-22,5.48-26.81-6.82,1.48,7.08,4.92,13.06,10.41,15.86.61-.29,1.82-.94,2.66-1.41,2.59-.71,6.26,2.11,5.36,4.94,1.76,2.4,11,4.27,17.69,2.6l2.62-1.38c3.11-.27,5.18,1.46,6.55,3.64,4.73.16,11.42-2.8,16.83-9.53s10.14-13.85,9.36-28.61C321.09,361.59,318.6,354.6,314.8,348.23Z" style="opacity:0.05"></path><path d="M254.69,357.54c4.38-15.82,2.53-20.68.21-28.64-3.85-13.17.6-26.79,9.23-31.77,0,0,7.51,11.39,24.92,11.62,0,0,8.39-1,6.09,2.38-1.51,2.23-.62,2.87,2.36,5.05,12.71,9.34,9.57,18.69,15.21,28.78C312.71,345,290.5,358.45,254.69,357.54Z" style="fill:#e0e0e0"></path><path d="M271.18,283.91c-1.72,3.08-1.22,4.26-2.74,6.8s-3.74,4-4.31,6.42c0,0,3.28,7.86,10,8.19s16.45-2.54,15.45-14.87c-.09-4.57-3.39-8.74-8.44-10.19s-6.1,3.67-6.1,3.67A3.81,3.81,0,0,0,271.18,283.91Z" style="fill:#fafafa"></path><path d="M268.35,303.13a15.84,15.84,0,0,1-1.2-1.4c0-.51,1.58.95,2.37,1.31,2,.88,4.14,1.47,6.09.54a6.52,6.52,0,0,0,2-1.58,6.24,6.24,0,0,1,1.53-1.38,3.62,3.62,0,0,1,1.85-.15c1.84.19,3.52.61,5.17-.43a5.18,5.18,0,0,0,1.69-2.09,9.79,9.79,0,0,0,1-6.54,7.78,7.78,0,0,0-5.06-5.64c-3.52-1.17-5.26,1.26-6.83,3-.85.93-2.26-1.43-3.74-2.21-1.25-.66-2.65.44-2.81-.89,0,0,1.16-4.4,2.66-6.14,4.59.77,4.21-2,7-1.91,3.74,3.12,10.42,3.28,15.87,13.44,1.41,2.82.46,5.44-.28,7.6-1.15,3.4-3.9,5.07-4.05,8.71-.05,1.2,0,2.51-.72,3.45-.91,1.15-2.62,1.21-4.08,1.06A29,29,0,0,1,268.35,303.13Z" style="fill:#455a64"></path><path d="M273.35,272.91c-.16,1-.91,7.4-.91,7.4,1.62-.58,3.09.36,4.46,1.15S278,280.22,278,279s2.06-1.42,2.06-1.42C275.74,272.82,273.51,272,273.35,272.91Z" style="fill:#263238"></path><path d="M281,291a1.67,1.67,0,1,0,1.58,1.76A1.67,1.67,0,0,0,281,291Z" style="fill:#263238"></path><path d="M286.91,336.86c2.6,3.73,3.23,7.63,3.73,14.88.42,5.93,3.35,20.08,9.26,26s8.43,3,7.24-3-1.68-8.33-1.43-14.43-.5-10.72-1.25-12.65c0,0,2.05,3.32,2.23,13.39.14,7.3,2.53,13.84,2.46,17.41s-1,5.65-5.58,4.16-9.54-7.39-11.6-15c-1.55-5.72-2.28-8.62-2.6-17.67C289,340,286.91,336.86,286.91,336.86Z" style="opacity:0.1"></path></g></g><g id="freepik--Snow--inject-24"><g id="freepik--snow--inject-24"><path d="M51.35,46.5,49.8,45h.57a.26.26,0,0,0,.12-.05l.34.32.5-.52-.52-.51-.33.34a.22.22,0,0,0-.12,0h-.57L51.29,43a.23.23,0,1,0-.34-.32l-1.82,1.88h-.7l.83-.86a.23.23,0,0,0-.33-.33l-1.17,1.21-2,0v-.12l1.18-.71a.23.23,0,0,0,.08-.32.24.24,0,0,0-.32-.08l-1.18.71L45.4,44l1-1.76L48,41.8a.23.23,0,0,0,.16-.29.22.22,0,0,0-.28-.16l-1.16.33.34-.62,2.52-.72a.23.23,0,0,0,.16-.29.22.22,0,0,0-.29-.16l-2.07.59.28-.5a.19.19,0,0,0,0-.13l.45-.12L47.9,39l-.7.21.13.45a.2.2,0,0,0-.1.08l-.28.49-.59-2.07a.25.25,0,0,0-.29-.16.23.23,0,0,0-.16.29l.72,2.52-.34.62L46,40.29a.25.25,0,0,0-.29-.16.23.23,0,0,0-.16.29L46,42,45,43.8l-.11-.06,0-1.38a.24.24,0,1,0-.47,0l0,1.38-.11.06-1-1.73.41-1.63a.24.24,0,0,0-.46-.11l-.29,1.17-.36-.61.63-2.54a.23.23,0,0,0-.17-.29.24.24,0,0,0-.28.18l-.52,2.09-.3-.49a.2.2,0,0,0-.1-.08l.11-.45-.7-.18-.18.71.45.11a.3.3,0,0,0,0,.13l.3.49-2.09-.52a.23.23,0,0,0-.29.17.24.24,0,0,0,.17.28l2.55.64.36.6-1.17-.29a.23.23,0,0,0-.11.45l1.62.41,1,1.73-.1.06-1.2-.67a.24.24,0,0,0-.32.09.23.23,0,0,0,.09.32l1.2.67v.12l-2,0-1.2-1.16a.23.23,0,0,0-.32.34l.86.84h-.7l-1.89-1.83a.24.24,0,0,0-.33,0,.23.23,0,0,0,0,.33l1.55,1.5H39a.22.22,0,0,0-.12.05l-.34-.33L38,45l.53.51.32-.34a.26.26,0,0,0,.12,0h.57l-1.49,1.55a.24.24,0,0,0,0,.33.27.27,0,0,0,.17.06.2.2,0,0,0,.16-.07l1.83-1.88.7,0-.84.87a.24.24,0,0,0,0,.33.26.26,0,0,0,.16.07.23.23,0,0,0,.17-.08l1.16-1.2,2,0v.11l-1.19.72a.24.24,0,0,0-.08.32.26.26,0,0,0,.2.11.28.28,0,0,0,.13,0l1.18-.71.1,0-1,1.77-1.61.46a.25.25,0,0,0-.16.29.23.23,0,0,0,.29.16L42.64,48l-.34.62-2.52.72a.23.23,0,0,0-.16.29.22.22,0,0,0,.28.16L42,49.23l-.28.49a.2.2,0,0,0,0,.13l-.45.13.2.7.7-.2L42,50a.22.22,0,0,0,.1-.09l.28-.5L43,51.52a.22.22,0,0,0,.22.17h.07a.24.24,0,0,0,.16-.29l-.72-2.53.34-.61.33,1.16a.24.24,0,0,0,.23.17h.06a.24.24,0,0,0,.16-.29l-.46-1.61,1-1.77.1.06,0,1.38a.23.23,0,0,0,.23.23h0a.24.24,0,0,0,.23-.24l0-1.38.1-.06,1,1.73-.4,1.62a.24.24,0,0,0,.17.29h.06a.23.23,0,0,0,.22-.18l.3-1.17.36.6-.64,2.55a.24.24,0,0,0,.17.28h.06a.23.23,0,0,0,.23-.18l.52-2.09.29.49a.28.28,0,0,0,.1.09l-.11.44.71.18.18-.71-.46-.11s0-.09,0-.13l-.29-.49,2.09.52a.24.24,0,0,0,.29-.17.24.24,0,0,0-.18-.28l-2.54-.64-.36-.6,1.17.29a.24.24,0,0,0,.28-.17.23.23,0,0,0-.17-.28l-1.62-.41-1-1.73.11-.06,1.2.67.12,0a.24.24,0,0,0,.11-.44l-1.21-.67v-.12l2,0L49,46.2a.23.23,0,0,0,.16.06.23.23,0,0,0,.16-.4L48.43,45h.71L51,46.83a.2.2,0,0,0,.16.07.28.28,0,0,0,.17-.07A.24.24,0,0,0,51.35,46.5Z" style="fill:#f0f0f0"></path><path d="M124.69,87.38l-1.78-1.72h.66a.28.28,0,0,0,.14-.06l.38.38.58-.61-.6-.58-.37.39a.22.22,0,0,0-.14-.06l-.65,0,1.71-1.78a.26.26,0,0,0,0-.38.27.27,0,0,0-.38,0l-2.09,2.17h-.81l1-1a.27.27,0,0,0-.39-.37l-1.33,1.38-2.33,0v-.14l1.36-.81a.27.27,0,0,0,.09-.37.27.27,0,0,0-.37-.1l-1.36.82-.11-.07,1.12-2,1.85-.53a.27.27,0,0,0-.15-.51l-1.33.38.39-.71,2.9-.83a.27.27,0,0,0,.18-.33.27.27,0,0,0-.33-.19l-2.38.69.32-.58a.25.25,0,0,0,0-.15l.51-.14-.23-.81-.8.23.15.52a.27.27,0,0,0-.12.09l-.32.57L119,77.84a.27.27,0,1,0-.52.14l.83,2.9-.39.71-.38-1.33a.27.27,0,1,0-.52.15l.53,1.84-1.12,2-.12-.06,0-1.59a.28.28,0,0,0-.27-.26.27.27,0,0,0-.27.27l0,1.59-.12.07-1.19-2,.46-1.87a.26.26,0,0,0-.19-.32.27.27,0,0,0-.33.19L115,81.65l-.42-.69.73-2.92a.27.27,0,0,0-.2-.33.26.26,0,0,0-.32.2l-.6,2.4-.34-.56a.22.22,0,0,0-.12-.09l.13-.52-.81-.21-.2.82.52.13a.22.22,0,0,0,0,.14l.34.57-2.41-.6a.26.26,0,0,0-.32.19.27.27,0,0,0,.19.33l2.93.73.41.69-1.34-.33a.26.26,0,0,0-.32.19.27.27,0,0,0,.19.33l1.87.46,1.19,2-.11.07-1.39-.76a.27.27,0,0,0-.37.1.28.28,0,0,0,.11.37l1.39.76v.14l-2.32,0L112.07,84a.27.27,0,1,0-.37.38l1,1-.8,0-2.17-2.1a.27.27,0,0,0-.37.39l1.78,1.72h-.66a.28.28,0,0,0-.14.06L110,85l-.58.6.6.58.37-.39a.22.22,0,0,0,.14.06h.65l-1.71,1.78a.27.27,0,0,0,0,.38.26.26,0,0,0,.19.07.24.24,0,0,0,.19-.08l2.1-2.17h.8l-1,1a.28.28,0,0,0,0,.39.26.26,0,0,0,.19.07.27.27,0,0,0,.19-.08l1.33-1.38,2.33,0v.13l-1.36.82a.26.26,0,0,0-.09.37.28.28,0,0,0,.23.13.25.25,0,0,0,.14,0l1.36-.82.11.07-1.12,2-1.85.53a.27.27,0,0,0,.15.52l1.33-.38-.39.7-2.9.83a.27.27,0,0,0-.18.34.27.27,0,0,0,.33.18l2.38-.68-.32.57a.26.26,0,0,0,0,.15l-.51.15.23.8.8-.23-.14-.5a.38.38,0,0,0,.11-.11l.32-.57.68,2.38a.26.26,0,0,0,.26.19h.07a.27.27,0,0,0,.19-.33l-.83-2.9.39-.7.38,1.33a.27.27,0,0,0,.26.19h.07a.27.27,0,0,0,.19-.33l-.53-1.85,1.12-2,.12.07,0,1.58a.26.26,0,0,0,.27.26h0a.27.27,0,0,0,.27-.27l0-1.58.12-.07,1.19,2-.46,1.86a.27.27,0,0,0,.19.33h.07a.27.27,0,0,0,.26-.2l.33-1.34.42.69L118.7,93a.26.26,0,0,0,.2.32H119a.27.27,0,0,0,.26-.2l.6-2.4.34.56a.29.29,0,0,0,.12.1l-.13.51.81.2.2-.81-.52-.13a.26.26,0,0,0,0-.15l-.34-.56,2.4.6a.28.28,0,0,0,.33-.2.26.26,0,0,0-.19-.32l-2.93-.73-.41-.7,1.34.34a.26.26,0,0,0,.32-.2.26.26,0,0,0-.19-.32l-1.87-.47-1.19-2,.11-.07,1.39.77a.31.31,0,0,0,.13,0,.28.28,0,0,0,.24-.14.27.27,0,0,0-.11-.36l-1.39-.77v-.14l2.33,0L122,87a.26.26,0,0,0,.18.07.27.27,0,0,0,.19-.46l-1-1h.8l2.17,2.09a.27.27,0,0,0,.19.08.25.25,0,0,0,.19-.09A.27.27,0,0,0,124.69,87.38Z" style="fill:#f0f0f0"></path><path d="M144.51,45.48l-2.55.68-.61-.35-.25-.93-.93.25-.87-.51.28-.07a.28.28,0,0,0,.19-.34.27.27,0,0,0-.33-.19l-.14,0,.09-.17-.17-.3.24.06h.07a.27.27,0,0,0,.26-.2.28.28,0,0,0-.19-.34l-.28-.07.87-.51.93.25.25-.92.61-.36,2.55.69h.07a.27.27,0,0,0,.26-.21.27.27,0,0,0-.19-.33l-2-.54.93-.54.29.08L144,40l-.66-.18-.08.29-.92.53.54-2a.28.28,0,0,0-.2-.33.27.27,0,0,0-.33.19L141.7,41l-.61.35-.92-.24-.25.92-.88.51.08-.28a.28.28,0,0,0-.53-.15l-.06.24-.12-.22h-.35l.22-.22a.27.27,0,0,0-.38-.38l-.21.2v-1l.68-.68-.68-.67V38.7l1.87-1.87a.28.28,0,0,0,0-.38.27.27,0,0,0-.39,0l-1.48,1.48V36.85l.21-.21-.48-.48-.49.48.21.21v1.08l-1.48-1.48a.27.27,0,0,0-.38.38l1.86,1.87v.71l-.67.67.67.68v1l-.2-.2a.27.27,0,0,0-.39,0,.26.26,0,0,0,0,.38l.22.22h-.34l-.13.23-.08-.28a.26.26,0,0,0-.33-.19.27.27,0,0,0-.2.33l.08.28-.87-.5-.25-.93-.93.25-.61-.35-.68-2.55a.27.27,0,1,0-.53.14l.54,2-.93-.54-.08-.29-.66.18.18.66.29-.07.92.53-2,.54a.28.28,0,0,0-.2.34.29.29,0,0,0,.27.2h.07l2.55-.68.61.35.25.93.92-.25.88.51-.28.07a.27.27,0,0,0,.07.54h.07l.28-.07-.2.34.09.15-.19-.06a.29.29,0,0,0-.34.2.27.27,0,0,0,.2.33l.28.08-.88.5-.92-.24-.25.92-.61.35-2.55-.68a.28.28,0,0,0-.34.2.27.27,0,0,0,.2.33l2,.54-.93.54-.29-.08-.18.66.66.18.08-.29.93-.53-.54,2a.27.27,0,0,0,.19.33h.07a.29.29,0,0,0,.27-.2l.68-2.55.61-.35.93.24.25-.92.87-.51-.08.28a.29.29,0,0,0,.2.34h.07a.27.27,0,0,0,.26-.2l.05-.19.18.3h.17l-.09.09a.26.26,0,0,0,0,.38.27.27,0,0,0,.39,0l.2-.2v1l-.67.68.67.67v.71l-1.86,1.86a.28.28,0,0,0,.39.39l1.47-1.48v1.08l-.21.21.49.48.48-.48-.21-.21V49.71l1.48,1.48a.24.24,0,0,0,.19.08.27.27,0,0,0,.2-.08.29.29,0,0,0,0-.39l-1.87-1.86v-.71l.68-.67-.68-.68v-1l.21.2a.27.27,0,0,0,.38,0,.26.26,0,0,0,0-.38l-.08-.09h.25l.12-.22,0,.14a.27.27,0,0,0,.26.2h.08a.27.27,0,0,0,.19-.33L139,45.1l.88.5.25.93.92-.25.61.35.69,2.55a.28.28,0,0,0,.26.21h.07a.29.29,0,0,0,.2-.34l-.55-2,.93.54.08.29.66-.18-.17-.66-.29.07-.93-.53,2-.54a.28.28,0,0,0,.19-.34A.27.27,0,0,0,144.51,45.48Zm-6.42-.43h-.48l0,0h0l-.19-.19-.2.19h0l0,0h-.41l-.28-.5.06-.25-.25-.06-.2-.35.32-.55.15,0,0-.15.24-.43h.58l.1.1.09-.1h.58l.24.41-.06.21.21,0,.28.5-.21.37h0l-.27.07.07.26h0v0Z" style="fill:#f0f0f0"></path><path d="M309.13,44.48l-2.55.68-.61-.35-.25-.92-.92.24-.88-.5.28-.08a.27.27,0,0,0,.2-.33.29.29,0,0,0-.34-.2l-.14,0,.1-.17-.17-.29.23.06h.07a.29.29,0,0,0,.27-.2.28.28,0,0,0-.2-.34l-.28-.07.88-.51.92.25.25-.93.61-.35,2.55.68h.07a.29.29,0,0,0,.27-.2.28.28,0,0,0-.2-.34l-2-.54.93-.53.29.07.18-.66-.66-.18-.08.29-.93.54.54-2a.27.27,0,1,0-.53-.14l-.68,2.55-.61.35-.93-.25-.25.93-.87.5.07-.28a.26.26,0,0,0-.19-.33.27.27,0,0,0-.34.19l-.06.23-.12-.21h-.34l.22-.22a.28.28,0,1,0-.39-.39l-.2.21v-1l.67-.68-.67-.68v-.7l1.86-1.87a.27.27,0,0,0,0-.39.29.29,0,0,0-.39,0l-1.47,1.48V35.86l.21-.21-.49-.49-.48.49.21.21v1.07l-1.48-1.48a.28.28,0,0,0-.39.39l1.87,1.87v.7l-.68.68.68.68v1l-.21-.21a.26.26,0,0,0-.38,0,.27.27,0,0,0,0,.39l.22.22h-.35l-.13.22-.07-.28a.28.28,0,1,0-.53.15l.07.28-.87-.51-.25-.92-.92.24-.61-.35-.69-2.55a.27.27,0,0,0-.33-.19.27.27,0,0,0-.2.33l.54,2-.93-.53-.07-.29-.66.18.17.66.29-.08.93.54-2,.54a.27.27,0,0,0-.19.33.27.27,0,0,0,.26.21h.07l2.55-.68.61.35.25.92.93-.24.87.5-.28.08a.26.26,0,0,0-.19.33.27.27,0,0,0,.26.2H300l.28-.08-.2.34.09.15L300,43a.27.27,0,0,0-.14.53l.28.07-.87.51-.93-.25-.25.93-.61.35-2.55-.68a.27.27,0,0,0-.33.19.27.27,0,0,0,.19.34l2,.54-.93.53-.29-.07-.17.66.66.18.07-.29L297,46l-.54,2a.28.28,0,0,0,.2.34h.07a.27.27,0,0,0,.26-.21l.69-2.55.61-.35.92.25.25-.93.87-.5-.07.28a.28.28,0,0,0,.19.34h.07a.27.27,0,0,0,.27-.2l.05-.19.17.3h.17l-.08.09a.27.27,0,0,0,0,.39.26.26,0,0,0,.38,0l.21-.21v1l-.68.68.68.68v.7l-1.87,1.87a.28.28,0,0,0,.39.39l1.48-1.48v1.07l-.21.21.48.49.49-.49-.21-.21V48.72l1.47,1.48a.32.32,0,0,0,.2.08.28.28,0,0,0,.19-.47l-1.86-1.87v-.7l.67-.68-.67-.68v-1l.2.21a.27.27,0,0,0,.19.08.3.3,0,0,0,.2-.08.27.27,0,0,0,0-.39l-.09-.09H303l.13-.21,0,.14a.29.29,0,0,0,.27.2h.07a.27.27,0,0,0,.19-.34l-.07-.28.87.51.25.92.93-.24.61.35.68,2.55a.27.27,0,0,0,.27.2h.07a.27.27,0,0,0,.19-.33L307,46l.93.53.08.29.66-.18-.18-.66-.29.08-.93-.54,2-.54a.27.27,0,0,0,.2-.33A.28.28,0,0,0,309.13,44.48Zm-6.42-.42h-.48l0,0h0l-.2-.2-.19.2h0l0,0h-.4l-.29-.51.07-.24-.25-.07-.2-.35.31-.54.16,0-.05-.16.25-.42h.57l.1.1.1-.1h.57l.24.41-.05.2.2.06.29.49-.22.37h0l-.26.07.07.27h0v0Z" style="fill:#f0f0f0"></path><path d="M473.85,71l1.07.07.19.23.52-.46-.45-.51-.23.2-1.07-.07L475.45,69a.28.28,0,1,0-.36-.42l-2,1.75-.71-.05-.63-.72-.72.63-1-.06.22-.19a.29.29,0,0,0,0-.39.27.27,0,0,0-.39,0l-.09.08V69.4l-.21-.14.14,0a.28.28,0,0,0,.22-.33.27.27,0,0,0-.32-.21l-.29.06.56-.84.94-.19-.18-.94.39-.59,2.59-.51a.28.28,0,0,0,.21-.33.27.27,0,0,0-.32-.21l-2.05.41.59-.9.3-.05-.14-.68-.67.14.06.29-.6.89-.41-2a.27.27,0,0,0-.32-.21.27.27,0,0,0-.21.32l.51,2.59-.39.59-.94.18.19.94-.56.84-.06-.28a.27.27,0,0,0-.32-.22.28.28,0,0,0-.22.33l0,.14-.16-.11-.31.15.08-.23a.27.27,0,1,0-.52-.17l-.09.27-.45-.91.31-.9-.91-.31-.31-.63.84-2.5a.27.27,0,0,0-.17-.35.26.26,0,0,0-.34.17l-.68,2-.47-1,.1-.28-.65-.22-.22.65.28.09.47,1-2-.67A.27.27,0,0,0,463,65l2.5.85.31.63-.31.91.91.31.45.9-.28-.09a.28.28,0,0,0-.35.17.29.29,0,0,0,.18.35l.22.08-.22.1,0,.35-.2-.24a.28.28,0,0,0-.42.36l.2.22-1-.06-.63-.72-.72.63-.71,0-1.74-2a.29.29,0,0,0-.39,0,.28.28,0,0,0,0,.39l1.38,1.57-1.07-.07-.2-.22-.51.45.45.52.22-.2,1.07.07-1.57,1.38a.28.28,0,0,0,0,.39.27.27,0,0,0,.2.09.24.24,0,0,0,.18-.07l2-1.74.7.05.63.71.72-.63,1,.07-.22.19a.28.28,0,0,0,0,.39.27.27,0,0,0,.2.09.28.28,0,0,0,.19-.07l.23-.2,0,.34.21.14-.28.06a.27.27,0,0,0-.22.32.26.26,0,0,0,.33.21l.28,0-.56.84-.94.19.19.94-.39.58-2.59.52a.27.27,0,0,0-.22.32.28.28,0,0,0,.33.22l2.05-.41-.6.89-.29.06.13.67.67-.13-.05-.29.59-.9.41,2a.28.28,0,0,0,.27.22h0a.28.28,0,0,0,.22-.33l-.52-2.58.39-.59.94-.19L466.5,73l.56-.84.05.29a.28.28,0,0,0,.27.22h.06a.27.27,0,0,0,.21-.32l-.06-.28.33.22.16-.08-.07.18a.28.28,0,0,0,.17.35l.09,0a.28.28,0,0,0,.26-.19l.1-.28.44.91-.3.91.9.3L470,75l-.85,2.5a.26.26,0,0,0,.17.34l.09,0a.28.28,0,0,0,.26-.19l.67-2,.47,1-.09.29.65.22.22-.65-.28-.1-.48-1,2,.67a.28.28,0,0,0,.18-.52l-2.5-.85-.32-.63.31-.91-.91-.3-.44-.91.27.09a.27.27,0,1,0,.18-.51l-.19-.07.31-.15,0-.17.08.09a.28.28,0,0,0,.2.1.29.29,0,0,0,.18-.07.27.27,0,0,0,0-.39l-.19-.22,1,.07.63.72.72-.63.7,0,1.74,2A.29.29,0,0,0,475,73a.26.26,0,0,0,.18-.07.28.28,0,0,0,0-.39Zm-4.68.06-.52.25-.24-.08-.09.24-.36.18-.52-.34,0-.16-.16,0-.41-.27,0-.58.11-.09-.1-.1,0-.57.43-.22.2.07.06-.2.52-.25.35.24v0h0l.05.27.3-.06.4.27,0,.48-.24.21.18.21h0l0,0Z" style="fill:#f0f0f0"></path><path d="M99,140.32l1.07.07.2.23.51-.46-.45-.51-.22.19L99,139.78l1.58-1.38a.28.28,0,0,0-.37-.42l-2,1.74-.7,0-.63-.72-.72.63-1-.06.22-.19a.28.28,0,0,0,0-.39.27.27,0,0,0-.39,0l-.09.08,0-.24-.21-.14.14,0a.28.28,0,0,0,.21-.33.27.27,0,0,0-.32-.21l-.28.06.56-.84.94-.19-.19-.94.39-.59,2.59-.51a.29.29,0,0,0,.22-.33.28.28,0,0,0-.33-.21l-2.05.41.6-.9.29,0-.13-.68-.68.14.06.29-.59.89-.41-2a.28.28,0,0,0-.54.11l.52,2.59-.4.58-.93.19.18.94-.56.84-.05-.28a.28.28,0,0,0-.33-.22.28.28,0,0,0-.21.33l0,.14-.17-.11-.3.15.07-.23a.27.27,0,0,0-.17-.35.26.26,0,0,0-.34.18l-.1.27-.44-.91.3-.9-.9-.31-.32-.63.85-2.5a.28.28,0,0,0-.17-.35.28.28,0,0,0-.35.17l-.67,2-.48-1,.1-.28-.65-.22-.22.65.28.09.48,1-2-.67A.28.28,0,0,0,88,134a.27.27,0,0,0,.17.34l2.5.85.31.63-.3.91.9.31.45.9-.27-.09a.28.28,0,0,0-.35.17.28.28,0,0,0,.17.35l.23.08-.22.1,0,.34-.21-.23a.28.28,0,0,0-.39,0,.27.27,0,0,0,0,.38l.19.22-1-.06-.63-.72-.72.63-.7,0-1.74-2a.29.29,0,0,0-.39,0,.28.28,0,0,0,0,.39L87.25,139l-1.07-.07-.19-.22-.52.45.45.52.23-.2,1.07.07-1.57,1.38a.26.26,0,0,0,0,.38.26.26,0,0,0,.21.1.26.26,0,0,0,.18-.07l2-1.74.71,0,.63.72.72-.63,1,.07-.22.19a.27.27,0,0,0,0,.39.29.29,0,0,0,.21.09.26.26,0,0,0,.18-.07l.23-.2,0,.34.22.14-.29.06a.27.27,0,0,0-.21.32.26.26,0,0,0,.32.21l.28-.05-.56.84-.94.19.19.93-.39.59-2.59.52a.28.28,0,0,0,.11.54l2-.41-.6.89-.29.06.14.67.67-.13-.06-.3.6-.89.4,2.05a.29.29,0,0,0,.27.22h.06a.28.28,0,0,0,.21-.33l-.51-2.58.39-.59.94-.19-.19-.94.56-.84.06.29a.27.27,0,0,0,.27.22h0a.28.28,0,0,0,.22-.32l-.06-.28.33.21.15-.07-.06.18a.28.28,0,0,0,.17.35h.09a.28.28,0,0,0,.26-.18l.09-.28.45.91-.31.91.91.3.31.64-.85,2.5a.27.27,0,0,0,.17.34l.09,0a.27.27,0,0,0,.26-.19l.67-2,.48,1-.1.29.65.22.22-.65-.28-.1-.48-1,2,.67a.28.28,0,0,0,.35-.17.28.28,0,0,0-.17-.35l-2.5-.85-.31-.63.31-.91-.91-.3-.45-.91.28.09a.26.26,0,0,0,.34-.17.26.26,0,0,0-.17-.34l-.18-.07.31-.15v-.17l.08.09a.28.28,0,0,0,.21.1.31.31,0,0,0,.18-.07.28.28,0,0,0,0-.39l-.19-.22,1,.07.63.72.72-.63.71,0,1.74,2a.25.25,0,0,0,.2.1.24.24,0,0,0,.18-.07.27.27,0,0,0,0-.39Zm-4.68.06-.52.25-.24-.08-.08.24-.36.18-.52-.34,0-.16-.15,0-.41-.27,0-.58.1-.09-.09-.1,0-.58.42-.21.2.07.07-.2.51-.25.36.24v0h0l.06.27.3-.06.4.27,0,.48-.25.21.18.21h0l0,0Z" style="fill:#f0f0f0"></path><path d="M364.83,89.1l-1.45-.95.87-.19.21.14.31-.48-.48-.31-.13.21-.88.18,1-1.46a.22.22,0,0,0-.07-.31.22.22,0,0,0-.31.06l-1.21,1.84-.57.12-.67-.44-.44.67-.82.17.13-.2a.23.23,0,0,0-.07-.32.22.22,0,0,0-.31.07l-.07.1,0-.16-.27-.09.18-.09a.23.23,0,0,0,.1-.31.24.24,0,0,0-.31-.1l-.21.11.26-.8.71-.36-.36-.71.19-.56,2-1a.22.22,0,0,0-.2-.4l-1.56.78.28-.85.22-.11-.25-.51-.51.26.11.22-.28.85-.79-1.56a.23.23,0,0,0-.3-.1.23.23,0,0,0-.1.31l1,2-.19.56-.71.36.36.71-.27.8-.1-.22a.23.23,0,0,0-.41.21l.09.18-.19-.07-.22.19,0-.26a.24.24,0,0,0-.22-.24.23.23,0,0,0-.24.22v.24l-.56-.63,0-.79-.79,0-.39-.44.12-2.19a.22.22,0,0,0-.21-.24.23.23,0,0,0-.25.21l-.09,1.74-.6-.67v-.25l-.56,0,0,.57.25,0,.6.66-1.74-.1a.22.22,0,0,0-.24.22.22.22,0,0,0,.21.24l2.2.13.39.43-.05.8.8.05.56.62H357a.21.21,0,0,0-.24.21.22.22,0,0,0,.21.24l.26,0-.21.19,0,.21-.2-.13a.24.24,0,0,0-.32.06.24.24,0,0,0,.07.32l.2.13-.82.17-.67-.43-.44.66-.57.12-1.84-1.2a.24.24,0,0,0-.32.06.25.25,0,0,0,.07.32l1.46,1-.88.19-.21-.14-.31.48.48.31.13-.21.88-.18-1,1.46a.23.23,0,0,0,.07.31.2.2,0,0,0,.13,0,.26.26,0,0,0,.19-.1l1.2-1.84.58-.12.66.44.44-.67.82-.17-.13.2a.23.23,0,0,0,.07.32l.12,0a.21.21,0,0,0,.19-.1l.14-.2.06.32.14,0-.15.07a.24.24,0,0,0-.1.31.24.24,0,0,0,.31.1l.21-.11-.26.8-.71.36.36.71-.19.56-2,1a.23.23,0,0,0,.21.41l1.55-.78-.28.85-.22.11.26.51.51-.26-.12-.22.28-.85.79,1.56a.22.22,0,0,0,.2.12l.1,0a.24.24,0,0,0,.11-.31l-1-2,.18-.56.71-.36-.36-.71.27-.8.11.22a.22.22,0,0,0,.2.12l.1,0a.22.22,0,0,0,.1-.31l-.07-.14.28.09.1-.1v.11a.22.22,0,0,0,.21.24h0a.24.24,0,0,0,.23-.22v-.24L360,91l0,.79.8,0,.39.44-.13,2.19a.23.23,0,0,0,.22.24h0a.23.23,0,0,0,.23-.21l.1-1.74.59.67v.24l.57,0,0-.57-.25,0-.59-.66,1.73.09a.22.22,0,0,0,.25-.21.23.23,0,0,0-.22-.24l-2.19-.13-.39-.43,0-.8-.79,0-.56-.62h.24a.22.22,0,0,0,.24-.21.24.24,0,0,0-.22-.25H360l.15-.14,0-.21.1.07a.2.2,0,0,0,.13,0,.24.24,0,0,0,.19-.1.23.23,0,0,0-.07-.32l-.2-.13.82-.17.67.43.44-.66.57-.12,1.84,1.2a.2.2,0,0,0,.13,0,.26.26,0,0,0,.19-.1A.23.23,0,0,0,364.83,89.1Zm-5.2.19-.29.26h-.28v.22h0v0l-.25.22-.46-.15-.09-.19-.2.1-.31-.11-.11-.51.07-.11-.11-.08-.08-.4.35-.31H358v-.11l.35-.32.38.12.08.16L359,88l.46.15.07.35-.14.21.21.14Z" style="fill:#f0f0f0"></path><path d="M209.43,56.26,208,55.31l.87-.18.21.13.31-.47-.48-.32-.13.21-.88.18,1-1.45a.23.23,0,0,0-.07-.32.22.22,0,0,0-.31.07L207.25,55l-.57.12-.67-.43-.44.66-.82.17.13-.2a.22.22,0,0,0-.07-.31.22.22,0,0,0-.31.06l-.07.1,0-.16-.27-.09.18-.09a.22.22,0,0,0,.1-.3.23.23,0,0,0-.31-.1l-.21.11.26-.8.71-.36-.36-.71.19-.56,2-1a.23.23,0,0,0,.1-.31.22.22,0,0,0-.3-.1l-1.56.79.28-.85.22-.12-.25-.51-.51.26.11.22-.28.85-.79-1.55a.21.21,0,0,0-.3-.1.22.22,0,0,0-.1.3l1,2-.19.56-.71.36.36.71-.27.8-.1-.21a.22.22,0,0,0-.31-.1.22.22,0,0,0-.1.3l.09.18-.19-.06-.22.19,0-.26a.23.23,0,0,0-.46,0v.24l-.56-.62,0-.8-.79-.05-.39-.43.12-2.2a.23.23,0,0,0-.21-.24.24.24,0,0,0-.25.22L200,52.24l-.6-.66v-.25l-.56,0,0,.57h.25l.6.67-1.74-.1a.23.23,0,1,0,0,.45l2.2.13.39.44-.05.79.8.05.56.63-.24,0a.22.22,0,0,0-.24.22.23.23,0,0,0,.21.24h.26l-.21.19,0,.21-.2-.13a.23.23,0,0,0-.32.07.23.23,0,0,0,.07.31l.2.14-.82.17-.67-.44-.44.67-.57.12-1.84-1.21a.23.23,0,0,0-.32.07.24.24,0,0,0,.07.31l1.46,1-.88.18-.21-.14-.31.48.48.31.13-.2.88-.18-1,1.45a.24.24,0,0,0,.07.32.28.28,0,0,0,.13,0,.23.23,0,0,0,.19-.1l1.2-1.84.58-.12.66.44.44-.67.82-.17-.13.2a.23.23,0,0,0,.07.32.19.19,0,0,0,.12,0,.23.23,0,0,0,.19-.1l.14-.21.06.33.14,0-.15.07a.24.24,0,0,0-.1.31.23.23,0,0,0,.31.1l.21-.11-.26.8-.71.36.36.71-.19.56-2,1a.23.23,0,0,0-.1.31.24.24,0,0,0,.31.1l1.55-.79-.28.85-.22.11.26.51.51-.25-.12-.23.28-.84.79,1.55a.23.23,0,0,0,.2.13.17.17,0,0,0,.1,0,.22.22,0,0,0,.11-.3l-1-2,.18-.55.71-.36-.36-.72.27-.79.11.21a.23.23,0,0,0,.2.13.19.19,0,0,0,.1,0,.21.21,0,0,0,.1-.3l-.07-.15.28.09.1-.09v.1a.22.22,0,0,0,.21.24h0a.23.23,0,0,0,.23-.21V57.5l.56.63,0,.8.8,0,.39.44-.13,2.2a.23.23,0,0,0,.22.24h0a.24.24,0,0,0,.23-.22l.1-1.74.59.67v.25l.57,0,0-.57h-.25l-.59-.67,1.73.1a.22.22,0,0,0,.25-.22.24.24,0,0,0-.22-.24l-2.19-.12-.39-.44,0-.8-.79,0-.56-.63h.24a.21.21,0,0,0,.24-.21.23.23,0,0,0-.22-.24h-.1l.15-.14,0-.2.1.07a.28.28,0,0,0,.13,0,.22.22,0,0,0,.19-.1.23.23,0,0,0-.07-.32l-.2-.13.82-.17.67.44.44-.67.57-.12,1.84,1.21a.28.28,0,0,0,.13,0,.23.23,0,0,0,.12-.42Zm-5.2.19-.29.27-.28,0v.23h0v0l-.25.23-.46-.16-.09-.19-.2.1-.31-.11-.11-.51.07-.11-.11-.07-.08-.4.35-.32h.12v-.12l.35-.32.38.13.08.15.15-.08.46.15.07.35-.14.22.21.14Z" style="fill:#f0f0f0"></path><path d="M437,107.51l-1.95-1.28,1.18-.24.27.18.42-.64-.64-.42-.18.28-1.17.25,1.28-2a.32.32,0,0,0-.09-.43.31.31,0,0,0-.42.09l-1.62,2.46-.77.16-.89-.58-.59.89-1.1.23.18-.27a.31.31,0,0,0-.09-.42.29.29,0,0,0-.42.08l-.09.14-.05-.22-.36-.11.24-.13a.31.31,0,0,0,.14-.41.3.3,0,0,0-.41-.13l-.29.14.35-1.07.95-.48-.48-.95.25-.75,2.63-1.32a.31.31,0,0,0-.28-.55l-2.08,1,.38-1.14.29-.15-.34-.68-.68.34.15.3-.38,1.14-1-2.08a.31.31,0,0,0-.41-.14.3.3,0,0,0-.13.41l1.32,2.63-.25.75-.95.48.48,1L429,105l-.15-.29a.3.3,0,1,0-.54.28l.12.24-.26-.09-.29.26,0-.35a.3.3,0,0,0-.29-.32.3.3,0,0,0-.32.29l0,.32-.75-.84.06-1.07-1.06-.06-.53-.59.17-2.94a.31.31,0,0,0-.29-.32.3.3,0,0,0-.32.29l-.13,2.33-.8-.9,0-.33-.77,0,0,.76.33,0,.8.89-2.33-.13a.31.31,0,1,0,0,.61l2.94.17.52.59-.06,1.06,1.07.06.75.85-.33,0a.3.3,0,0,0-.32.28.31.31,0,0,0,.29.33l.35,0-.29.25.06.28-.27-.17a.29.29,0,0,0-.42.09.29.29,0,0,0,.08.42l.28.18-1.11.23-.89-.59-.59.89-.77.16-2.46-1.61a.31.31,0,0,0-.42.09.29.29,0,0,0,.09.42l1.94,1.28-1.17.24-.28-.18-.41.64.63.42.19-.28,1.17-.24-1.28,1.95a.31.31,0,0,0,.09.42.34.34,0,0,0,.17.05.3.3,0,0,0,.25-.14l1.62-2.46.77-.16.89.59.59-.9,1.1-.23-.18.27a.32.32,0,0,0,.09.43.34.34,0,0,0,.17,0,.29.29,0,0,0,.25-.14l.18-.27.09.43.18.06-.19.1a.31.31,0,0,0-.14.41.3.3,0,0,0,.41.13l.29-.14-.35,1.07-.95.48.48.95-.25.75-2.63,1.33a.3.3,0,0,0,.28.54l2.08-1-.38,1.14-.29.15.34.68.68-.34-.15-.3.38-1.14,1.05,2.09a.31.31,0,0,0,.27.17.37.37,0,0,0,.14,0,.3.3,0,0,0,.13-.41L427,112.76l.25-.74,1-.48-.48-1,.35-1.07.15.29a.29.29,0,0,0,.27.17.25.25,0,0,0,.14,0,.3.3,0,0,0,.13-.41l-.09-.19.36.12.15-.12v.13a.31.31,0,0,0,.29.33h0a.32.32,0,0,0,.31-.29l0-.32.75.84-.06,1.06,1.06.06.53.59-.17,2.94a.3.3,0,0,0,.29.32h0a.3.3,0,0,0,.3-.29l.13-2.32.8.89,0,.33.76.05,0-.77-.33,0-.8-.89,2.33.13a.29.29,0,0,0,.32-.29.31.31,0,0,0-.29-.32l-2.94-.17-.52-.58.06-1.07-1.07-.06-.75-.84.33,0a.3.3,0,0,0,.32-.29.3.3,0,0,0-.29-.32h-.14l.21-.19-.06-.27.14.09a.34.34,0,0,0,.17,0,.3.3,0,0,0,.25-.14.3.3,0,0,0-.09-.43l-.27-.17,1.11-.23.89.58.59-.89.77-.16,2.46,1.61a.26.26,0,0,0,.17,0,.29.29,0,0,0,.25-.13A.31.31,0,0,0,437,107.51Zm-7,.25-.4.36h-.06l-.3,0,0,.3h0v.06l-.33.3-.61-.2-.13-.26-.26.13-.42-.14-.15-.68.1-.15-.15-.1-.11-.54.48-.42h.15v-.16l.48-.43.5.17.11.21.21-.11.6.2.1.47-.18.29.28.18Z" style="fill:#f0f0f0"></path><path d="M417.1,44.08l.49-.7-.7-.5-.25.35-1.63.28,1.29-1.85a.31.31,0,1,0-.5-.35l-1.66,2.36-.53.09-.08-.47a.31.31,0,0,0-.36-.25.31.31,0,0,0-.25.36l.08.47-1.05.18.73-1a.31.31,0,1,0-.5-.35l-1.09,1.55-.75.13.45-1.24-1.4.25.3-.83,1.72-.8a.3.3,0,0,0,.15-.41.31.31,0,0,0-.41-.15l-1.16.54.37-1,.44.17.11,0a.3.3,0,0,0,.29-.21.31.31,0,0,0-.18-.4l-.45-.16.18-.5,2.62-1.22a.31.31,0,0,0,.15-.41.33.33,0,0,0-.42-.15l-2.05,1,.57-1.56L412,37l-.36-.78-.79.36L411,37l-.57,1.56-1-2.05a.32.32,0,0,0-.41-.15.31.31,0,0,0-.15.41l1.21,2.61-.18.51-.45-.16a.31.31,0,0,0-.4.18.32.32,0,0,0,.19.4l.45.16-.37,1-.54-1.16a.31.31,0,0,0-.41-.15.3.3,0,0,0-.15.41l.8,1.72-.29.78-.84-1-.46,1.27-.57-.69.16-1.89a.31.31,0,0,0-.61-.05L406.39,42l-.69-.82.36-.3a.31.31,0,1,0-.4-.48l-.36.31-.35-.42.26-2.86a.31.31,0,1,0-.62-.06l-.2,2.25-1.07-1.27,0-.42-.86-.08-.07.86.42,0L403.92,40l-2.26-.2a.3.3,0,0,0-.33.28.31.31,0,0,0,.28.34l2.87.25.34.41-.36.31a.32.32,0,0,0,0,.44.3.3,0,0,0,.44,0l.36-.3.69.82-1.27-.11a.31.31,0,0,0-.06.62l1.89.16.58.69-1.33.23.82,1-.83.15L404.15,44a.32.32,0,0,0-.43.08.31.31,0,0,0,.08.43l1,.74-1,.18-.08-.47a.33.33,0,0,0-.36-.25.31.31,0,0,0-.25.36l.08.47-.53.09L400.29,44a.31.31,0,0,0-.43.07.32.32,0,0,0,.08.44l1.85,1.29-1.64.29-.35-.24-.49.7.7.5.25-.35,1.63-.29-1.29,1.85a.32.32,0,0,0,.07.44.41.41,0,0,0,.18,0,.29.29,0,0,0,.25-.13l1.66-2.36.53-.09.08.47a.29.29,0,0,0,.3.25h.06a.31.31,0,0,0,.25-.36l-.08-.47,1.05-.18-.73,1a.32.32,0,0,0,.07.44.41.41,0,0,0,.18,0,.29.29,0,0,0,.25-.13l1.09-1.55.9-.16-.49,1.35,1.25-.22-.26.72-1.72.8a.3.3,0,0,0-.15.41.31.31,0,0,0,.41.15l1.16-.54-.37,1-.44-.16a.31.31,0,0,0-.4.19.3.3,0,0,0,.18.39l.45.17-.18.5-2.62,1.22a.31.31,0,0,0-.15.41.33.33,0,0,0,.42.15l2-1-.57,1.57-.38.18.36.78.79-.37-.18-.38.57-1.56.95,2.05a.32.32,0,0,0,.28.18.28.28,0,0,0,.13,0,.31.31,0,0,0,.15-.42l-1.21-2.61.18-.5.45.16.1,0a.3.3,0,0,0,.29-.2.31.31,0,0,0-.18-.4l-.45-.16.37-1,.54,1.16a.31.31,0,0,0,.28.18.28.28,0,0,0,.13,0,.31.31,0,0,0,.15-.41l-.8-1.72.3-.82.93,1.12.45-1.24.48.57-.17,1.9a.31.31,0,0,0,.29.33h0a.31.31,0,0,0,.31-.28l.11-1.27.69.82-.36.3a.32.32,0,0,0,0,.44.32.32,0,0,0,.24.11.31.31,0,0,0,.2-.07l.36-.31.35.41-.26,2.87a.32.32,0,0,0,.28.34h0a.31.31,0,0,0,.31-.28l.2-2.26,1.07,1.28,0,.42.86.08.07-.86-.42,0L413,49.92l2.26.2a.32.32,0,0,0,.33-.29.3.3,0,0,0-.28-.33l-2.87-.25-.34-.42.36-.3a.31.31,0,1,0-.4-.48l-.36.31-.69-.82,1.27.11a.33.33,0,0,0,.34-.28.32.32,0,0,0-.28-.34l-1.89-.16-.5-.6,1.36-.24-.9-1.08.8-.14,1.56,1.09a.27.27,0,0,0,.17.06.33.33,0,0,0,.26-.13.31.31,0,0,0-.08-.43l-1.05-.74,1.06-.18.08.46a.32.32,0,0,0,.31.26h.05a.31.31,0,0,0,.25-.36l-.08-.47.53-.09,2.36,1.65a.28.28,0,0,0,.18.06.31.31,0,0,0,.17-.57l-1.85-1.3,1.64-.28ZM408.17,46l-.65-.78.34-.94,1-.17.59.72s0,0,0,0,0,0,0,.08l-.29.81a.35.35,0,0,0-.11,0s0,.05,0,.07Zm1.57-1.78-.2-.23.3,0Zm-1.36-.66-.28.05.1-.26Zm-1.23.85-.09.26-.18-.21Zm.12,1.48.2.23-.3,0Zm1.36.66.27,0-.09.26Zm1.22-.85.1-.26.18.21Z" style="fill:#f0f0f0"></path><path d="M60.33,98.75l.38-.54-.54-.38-.19.26-1.25.22,1-1.41a.24.24,0,0,0,0-.33.23.23,0,0,0-.33.06l-1.27,1.8-.4.07-.07-.36a.24.24,0,0,0-.27-.19.23.23,0,0,0-.19.28l.06.35-.81.14.56-.8a.23.23,0,1,0-.38-.27l-.84,1.19-.57.1.35-1-1.07.19.22-.63L56,96.94a.25.25,0,0,0,.12-.32.24.24,0,0,0-.32-.11l-.89.41.29-.77.34.12.08,0a.23.23,0,0,0,.22-.16.23.23,0,0,0-.14-.3l-.34-.13.14-.38,2-.93a.25.25,0,0,0,.11-.32.22.22,0,0,0-.31-.11l-1.57.73.43-1.2.3-.13-.28-.6-.6.28.14.29-.44,1.2L54.53,93a.23.23,0,0,0-.31-.12.25.25,0,0,0-.12.32l.93,2-.14.38-.34-.12a.23.23,0,0,0-.16.44l.34.13-.28.77L54,95.87a.25.25,0,0,0-.32-.12.24.24,0,0,0-.11.32l.61,1.32L54,98l-.64-.76-.35,1-.44-.53.12-1.44a.23.23,0,0,0-.21-.26.24.24,0,0,0-.26.22l-.08,1-.53-.63.28-.23a.24.24,0,0,0,0-.33.24.24,0,0,0-.34,0l-.27.23L51,95.84l.2-2.19a.24.24,0,0,0-.22-.26.26.26,0,0,0-.26.22l-.15,1.72-.81-1,0-.32L49.17,94l-.06.66.32,0,.82,1-1.72-.15a.24.24,0,0,0-.26.22.23.23,0,0,0,.21.25l2.2.2.26.31-.28.24a.23.23,0,0,0,0,.33.21.21,0,0,0,.18.09.24.24,0,0,0,.15-.06l.28-.23.52.62-1-.08a.24.24,0,0,0-.26.21.24.24,0,0,0,.22.26L52.2,98l.44.52-1,.18.63.76-.64.11-1.19-.84a.25.25,0,0,0-.33.06.23.23,0,0,0,.06.33l.8.56-.81.15-.06-.36a.24.24,0,0,0-.28-.19.24.24,0,0,0-.19.27l.06.36-.4.07-1.8-1.27a.24.24,0,0,0-.28.39l1.42,1-1.25.21-.27-.18-.38.54.54.38.19-.27,1.25-.22-1,1.42a.23.23,0,0,0,.06.33.22.22,0,0,0,.13,0,.23.23,0,0,0,.2-.1l1.26-1.8.41-.08.06.36a.23.23,0,0,0,.23.2h0a.25.25,0,0,0,.2-.28l-.07-.36.81-.14-.56.8a.23.23,0,0,0,.06.33.24.24,0,0,0,.13,0,.24.24,0,0,0,.2-.11L51.7,100l.69-.12-.38,1,1-.17-.2.55-1.32.61a.23.23,0,0,0-.11.31.23.23,0,0,0,.31.12l.89-.41-.28.77-.34-.13a.24.24,0,1,0-.17.45l.34.12-.14.39-2,.93a.23.23,0,0,0-.12.31.25.25,0,0,0,.32.12l1.56-.73-.43,1.19-.3.14.28.6.6-.28-.14-.29.44-1.2.73,1.57a.23.23,0,0,0,.21.13.16.16,0,0,0,.1,0,.23.23,0,0,0,.12-.31l-.93-2,.14-.39.34.13H53a.23.23,0,0,0,.22-.15A.23.23,0,0,0,53,103l-.34-.12.28-.77.42.89a.23.23,0,0,0,.21.13.18.18,0,0,0,.1,0,.23.23,0,0,0,.12-.31l-.62-1.32.23-.62.72.85.34-.94.37.43-.13,1.45a.24.24,0,0,0,.21.26h0a.24.24,0,0,0,.24-.22l.09-1,.52.62-.28.24a.24.24,0,0,0,0,.33.25.25,0,0,0,.19.09.24.24,0,0,0,.15-.06l.28-.23.26.31-.19,2.2a.22.22,0,0,0,.21.25h0a.24.24,0,0,0,.24-.21l.15-1.72.82,1,0,.32.66.06,0-.65-.32,0-.82-1,1.73.15a.23.23,0,0,0,.25-.21.24.24,0,0,0-.21-.26l-2.2-.19-.26-.32.28-.23a.24.24,0,0,0,0-.33.24.24,0,0,0-.34,0l-.28.23-.52-.63,1,.09a.25.25,0,0,0,.26-.22.23.23,0,0,0-.21-.25l-1.45-.13-.38-.46,1-.18-.69-.83.61-.1,1.19.83a.23.23,0,0,0,.14,0,.22.22,0,0,0,.19-.1.23.23,0,0,0-.06-.33l-.8-.56.81-.14.06.36a.24.24,0,0,0,.24.19h0a.24.24,0,0,0,.19-.27L57.75,99l.4-.07L60,100.16a.21.21,0,0,0,.13,0,.24.24,0,0,0,.14-.44l-1.42-1,1.26-.22Zm-6.83,1.43-.5-.6.26-.72.75-.13.46.55s0,0,0,0a.43.43,0,0,0,0,.07l-.23.61-.08,0s0,0,0,0Zm1.2-1.36-.15-.18.23,0Zm-1-.51-.21,0,.07-.2Zm-.94.65-.07.2L52.52,99Zm.1,1.13.14.18-.22,0Zm1,.5.2,0-.07.2Zm.93-.64.07-.2.14.16Z" style="fill:#f0f0f0"></path><path d="M45.29,171.7l.37-.54-.54-.37-.18.26-1.25.22,1-1.42a.23.23,0,0,0-.06-.32.24.24,0,0,0-.33.05L43,171.39l-.41.07-.06-.36a.25.25,0,0,0-.28-.19.23.23,0,0,0-.19.27l.06.36-.8.14.56-.8a.24.24,0,0,0-.06-.33.23.23,0,0,0-.33.06l-.83,1.19-.58.1.35-1-1.07.18.23-.63,1.32-.61a.23.23,0,0,0,.11-.31.24.24,0,0,0-.31-.12l-.89.42.28-.77.34.12h.08a.23.23,0,0,0,.22-.15.24.24,0,0,0-.14-.31l-.34-.12.14-.39,2-.93a.23.23,0,1,0-.2-.42l-1.57.72.44-1.19.29-.14-.28-.6-.59.28.13.3-.43,1.19-.73-1.57a.26.26,0,0,0-.32-.11.23.23,0,0,0-.11.31l.93,2-.14.39-.34-.13a.24.24,0,0,0-.17.45l.34.12-.28.77-.41-.88a.24.24,0,0,0-.31-.12.25.25,0,0,0-.12.32l.61,1.31-.21.6-.65-.77-.35,1-.44-.52.13-1.45a.24.24,0,0,0-.47,0l-.09,1-.52-.63.27-.23a.24.24,0,0,0,0-.34.24.24,0,0,0-.33,0l-.28.24L36,168.8l.19-2.19a.24.24,0,0,0-.21-.26.23.23,0,0,0-.26.21l-.15,1.73-.82-1,0-.32-.66-.06-.06.66.33,0,.81,1-1.72-.15a.24.24,0,0,0-.26.21.24.24,0,0,0,.22.26l2.19.19.27.32-.28.23a.24.24,0,0,0,.15.42.25.25,0,0,0,.15,0l.28-.24.53.63-1-.08a.23.23,0,0,0-.25.21.23.23,0,0,0,.21.26l1.45.12.44.53-1,.18.63.75-.64.11-1.19-.83a.24.24,0,1,0-.27.39l.8.56-.8.14-.07-.36a.24.24,0,0,0-.27-.19.23.23,0,0,0-.19.28l.06.35-.41.08-1.8-1.27a.24.24,0,0,0-.33.06.23.23,0,0,0,.06.33l1.41,1-1.25.22-.26-.19-.38.54.54.38.18-.26,1.26-.22-1,1.41a.25.25,0,0,0,.2.38.24.24,0,0,0,.19-.1l1.27-1.81.4-.07.06.36a.24.24,0,0,0,.24.19h0a.23.23,0,0,0,.19-.27l-.06-.36.8-.14-.56.8a.24.24,0,0,0,.06.33.23.23,0,0,0,.14,0,.22.22,0,0,0,.19-.1l.83-1.19.69-.12-.38,1,1-.16-.2.54-1.32.62a.24.24,0,0,0,.2.43l.89-.42-.28.77-.34-.12a.23.23,0,0,0-.3.14.22.22,0,0,0,.14.3l.34.13-.14.38-2,.93a.24.24,0,0,0-.11.32.22.22,0,0,0,.31.11l1.57-.73-.44,1.2-.29.14.28.59.59-.27-.13-.3.43-1.19.73,1.56a.24.24,0,0,0,.22.14l.1,0a.24.24,0,0,0,.11-.32l-.93-2,.14-.39.35.13h.08a.24.24,0,0,0,.22-.16.24.24,0,0,0-.14-.3l-.34-.12.28-.77.41.88a.24.24,0,0,0,.21.14l.1,0a.25.25,0,0,0,.12-.32l-.61-1.31.22-.63.72.86.34-1,.37.44-.13,1.44a.24.24,0,0,0,.22.26h0a.23.23,0,0,0,.23-.21l.09-1,.53.63-.28.23a.24.24,0,0,0,0,.34.25.25,0,0,0,.18.08.27.27,0,0,0,.15-.05l.28-.24.26.32-.19,2.19a.24.24,0,0,0,.22.26h0a.23.23,0,0,0,.23-.22l.15-1.72.82,1,0,.32.66.06.06-.66-.33,0-.81-1,1.72.15a.24.24,0,0,0,.26-.22.24.24,0,0,0-.22-.25l-2.19-.2-.27-.31.28-.23a.24.24,0,0,0,0-.34.24.24,0,0,0-.33,0l-.28.24-.53-.63,1,.08a.23.23,0,0,0,.25-.21.23.23,0,0,0-.21-.26l-1.45-.13-.38-.45,1-.19-.69-.82.62-.11,1.19.84a.22.22,0,0,0,.13,0,.23.23,0,0,0,.2-.1.24.24,0,0,0-.06-.33l-.8-.56.81-.14.06.35a.23.23,0,0,0,.23.2h0a.24.24,0,0,0,.19-.28l-.06-.36.41-.07,1.8,1.27a.24.24,0,0,0,.27-.39l-1.41-1,1.25-.22Zm-6.83,1.43-.5-.6.26-.71.75-.13.45.54v0s0,0,0,.06l-.22.62s-.06,0-.08,0,0,0,0,0Zm1.19-1.36-.15-.18.23,0Zm-1-.5-.2,0,.07-.2Zm-.93.65-.07.19-.14-.16Zm.09,1.13.15.18-.23,0Zm1,.5.21,0-.07.2Zm.93-.64.08-.2.13.16Z" style="fill:#f0f0f0"></path><path d="M410.31,142.34l.37-.54-.54-.38-.18.27-1.26.22,1-1.42a.24.24,0,0,0-.06-.33.25.25,0,0,0-.33.06L408,142l-.4.07-.06-.36a.25.25,0,0,0-.28-.19.23.23,0,0,0-.19.27l.06.36-.8.14.56-.8a.24.24,0,0,0-.06-.33.23.23,0,0,0-.33.06l-.83,1.19-.58.1.35-.95-1.07.18.23-.63,1.32-.61a.23.23,0,0,0,.11-.31.24.24,0,0,0-.31-.12l-.89.42.28-.77.34.12h.08a.23.23,0,0,0,.22-.15.24.24,0,0,0-.14-.31l-.34-.12.14-.39,2-.93a.22.22,0,0,0,.11-.31.23.23,0,0,0-.31-.12l-1.57.73.44-1.19.29-.14-.28-.6-.59.28.13.3-.43,1.19-.73-1.57a.26.26,0,0,0-.32-.11.23.23,0,0,0-.11.31l.93,2-.14.39-.35-.13a.24.24,0,0,0-.3.14.25.25,0,0,0,.14.31l.34.12-.28.77-.41-.88a.24.24,0,1,0-.43.2l.61,1.31-.21.6-.65-.77-.35,1-.44-.52.13-1.45a.24.24,0,0,0-.22-.25.23.23,0,0,0-.25.21l-.09,1-.53-.63.28-.23a.24.24,0,0,0,0-.34.24.24,0,0,0-.33,0l-.28.24-.26-.32.19-2.19A.24.24,0,0,0,401,137a.23.23,0,0,0-.25.21l-.15,1.73-.82-1,0-.32-.66-.06-.06.66.33,0,.81,1-1.72-.15a.24.24,0,0,0-.26.21.24.24,0,0,0,.22.26l2.19.19.27.32-.28.23a.24.24,0,0,0,.15.42.27.27,0,0,0,.15-.05l.28-.24.53.63-1-.09a.24.24,0,0,0-.25.22.23.23,0,0,0,.21.26l1.45.12.44.53-1,.18.63.75-.64.11-1.19-.83a.24.24,0,0,0-.27.39l.8.56-.8.14-.07-.36a.24.24,0,0,0-.27-.19.23.23,0,0,0-.19.28l.06.35-.41.08-1.8-1.27a.24.24,0,0,0-.33.06.23.23,0,0,0,.06.33l1.41,1-1.25.22-.27-.19-.37.54.54.38.18-.26,1.26-.22-1,1.41a.25.25,0,0,0,.2.38.26.26,0,0,0,.19-.1l1.27-1.81.4-.07.06.36a.24.24,0,0,0,.24.19h0a.23.23,0,0,0,.19-.27l-.06-.36.8-.14-.56.8a.24.24,0,0,0,.06.33.24.24,0,0,0,.33-.06l.83-1.19.69-.12-.38,1,1-.16-.2.54-1.32.62a.23.23,0,0,0-.11.31.24.24,0,0,0,.31.12l.89-.42-.28.77-.34-.12a.23.23,0,0,0-.3.14.22.22,0,0,0,.14.3l.34.13-.14.38-2,.93a.24.24,0,0,0-.11.32.22.22,0,0,0,.31.11l1.57-.73-.44,1.2-.29.14.28.59.59-.27-.13-.3.43-1.19.73,1.56a.24.24,0,0,0,.22.14l.1,0a.24.24,0,0,0,.11-.32l-.93-2,.14-.39.34.12.09,0a.24.24,0,0,0,.22-.16.24.24,0,0,0-.14-.3l-.34-.13.28-.77.41.89a.23.23,0,0,0,.21.14l.1,0a.25.25,0,0,0,.12-.32l-.61-1.31.22-.63.72.86.34-.95.37.44-.13,1.44a.24.24,0,0,0,.22.26h0a.23.23,0,0,0,.23-.21l.09-1,.53.63-.28.23a.24.24,0,0,0,0,.34.23.23,0,0,0,.18.08.27.27,0,0,0,.15,0l.28-.24.26.32-.19,2.19a.24.24,0,0,0,.22.26h0a.23.23,0,0,0,.23-.22l.15-1.72.82,1,0,.32.66.06.06-.66-.33,0-.81-1,1.72.15a.26.26,0,0,0,.26-.22.24.24,0,0,0-.22-.25l-2.19-.2-.27-.31.28-.23a.25.25,0,0,0,0-.34.24.24,0,0,0-.33,0l-.28.24-.53-.63,1,.08a.23.23,0,0,0,.25-.21.23.23,0,0,0-.21-.26l-1.45-.13-.38-.45,1-.19-.69-.82.62-.11,1.19.84a.22.22,0,0,0,.13,0,.23.23,0,0,0,.2-.1.24.24,0,0,0-.06-.33l-.8-.56.8-.14.07.35a.23.23,0,0,0,.23.2h0a.24.24,0,0,0,.19-.28l-.06-.36.41-.07,1.8,1.27a.24.24,0,1,0,.27-.39l-1.41-1,1.25-.22Zm-6.83,1.43-.5-.6.26-.71.74-.13.46.54s0,0,0,0,0,0,0,.06l-.22.62s-.06,0-.08,0,0,0,0,0Zm1.19-1.36-.15-.18.23,0Zm-1-.5-.21,0,.08-.2Zm-.93.64-.07.2-.14-.16Zm.09,1.14.15.18-.23,0Zm1,.5.21,0-.07.2Zm.93-.64.08-.2.13.16Z" style="fill:#f0f0f0"></path><path d="M465.21,174.52l.38-.54-.54-.38-.19.27-1.25.22,1-1.42a.23.23,0,0,0-.06-.33.24.24,0,0,0-.33.06L463,174.2l-.41.07-.06-.35a.24.24,0,0,0-.27-.2.25.25,0,0,0-.2.28l.07.36-.81.14.56-.8a.23.23,0,0,0-.06-.33.24.24,0,0,0-.33,0l-.83,1.19-.57.1.34-1-1.07.19.23-.63,1.32-.61a.24.24,0,0,0,.11-.32.22.22,0,0,0-.31-.11l-.89.41.28-.77.35.13h.08a.24.24,0,0,0,.08-.46l-.34-.12.14-.39,2-.93a.24.24,0,0,0,.12-.31.25.25,0,0,0-.32-.12l-1.56.73.43-1.19.3-.14-.28-.6-.6.28.14.29-.44,1.2-.73-1.57a.22.22,0,0,0-.31-.11.23.23,0,0,0-.12.31l.93,2-.14.38-.34-.12a.23.23,0,0,0-.3.14.22.22,0,0,0,.14.3l.34.13-.28.77-.42-.89a.23.23,0,0,0-.42.2l.61,1.32-.22.6-.64-.77-.36,1-.43-.52.12-1.45a.24.24,0,0,0-.21-.26.24.24,0,0,0-.26.22l-.08,1-.53-.63.28-.23a.24.24,0,0,0,0-.33.24.24,0,0,0-.34,0l-.28.23-.26-.31.19-2.2a.24.24,0,0,0-.21-.26.25.25,0,0,0-.26.22l-.15,1.72-.82-1,0-.33-.65-.05-.06.65.32,0,.82,1-1.73-.16a.24.24,0,0,0-.25.22.24.24,0,0,0,.21.26l2.2.19.26.32-.28.23a.24.24,0,0,0,0,.33.25.25,0,0,0,.19.09.24.24,0,0,0,.15-.06l.28-.23.52.63-1-.09a.25.25,0,0,0-.26.22.24.24,0,0,0,.22.25l1.44.13.44.52-1,.18.64.76-.64.11-1.19-.83a.24.24,0,0,0-.33.05.23.23,0,0,0,.06.33l.8.57-.81.14-.06-.36a.25.25,0,0,0-.28-.19.23.23,0,0,0-.19.27l.06.36-.4.07-1.81-1.26a.24.24,0,0,0-.33,0,.25.25,0,0,0,.06.33l1.42,1-1.25.22-.27-.19-.38.54.54.38.19-.27,1.25-.22-1,1.42a.23.23,0,0,0,.06.33.2.2,0,0,0,.13,0,.23.23,0,0,0,.2-.1l1.26-1.8.41-.07.06.35a.23.23,0,0,0,.23.2h0a.24.24,0,0,0,.19-.28l-.06-.36.81-.14-.56.8a.23.23,0,0,0,.06.33.21.21,0,0,0,.13,0,.26.26,0,0,0,.2-.1l.83-1.19.68-.12-.37,1,1-.17-.2.55-1.32.61a.25.25,0,0,0-.12.32.24.24,0,0,0,.32.11l.89-.41-.28.77-.35-.13a.24.24,0,0,0-.3.15.24.24,0,0,0,.14.3l.34.12-.14.39-2,.93a.23.23,0,0,0-.11.31.24.24,0,0,0,.31.12l1.57-.73-.43,1.2-.3.13.28.6.6-.28-.14-.29.44-1.2.73,1.57a.23.23,0,0,0,.21.14.17.17,0,0,0,.1,0,.23.23,0,0,0,.12-.31l-.93-2,.14-.38.34.12.08,0a.22.22,0,0,0,.22-.16.23.23,0,0,0-.14-.3l-.34-.13.28-.77.41.89a.24.24,0,0,0,.22.14.19.19,0,0,0,.1,0,.22.22,0,0,0,.11-.31l-.61-1.32.23-.62.71.85.35-.94.36.43-.12,1.45a.23.23,0,0,0,.21.26h0a.24.24,0,0,0,.24-.22l.08-1,.53.63-.28.23a.24.24,0,0,0,0,.33.24.24,0,0,0,.18.09.25.25,0,0,0,.16-.06l.27-.23.27.31-.2,2.2a.25.25,0,0,0,.22.26h0a.25.25,0,0,0,.24-.22l.15-1.72.82,1,0,.33.65,0,.06-.65-.32,0-.82-1,1.72.16a.25.25,0,0,0,.26-.22.24.24,0,0,0-.21-.26l-2.2-.19-.26-.32.28-.23a.24.24,0,0,0,0-.33.24.24,0,0,0-.34,0l-.28.23-.52-.63,1,.09a.25.25,0,0,0,.26-.22.24.24,0,0,0-.22-.25l-1.44-.13-.39-.46,1-.18-.69-.82.61-.11,1.19.83a.24.24,0,0,0,.14.05.26.26,0,0,0,.19-.1.23.23,0,0,0-.06-.33l-.8-.57.81-.14.06.36a.25.25,0,0,0,.24.2h0a.23.23,0,0,0,.19-.27l-.06-.36.4-.07,1.8,1.26a.27.27,0,0,0,.14,0,.23.23,0,0,0,.19-.1.24.24,0,0,0-.05-.33l-1.42-1,1.25-.22ZM458.38,176l-.5-.6.26-.71.75-.13.46.54s0,0,0,0l0,.06-.23.62s-.06,0-.08,0,0,0,0,.05Zm1.2-1.36-.15-.18.23,0Zm-1-.5-.21,0,.07-.2Zm-.94.64-.07.2-.14-.16Zm.09,1.13.15.18-.23,0Zm1,.51.21,0-.07.2Zm.94-.65.07-.2.14.16Z" style="fill:#f0f0f0"></path></g></g></svg>